<svg width="165" height="164" viewBox="0 0 165 164" fill="none" xmlns="http://www.w3.org/2000/svg">
<path d="M161.377 81.8215C161.377 125.352 126.089 160.64 82.5598 160.64C39.0303 160.64 3.74266 125.352 3.74266 81.8215C3.74266 38.2914 39.0303 3.00341 82.5598 3.00341C126.089 3.00341 161.377 38.2914 161.377 81.8215Z" fill="#FFEBDC" stroke="#FF903F" stroke-width="6.00681"/>
<path d="M50.418 57.512L53.4463 35.0168L64.2614 46.926L76.3743 24.4309L89.785 43.3974C101.321 36.7812 122.846 20.3896 122.846 20.3896L118.138 50.9121L149.917 67.6568L116.606 72.5087L136.506 110.442L91.948 99.8557L95.8415 126.321L67.2896 96.3271L45.6594 114.411V94.5627L19.2705 98.0914L38.7377 72.5087L22.2987 55.3065L50.418 57.512Z" fill="white"/>
<path d="M45.7969 78.127H114.105L108.361 136.651H52.6896L45.7969 78.127Z" fill="#FF903F"/>
<rect x="76.4717" y="78.126" width="6.96193" height="58.5242" fill="black"/>
<mask id="mask0_2019_4902" style="mask-type:alpha" maskUnits="userSpaceOnUse" x="45" y="78" width="70" height="59">
<path d="M45.7998 78.123H114.107L108.364 136.647H52.6925L45.7998 78.123Z" fill="#FF903F"/>
</mask>
<g mask="url(#mask0_2019_4902)">
<rect x="113.143" y="94.7949" width="7.89598" height="66.3746" transform="rotate(90 113.143 94.7949)" fill="black"/>
</g>
<path d="M75.9428 52.7256L57.9199 64.4557L76.4756 78.12H79.7929L75.9428 52.7256Z" fill="black"/>
<path d="M82.5679 49.1263L79.397 82.1507L83.4373 78.1273L94.9411 54.8377L82.5679 49.1263Z" fill="black"/>
<path d="M77.5759 27.4034L74.8306 43.1948L68.1668 43.3355L66.7355 35.3812L65.3042 42.7255L58.6404 42.9601L55.8716 27.8727L61.6907 27.3565L62.8639 36.6248L64.436 28.0604H69.0115L70.8417 36.7421L71.7803 26.8872L77.5759 27.4034ZM90.2531 34.208C90.2531 34.8885 90.2062 35.5689 90.1123 36.2494C88.7749 36.3354 87.4452 36.4762 86.1234 36.6717C84.8016 36.8594 83.4798 37.0472 82.158 37.2349C82.3613 37.798 82.6781 38.2477 83.1083 38.5841C83.5463 38.9204 84.0664 39.0885 84.6686 39.0885C84.9815 39.0885 85.3217 39.0299 85.6893 38.9126C86.0648 38.7952 86.4363 38.6505 86.8039 38.4785C87.1715 38.2986 87.5234 38.107 87.8598 37.9036C88.1961 37.7002 88.4855 37.5164 88.7279 37.3522L88.1648 42.6785C87.8598 42.9132 87.5274 43.1126 87.1676 43.2769C86.8156 43.4411 86.448 43.5741 86.0648 43.6758C85.6815 43.7774 85.2944 43.8517 84.9033 43.8987C84.5122 43.9456 84.129 43.9691 83.7535 43.9691C82.9792 43.9691 82.2714 43.8635 81.63 43.6523C80.9887 43.4411 80.406 43.1478 79.882 42.7724C79.3658 42.3892 78.9121 41.9394 78.5211 41.4232C78.13 40.907 77.8054 40.3439 77.5473 39.7338C77.2892 39.1237 77.0937 38.4785 76.9607 37.798C76.8277 37.1176 76.7612 36.4293 76.7612 35.7332C76.7612 35.0058 76.8277 34.2784 76.9607 33.551C77.0937 32.8236 77.2931 32.1236 77.559 31.451C77.8328 30.7783 78.173 30.1565 78.5797 29.5856C78.9942 29.0068 79.4753 28.5023 80.0228 28.0721C80.5702 27.642 81.1881 27.3056 81.8764 27.0632C82.5725 26.8207 83.339 26.6995 84.1759 26.6995C84.872 26.6995 85.5055 26.7973 86.0765 26.9928C86.6553 27.1805 87.1676 27.4464 87.6134 27.7906C88.067 28.1269 88.4581 28.5297 88.7866 28.999C89.1229 29.4683 89.3967 29.9845 89.6078 30.5476C89.8268 31.1029 89.9872 31.6934 90.0889 32.3191C90.1984 32.937 90.2531 33.5667 90.2531 34.208ZM85.5603 33.5979C85.5603 33.3789 85.5368 33.156 85.4899 32.9292C85.443 32.6946 85.3647 32.4834 85.2552 32.2957C85.1536 32.108 85.0167 31.9554 84.8446 31.8381C84.6726 31.713 84.4575 31.6504 84.1994 31.6504C83.8865 31.6504 83.6089 31.7365 83.3664 31.9085C83.1317 32.0728 82.9284 32.2839 82.7563 32.5421C82.5843 32.7923 82.4435 33.0661 82.334 33.3633C82.2245 33.6605 82.1423 33.9343 82.0876 34.1845L85.5603 33.856V33.5979ZM103.599 34.3723C103.599 35.4672 103.458 36.4488 103.177 37.317C102.895 38.1852 102.5 38.9556 101.992 39.6282C101.491 40.293 100.893 40.8601 100.197 41.3294C99.5006 41.7986 98.738 42.1858 97.909 42.4908C97.0799 42.788 96.1961 43.007 95.2575 43.1478C94.3268 43.2886 93.3687 43.359 92.3832 43.359C92.0156 43.359 91.6558 43.3512 91.3038 43.3355C90.9519 43.3121 90.5921 43.2808 90.2245 43.2417L90.553 27.9666C91.4133 27.6928 92.2971 27.5012 93.2044 27.3917C94.1195 27.2744 95.0268 27.2157 95.9263 27.2157C97.0447 27.2157 98.0732 27.3721 99.0118 27.685C99.9503 27.9978 100.76 28.4593 101.44 29.0694C102.121 29.6716 102.649 30.4186 103.024 31.3102C103.407 32.194 103.599 33.2147 103.599 34.3723ZM95.6212 38.8774C96.0905 38.807 96.5168 38.6662 96.9 38.455C97.2911 38.236 97.6274 37.9701 97.909 37.6572C98.1905 37.3365 98.4056 36.9768 98.5542 36.5779C98.7107 36.1712 98.7889 35.741 98.7889 35.2874C98.7889 34.8415 98.7419 34.427 98.6481 34.0438C98.5542 33.6527 98.4017 33.3164 98.1905 33.0348C97.9794 32.7454 97.7017 32.5186 97.3576 32.3543C97.0134 32.1823 96.5911 32.0884 96.0905 32.0728L95.6212 38.8774Z" fill="black"/>
</svg>
