<svg width="960" height="82" viewBox="0 0 960 82" fill="none" xmlns="http://www.w3.org/2000/svg">
<rect width="960" height="82" rx="12.5948" fill="white"/>
<path d="M218.652 43.3047C218.652 44.1589 218.503 44.9531 218.206 45.6875C217.915 46.4167 217.469 47.0547 216.87 47.6016C216.277 48.1432 215.542 48.5469 214.667 48.8125L213.714 47.2344C214.454 47.0156 215.073 46.7031 215.573 46.2969C216.079 45.8906 216.451 45.4323 216.691 44.9219C216.935 44.4062 217.058 43.8672 217.058 43.3047V42.7891H218.652V43.3047ZM219.034 43.3047C219.034 43.8151 219.154 44.3073 219.394 44.7812C219.639 45.25 220.008 45.6719 220.503 46.0469C221.003 46.4219 221.623 46.7083 222.362 46.9062L221.456 48.4375C220.576 48.2031 219.834 47.8333 219.23 47.3281C218.626 46.8177 218.172 46.2188 217.87 45.5312C217.568 44.8438 217.417 44.1016 217.417 43.3047V42.7891H219.034V43.3047ZM221.902 43.2578H214.191V41.6875H221.902V43.2578ZM219.058 42.3594H217.058V40.1797H219.058V42.3594ZM224.308 45.6328H221.511V44H224.308V45.6328ZM225.777 49.9219H223.777V40.2031H225.777V49.9219ZM221.683 49.2969C221.683 50.1042 221.461 50.8646 221.019 51.5781C220.581 52.2917 219.943 52.8958 219.105 53.3906C218.271 53.8854 217.284 54.2135 216.144 54.375L215.441 52.8203C216.383 52.6797 217.196 52.4245 217.878 52.0547C218.566 51.6797 219.086 51.25 219.441 50.7656C219.8 50.2812 219.982 49.7917 219.987 49.2969V49.0703H221.683V49.2969ZM222.027 49.2969C222.027 49.8229 222.198 50.3281 222.542 50.8125C222.891 51.2969 223.407 51.7188 224.089 52.0781C224.777 52.4375 225.612 52.6849 226.597 52.8203L225.816 54.375C224.67 54.2135 223.685 53.8906 222.862 53.4062C222.04 52.9219 221.409 52.3255 220.972 51.6172C220.54 50.9089 220.326 50.1354 220.331 49.2969V49.0703H222.027V49.2969ZM237.792 45.6016H234.089V44H237.792V45.6016ZM239.292 50.7188H237.308V40.2344H239.292V50.7188ZM239.597 54.1953H229.824V52.5859H239.597V54.1953ZM231.839 53.5H229.824V49.6719H231.839V53.5ZM229.917 43.3359H232.714V41.1641H234.691V48.4766H227.91V41.1641H229.917V43.3359ZM232.714 46.8984V44.8594H229.917V46.8984H232.714ZM253.41 54.4375H251.527V40.2031H253.41V54.4375ZM252.23 47.3594H249.933V45.7422H252.23V47.3594ZM250.59 53.7812H248.746V40.4219H250.59V53.7812ZM243.527 44.1797C243.522 45.2526 243.475 46.2083 243.387 47.0469C243.298 47.8802 243.108 48.6745 242.816 49.4297C242.53 50.1849 242.111 50.7943 241.558 51.2578L240.449 49.9297C240.944 49.513 241.319 49.0026 241.574 48.3984C241.829 47.7891 241.996 47.1641 242.074 46.5234C242.152 45.8776 242.194 45.1354 242.199 44.2969V44.1797V42.8203H243.527V44.1797ZM243.902 44.1797C243.897 44.987 243.928 45.724 243.996 46.3906C244.064 47.0521 244.222 47.7109 244.472 48.3672C244.722 49.0234 245.103 49.5859 245.613 50.0547L244.668 51.4141C244.069 50.9297 243.616 50.2865 243.308 49.4844C243.006 48.6823 242.811 47.8542 242.722 47C242.639 46.1458 242.6 45.2057 242.605 44.1797V42.8203H243.902V44.1797ZM246.722 44.1797C246.717 45.2318 246.673 46.1823 246.59 47.0312C246.506 47.875 246.314 48.6953 246.012 49.4922C245.709 50.2839 245.262 50.9245 244.668 51.4141L243.73 50.0547C244.236 49.5859 244.611 49.0339 244.855 48.3984C245.105 47.7578 245.262 47.1224 245.324 46.4922C245.392 45.8568 245.428 45.1146 245.433 44.2656V44.1797V42.8203H246.722V44.1797ZM247.144 44.1797C247.139 45.0391 247.173 45.7969 247.246 46.4531C247.324 47.1094 247.491 47.7474 247.746 48.3672C248.001 48.987 248.381 49.5078 248.887 49.9297L247.793 51.2578C247.241 50.7943 246.816 50.1875 246.519 49.4375C246.228 48.6823 246.032 47.8828 245.933 47.0391C245.84 46.1901 245.795 45.237 245.801 44.1797V42.8203H247.144V44.1797ZM244.512 43.3906H240.957V41.7969H244.512V43.3906ZM248.191 43.3906H244.847V41.7969H248.191V43.3906ZM262.575 42.7266C262.569 43.6536 262.418 44.5182 262.122 45.3203C261.825 46.1172 261.369 46.8125 260.754 47.4062C260.145 48 259.395 48.4401 258.504 48.7266L257.504 47.1562C258.265 46.9115 258.903 46.5599 259.418 46.1016C259.934 45.638 260.314 45.1172 260.559 44.5391C260.809 43.9609 260.937 43.3568 260.942 42.7266V41.7969H262.575V42.7266ZM262.958 42.7188C262.958 43.2969 263.075 43.8464 263.309 44.3672C263.543 44.8828 263.905 45.3464 264.395 45.7578C264.885 46.1641 265.497 46.4766 266.231 46.6953L265.293 48.25C264.418 47.9896 263.687 47.5859 263.098 47.0391C262.51 46.487 262.067 45.8438 261.77 45.1094C261.478 44.3698 261.333 43.5729 261.333 42.7188V41.7969H262.958V42.7188ZM265.793 42.7578H258.043V41.1641H265.793V42.7578ZM268.989 48.6484H266.997V40.2031H268.989V48.6484ZM270.911 45.1406H268.426V43.5156H270.911V45.1406ZM264.325 48.9297C265.309 48.9297 266.161 49.0391 266.879 49.2578C267.603 49.4714 268.158 49.7839 268.543 50.1953C268.929 50.6068 269.122 51.099 269.122 51.6719C269.122 52.2448 268.929 52.737 268.543 53.1484C268.158 53.5651 267.603 53.8828 266.879 54.1016C266.161 54.3255 265.309 54.4375 264.325 54.4375C263.33 54.4375 262.465 54.3255 261.731 54.1016C260.997 53.8828 260.431 53.5651 260.036 53.1484C259.645 52.737 259.45 52.2448 259.45 51.6719C259.45 51.099 259.645 50.6068 260.036 50.1953C260.431 49.7839 260.994 49.4714 261.723 49.2578C262.458 49.0391 263.325 48.9297 264.325 48.9297ZM264.325 50.4766C263.705 50.4766 263.179 50.5208 262.747 50.6094C262.319 50.6979 261.997 50.8333 261.778 51.0156C261.559 51.1927 261.452 51.4115 261.458 51.6719C261.452 51.9427 261.559 52.1693 261.778 52.3516C261.997 52.5286 262.319 52.6641 262.747 52.7578C263.174 52.8464 263.7 52.8906 264.325 52.8906C264.944 52.8906 265.463 52.8464 265.879 52.7578C266.301 52.6641 266.619 52.5286 266.833 52.3516C267.051 52.1693 267.161 51.9427 267.161 51.6719C267.161 51.4062 267.051 51.1849 266.833 51.0078C266.619 50.8307 266.301 50.6979 265.879 50.6094C265.463 50.5208 264.944 50.4766 264.325 50.4766ZM281.763 44.0625H278.145V42.4453H281.763V44.0625ZM281.825 47.1016H278.145V45.5234H281.825V47.1016ZM278.567 48.2969H271.809V41.375H278.567V48.2969ZM273.786 46.75H276.606V42.9531H273.786V46.75ZM283.2 50.5781H281.216V40.2344H283.2V50.5781ZM283.505 54.1953H273.731V52.5859H283.505V54.1953ZM275.747 53.4141H273.731V49.6016H275.747V53.4141Z" fill="#FF903F"/>
<path d="M378.003 46.6562H368.503V45.4844H378.003V46.6562ZM379.589 49.5625H366.777V48.3672H379.589V49.5625ZM373.878 54.2812H372.417V49.0312H373.878V54.2812ZM377.831 42.3359H370.019V46.0391H368.503V41.125H377.831V42.3359ZM390.902 45.4219H386.98V44.1953H390.902V45.4219ZM391.972 50.6875H390.488V40.3359H391.972V50.6875ZM392.285 54.0469H382.824V52.8203H392.285V54.0469ZM384.324 53.4609H382.824V49.6641H384.324V53.4609ZM382.449 43.6328H385.964V41.2656H387.425V48.3594H380.972V41.2656H382.449V43.6328ZM385.964 47.1562V44.7891H382.449V47.1562H385.964ZM406.051 54.3203H404.637V40.3203H406.051V54.3203ZM405.168 47.1719H402.785V45.9531H405.168V47.1719ZM403.293 53.6328H401.91V40.5859H403.293V53.6328ZM396.41 44.4375C396.405 45.3281 396.345 46.1771 396.23 46.9844C396.121 47.7917 395.915 48.5599 395.613 49.2891C395.316 50.0182 394.897 50.6042 394.355 51.0469L393.496 50.0312C393.991 49.6302 394.376 49.1224 394.652 48.5078C394.933 47.8932 395.124 47.2604 395.222 46.6094C395.327 45.9531 395.381 45.263 395.387 44.5391V44.4375V42.7188H396.41V44.4375ZM396.683 44.4375C396.678 45.1198 396.709 45.7917 396.777 46.4531C396.845 47.1094 397.004 47.7734 397.254 48.4453C397.509 49.1172 397.887 49.6823 398.387 50.1406L397.644 51.1875C397.082 50.7135 396.655 50.0833 396.363 49.2969C396.071 48.5104 395.881 47.7161 395.793 46.9141C395.709 46.1068 395.67 45.2812 395.676 44.4375V42.7188H396.683V44.4375ZM399.621 44.4375C399.616 45.3542 399.569 46.2109 399.48 47.0078C399.397 47.8047 399.209 48.5859 398.918 49.3516C398.631 50.112 398.207 50.724 397.644 51.1875L396.918 50.1406C397.413 49.7083 397.782 49.1719 398.027 48.5312C398.277 47.8906 398.439 47.2526 398.512 46.6172C398.584 45.9818 398.624 45.2786 398.629 44.5078V44.4375V42.7188H399.621V44.4375ZM399.918 44.4375C399.913 45.1771 399.959 45.8828 400.058 46.5547C400.157 47.2266 400.345 47.875 400.621 48.5C400.902 49.1198 401.295 49.6302 401.801 50.0312L400.957 51.0469C400.415 50.6094 399.991 50.0286 399.683 49.3047C399.381 48.5807 399.173 47.8125 399.058 47C398.944 46.1823 398.889 45.3281 398.894 44.4375V42.7188H399.918V44.4375ZM397.457 43.1797H394.004V41.9844H397.457V43.1797ZM401.183 43.1797H397.863V41.9844H401.183V43.1797ZM415.512 42.9219C415.512 43.7865 415.353 44.5964 415.036 45.3516C414.723 46.1068 414.267 46.763 413.668 47.3203C413.075 47.8776 412.369 48.2969 411.551 48.5781L410.801 47.3984C411.515 47.1589 412.135 46.8099 412.661 46.3516C413.192 45.8932 413.598 45.3698 413.879 44.7812C414.166 44.1927 414.312 43.5729 414.317 42.9219V41.8516H415.512V42.9219ZM415.786 42.9141C415.786 43.5078 415.921 44.0729 416.192 44.6094C416.463 45.1458 416.851 45.6224 417.356 46.0391C417.861 46.4505 418.46 46.7656 419.153 46.9844L418.45 48.1484C417.648 47.888 416.958 47.5 416.379 46.9844C415.801 46.4635 415.356 45.8568 415.043 45.1641C414.736 44.4661 414.583 43.7161 414.583 42.9141V41.8516H415.786V42.9141ZM418.817 42.5312H411.231V41.3281H418.817V42.5312ZM421.903 48.7266H420.426V40.3203H421.903V48.7266ZM423.942 45.0156H421.489V43.7891H423.942V45.0156ZM417.379 49.0703C418.338 49.0703 419.166 49.1719 419.864 49.375C420.567 49.5781 421.103 49.875 421.473 50.2656C421.843 50.6562 422.028 51.125 422.028 51.6719C422.028 52.2188 421.843 52.6875 421.473 53.0781C421.103 53.474 420.567 53.776 419.864 53.9844C419.166 54.1979 418.338 54.3047 417.379 54.3047C416.416 54.3047 415.58 54.1979 414.872 53.9844C414.168 53.776 413.627 53.474 413.247 53.0781C412.872 52.6875 412.684 52.2188 412.684 51.6719C412.684 51.125 412.872 50.6562 413.247 50.2656C413.627 49.875 414.168 49.5781 414.872 49.375C415.58 49.1719 416.416 49.0703 417.379 49.0703ZM417.379 50.2422C416.713 50.2422 416.137 50.2969 415.653 50.4062C415.174 50.5156 414.806 50.6797 414.551 50.8984C414.296 51.1172 414.171 51.375 414.176 51.6719C414.171 51.9792 414.296 52.2422 414.551 52.4609C414.806 52.6797 415.174 52.8464 415.653 52.9609C416.132 53.0755 416.708 53.1328 417.379 53.1328C418.051 53.1328 418.627 53.0755 419.106 52.9609C419.585 52.8464 419.95 52.6797 420.2 52.4609C420.455 52.2422 420.583 51.9792 420.583 51.6719C420.583 51.3698 420.455 51.112 420.2 50.8984C419.95 50.6797 419.585 50.5156 419.106 50.4062C418.627 50.2969 418.051 50.2422 417.379 50.2422ZM435.028 43.9297H431.2V42.7031H435.028V43.9297ZM435.075 46.9219H431.2V45.7188H435.075V46.9219ZM431.552 48.1484H425.044V41.5234H431.552V48.1484ZM426.52 46.9766H430.091V42.7266H426.52V46.9766ZM436.083 50.5469H434.598V40.3359H436.083V50.5469ZM436.395 54.0469H426.934V52.8203H436.395V54.0469ZM428.434 53.3984H426.934V49.6172H428.434V53.3984Z" fill="#A9ABB8"/>
<path d="M529.98 46.4844H527.355V45.2422H529.98V46.4844ZM525.784 44.2109C525.784 45.2214 525.657 46.1927 525.402 47.125C525.152 48.0573 524.779 48.8958 524.284 49.6406C523.795 50.3802 523.209 50.9583 522.527 51.375L521.597 50.2656C522.237 49.8854 522.787 49.375 523.245 48.7344C523.704 48.0885 524.047 47.3776 524.277 46.6016C524.511 45.8255 524.628 45.0286 524.628 44.2109V41.6016H525.784V44.2109ZM526.058 44.1484C526.058 44.9297 526.165 45.6875 526.378 46.4219C526.592 47.1562 526.909 47.8307 527.331 48.4453C527.753 49.0599 528.266 49.5521 528.87 49.9219L528.042 51.0625C527.365 50.6562 526.792 50.0911 526.323 49.3672C525.855 48.638 525.506 47.8281 525.277 46.9375C525.047 46.0469 524.935 45.1172 524.941 44.1484V41.6016H526.058V44.1484ZM533.839 54.3203H532.409V40.3203H533.839V54.3203ZM530.933 53.6328H529.534V40.5859H530.933V53.6328ZM545.902 45.4219H541.98V44.1953H545.902V45.4219ZM546.972 50.6875H545.488V40.3359H546.972V50.6875ZM547.285 54.0469H537.824V52.8203H547.285V54.0469ZM539.324 53.4609H537.824V49.6641H539.324V53.4609ZM537.449 43.6328H540.964V41.2656H542.425V48.3594H535.972V41.2656H537.449V43.6328ZM540.964 47.1562V44.7891H537.449V47.1562H540.964ZM561.051 54.3203H559.637V40.3203H561.051V54.3203ZM560.168 47.1719H557.785V45.9531H560.168V47.1719ZM558.293 53.6328H556.91V40.5859H558.293V53.6328ZM551.41 44.4375C551.405 45.3281 551.345 46.1771 551.23 46.9844C551.121 47.7917 550.915 48.5599 550.613 49.2891C550.316 50.0182 549.897 50.6042 549.355 51.0469L548.496 50.0312C548.991 49.6302 549.376 49.1224 549.652 48.5078C549.933 47.8932 550.124 47.2604 550.222 46.6094C550.327 45.9531 550.381 45.263 550.387 44.5391V44.4375V42.7188H551.41V44.4375ZM551.683 44.4375C551.678 45.1198 551.709 45.7917 551.777 46.4531C551.845 47.1094 552.004 47.7734 552.254 48.4453C552.509 49.1172 552.887 49.6823 553.387 50.1406L552.644 51.1875C552.082 50.7135 551.655 50.0833 551.363 49.2969C551.071 48.5104 550.881 47.7161 550.793 46.9141C550.709 46.1068 550.67 45.2812 550.676 44.4375V42.7188H551.683V44.4375ZM554.621 44.4375C554.616 45.3542 554.569 46.2109 554.48 47.0078C554.397 47.8047 554.209 48.5859 553.918 49.3516C553.631 50.112 553.207 50.724 552.644 51.1875L551.918 50.1406C552.413 49.7083 552.782 49.1719 553.027 48.5312C553.277 47.8906 553.439 47.2526 553.512 46.6172C553.584 45.9818 553.624 45.2786 553.629 44.5078V44.4375V42.7188H554.621V44.4375ZM554.918 44.4375C554.913 45.1771 554.959 45.8828 555.058 46.5547C555.157 47.2266 555.345 47.875 555.621 48.5C555.902 49.1198 556.295 49.6302 556.801 50.0312L555.957 51.0469C555.415 50.6094 554.991 50.0286 554.683 49.3047C554.381 48.5807 554.173 47.8125 554.058 47C553.944 46.1823 553.889 45.3281 553.894 44.4375V42.7188H554.918V44.4375ZM552.457 43.1797H549.004V41.9844H552.457V43.1797ZM556.183 43.1797H552.863V41.9844H556.183V43.1797ZM570.512 42.9219C570.512 43.7865 570.353 44.5964 570.036 45.3516C569.723 46.1068 569.267 46.763 568.668 47.3203C568.075 47.8776 567.369 48.2969 566.551 48.5781L565.801 47.3984C566.515 47.1589 567.135 46.8099 567.661 46.3516C568.192 45.8932 568.598 45.3698 568.879 44.7812C569.166 44.1927 569.312 43.5729 569.317 42.9219V41.8516H570.512V42.9219ZM570.786 42.9141C570.786 43.5078 570.921 44.0729 571.192 44.6094C571.463 45.1458 571.851 45.6224 572.356 46.0391C572.861 46.4505 573.46 46.7656 574.153 46.9844L573.45 48.1484C572.648 47.888 571.958 47.5 571.379 46.9844C570.801 46.4635 570.356 45.8568 570.043 45.1641C569.736 44.4661 569.583 43.7161 569.583 42.9141V41.8516H570.786V42.9141ZM573.817 42.5312H566.231V41.3281H573.817V42.5312ZM576.903 48.7266H575.426V40.3203H576.903V48.7266ZM578.942 45.0156H576.489V43.7891H578.942V45.0156ZM572.379 49.0703C573.338 49.0703 574.166 49.1719 574.864 49.375C575.567 49.5781 576.103 49.875 576.473 50.2656C576.843 50.6562 577.028 51.125 577.028 51.6719C577.028 52.2188 576.843 52.6875 576.473 53.0781C576.103 53.474 575.567 53.776 574.864 53.9844C574.166 54.1979 573.338 54.3047 572.379 54.3047C571.416 54.3047 570.58 54.1979 569.872 53.9844C569.168 53.776 568.627 53.474 568.247 53.0781C567.872 52.6875 567.684 52.2188 567.684 51.6719C567.684 51.125 567.872 50.6562 568.247 50.2656C568.627 49.875 569.168 49.5781 569.872 49.375C570.58 49.1719 571.416 49.0703 572.379 49.0703ZM572.379 50.2422C571.713 50.2422 571.137 50.2969 570.653 50.4062C570.174 50.5156 569.806 50.6797 569.551 50.8984C569.296 51.1172 569.171 51.375 569.176 51.6719C569.171 51.9792 569.296 52.2422 569.551 52.4609C569.806 52.6797 570.174 52.8464 570.653 52.9609C571.132 53.0755 571.708 53.1328 572.379 53.1328C573.051 53.1328 573.627 53.0755 574.106 52.9609C574.585 52.8464 574.95 52.6797 575.2 52.4609C575.455 52.2422 575.583 51.9792 575.583 51.6719C575.583 51.3698 575.455 51.112 575.2 50.8984C574.95 50.6797 574.585 50.5156 574.106 50.4062C573.627 50.2969 573.051 50.2422 572.379 50.2422ZM590.028 43.9297H586.2V42.7031H590.028V43.9297ZM590.075 46.9219H586.2V45.7188H590.075V46.9219ZM586.552 48.1484H580.044V41.5234H586.552V48.1484ZM581.52 46.9766H585.091V42.7266H581.52V46.9766ZM591.083 50.5469H589.598V40.3359H591.083V50.5469ZM591.395 54.0469H581.934V52.8203H591.395V54.0469ZM583.434 53.3984H581.934V49.6172H583.434V53.3984Z" fill="#A9ABB8"/>
<path d="M677.909 49.9688H676.433V41.7812H677.909V49.9688ZM677.347 49.5547C678.274 49.5599 679.12 49.5312 679.886 49.4688C680.652 49.4062 681.441 49.2891 682.253 49.1172L682.464 50.3828C681.62 50.5651 680.805 50.6875 680.019 50.75C679.232 50.8073 678.342 50.8385 677.347 50.8438H676.433V49.5547H677.347ZM687.823 54.3203H686.417V40.3203H687.823V54.3203ZM683.8 46.1641H680.362V44.9531H683.8V46.1641ZM684.831 53.6484H683.425V40.6406H684.831V53.6484ZM699.902 45.4219H695.98V44.1953H699.902V45.4219ZM700.972 50.6875H699.488V40.3359H700.972V50.6875ZM701.285 54.0469H691.824V52.8203H701.285V54.0469ZM693.324 53.4609H691.824V49.6641H693.324V53.4609ZM691.449 43.6328H694.964V41.2656H696.425V48.3594H689.972V41.2656H691.449V43.6328ZM694.964 47.1562V44.7891H691.449V47.1562H694.964ZM715.051 54.3203H713.637V40.3203H715.051V54.3203ZM714.168 47.1719H711.785V45.9531H714.168V47.1719ZM712.293 53.6328H710.91V40.5859H712.293V53.6328ZM705.41 44.4375C705.405 45.3281 705.345 46.1771 705.23 46.9844C705.121 47.7917 704.915 48.5599 704.613 49.2891C704.316 50.0182 703.897 50.6042 703.355 51.0469L702.496 50.0312C702.991 49.6302 703.376 49.1224 703.652 48.5078C703.933 47.8932 704.124 47.2604 704.222 46.6094C704.327 45.9531 704.381 45.263 704.387 44.5391V44.4375V42.7188H705.41V44.4375ZM705.683 44.4375C705.678 45.1198 705.709 45.7917 705.777 46.4531C705.845 47.1094 706.004 47.7734 706.254 48.4453C706.509 49.1172 706.887 49.6823 707.387 50.1406L706.644 51.1875C706.082 50.7135 705.655 50.0833 705.363 49.2969C705.071 48.5104 704.881 47.7161 704.793 46.9141C704.709 46.1068 704.67 45.2812 704.676 44.4375V42.7188H705.683V44.4375ZM708.621 44.4375C708.616 45.3542 708.569 46.2109 708.48 47.0078C708.397 47.8047 708.209 48.5859 707.918 49.3516C707.631 50.112 707.207 50.724 706.644 51.1875L705.918 50.1406C706.413 49.7083 706.782 49.1719 707.027 48.5312C707.277 47.8906 707.439 47.2526 707.512 46.6172C707.584 45.9818 707.624 45.2786 707.629 44.5078V44.4375V42.7188H708.621V44.4375ZM708.918 44.4375C708.913 45.1771 708.959 45.8828 709.058 46.5547C709.157 47.2266 709.345 47.875 709.621 48.5C709.902 49.1198 710.295 49.6302 710.801 50.0312L709.957 51.0469C709.415 50.6094 708.991 50.0286 708.683 49.3047C708.381 48.5807 708.173 47.8125 708.058 47C707.944 46.1823 707.889 45.3281 707.894 44.4375V42.7188H708.918V44.4375ZM706.457 43.1797H703.004V41.9844H706.457V43.1797ZM710.183 43.1797H706.863V41.9844H710.183V43.1797ZM724.512 42.9219C724.512 43.7865 724.353 44.5964 724.036 45.3516C723.723 46.1068 723.267 46.763 722.668 47.3203C722.075 47.8776 721.369 48.2969 720.551 48.5781L719.801 47.3984C720.515 47.1589 721.135 46.8099 721.661 46.3516C722.192 45.8932 722.598 45.3698 722.879 44.7812C723.166 44.1927 723.312 43.5729 723.317 42.9219V41.8516H724.512V42.9219ZM724.786 42.9141C724.786 43.5078 724.921 44.0729 725.192 44.6094C725.463 45.1458 725.851 45.6224 726.356 46.0391C726.861 46.4505 727.46 46.7656 728.153 46.9844L727.45 48.1484C726.648 47.888 725.958 47.5 725.379 46.9844C724.801 46.4635 724.356 45.8568 724.043 45.1641C723.736 44.4661 723.583 43.7161 723.583 42.9141V41.8516H724.786V42.9141ZM727.817 42.5312H720.231V41.3281H727.817V42.5312ZM730.903 48.7266H729.426V40.3203H730.903V48.7266ZM732.942 45.0156H730.489V43.7891H732.942V45.0156ZM726.379 49.0703C727.338 49.0703 728.166 49.1719 728.864 49.375C729.567 49.5781 730.103 49.875 730.473 50.2656C730.843 50.6562 731.028 51.125 731.028 51.6719C731.028 52.2188 730.843 52.6875 730.473 53.0781C730.103 53.474 729.567 53.776 728.864 53.9844C728.166 54.1979 727.338 54.3047 726.379 54.3047C725.416 54.3047 724.58 54.1979 723.872 53.9844C723.168 53.776 722.627 53.474 722.247 53.0781C721.872 52.6875 721.684 52.2188 721.684 51.6719C721.684 51.125 721.872 50.6562 722.247 50.2656C722.627 49.875 723.168 49.5781 723.872 49.375C724.58 49.1719 725.416 49.0703 726.379 49.0703ZM726.379 50.2422C725.713 50.2422 725.137 50.2969 724.653 50.4062C724.174 50.5156 723.806 50.6797 723.551 50.8984C723.296 51.1172 723.171 51.375 723.176 51.6719C723.171 51.9792 723.296 52.2422 723.551 52.4609C723.806 52.6797 724.174 52.8464 724.653 52.9609C725.132 53.0755 725.708 53.1328 726.379 53.1328C727.051 53.1328 727.627 53.0755 728.106 52.9609C728.585 52.8464 728.95 52.6797 729.2 52.4609C729.455 52.2422 729.583 51.9792 729.583 51.6719C729.583 51.3698 729.455 51.112 729.2 50.8984C728.95 50.6797 728.585 50.5156 728.106 50.4062C727.627 50.2969 727.051 50.2422 726.379 50.2422ZM744.028 43.9297H740.2V42.7031H744.028V43.9297ZM744.075 46.9219H740.2V45.7188H744.075V46.9219ZM740.552 48.1484H734.044V41.5234H740.552V48.1484ZM735.52 46.9766H739.091V42.7266H735.52V46.9766ZM745.083 50.5469H743.598V40.3359H745.083V50.5469ZM745.395 54.0469H735.934V52.8203H745.395V54.0469ZM737.434 53.3984H735.934V49.6172H737.434V53.3984Z" fill="#A9ABB8"/>
<line x1="249" y1="27.65" x2="712" y2="27.65" stroke="url(#paint0_linear_1293_5638)" stroke-width="0.7"/>
<circle cx="248.5" cy="27.5" r="3.5" fill="#FF903F"/>
<circle cx="402.5" cy="27.5" r="2.5" fill="#CDCED6"/>
<circle cx="556.5" cy="27.5" r="2.5" fill="#CDCED6"/>
<circle cx="711.5" cy="27.5" r="2.5" fill="#CDCED6"/>
<defs>
<linearGradient id="paint0_linear_1293_5638" x1="249" y1="28.5" x2="712" y2="28.5" gradientUnits="userSpaceOnUse">
<stop stop-color="#FF903F"/>
<stop offset="0.173228" stop-color="#CDCED6"/>
</linearGradient>
</defs>
</svg>
