<svg width="960" height="82" viewBox="0 0 960 82" fill="none" xmlns="http://www.w3.org/2000/svg">
<rect width="960" height="82" rx="12.5948" fill="white"/>
<path d="M218.626 43.3646C218.626 45.0773 220.018 46.6796 222.062 47.3094L221.477 48.2707C219.891 47.7624 218.659 46.6906 218.046 45.337C217.449 46.8619 216.189 48.0608 214.548 48.6464L213.941 47.663C215.985 46.9779 217.41 45.2652 217.41 43.3646V43.0331H214.272V42.0387H217.41V40.326H218.648V42.0387H221.753V43.0331H218.626V43.3646ZM215.565 53.232C217.996 52.8122 220.272 51.2873 220.283 49.3646V49.0552H221.543V49.3646C221.532 51.3315 223.786 52.8232 226.272 53.232L225.764 54.2044C223.664 53.8287 221.725 52.7403 220.902 51.116C220.068 52.7238 218.129 53.8287 216.029 54.2044L215.565 53.232ZM221.333 45.3536V44.326H224.173V40.3812H225.399V50.0166H224.173V45.3536H221.333ZM239.067 40.3923V50.6685H237.841V45.3204H234.559V48.2928H228.25V41.3094H229.476V43.7845H233.344V41.3094H234.559V44.3039H237.841V40.3923H239.067ZM229.476 47.2873H233.344V44.7459H229.476V47.2873ZM230.084 53.9613V49.663H231.321V52.9448H239.388V53.9613H230.084ZM253.288 40.3812V54.2707H252.117V47.0773H250.559V53.5635H249.41V40.6796H250.559V46.0608H252.117V40.3812H253.288ZM240.945 50.0718C242.559 48.8122 242.89 46.2707 242.89 44.5691V43.0773H241.432V42.0829H244.846V43.0773H243.984V44.5691C243.973 45.7127 244.045 47.9227 245.072 49.4586C246.067 48.011 246.128 45.9227 246.139 44.5691V43.0773H245.277V42.0829H248.592V43.0773H247.222V44.5691C247.211 46.326 247.553 48.8232 249.177 50.0718L248.459 50.9337C247.553 50.221 247.017 49.0829 246.713 47.8564C246.459 49.105 245.973 50.3149 245.056 51.0773C244.144 50.2928 243.658 49.0497 243.404 47.8011C243.106 49.0387 242.575 50.2044 241.675 50.9337L240.945 50.0718ZM263.453 43.011C263.453 44.8343 264.812 46.4586 266.856 47.1326L266.27 48.0939C264.674 47.5635 263.464 46.4586 262.867 45.0663C262.27 46.6575 260.989 47.9006 259.32 48.5028L258.69 47.5193C260.779 46.8122 262.226 45.0221 262.237 43.0221V42.4254H259.066V41.4088H266.569V42.4254H263.453V43.011ZM260.547 51.674C260.547 50.0718 262.292 49.1436 265.154 49.1436C268.005 49.1436 269.729 50.0718 269.729 51.674C269.729 53.2983 268.005 54.2376 265.154 54.2376C262.292 54.2376 260.547 53.2983 260.547 51.674ZM261.773 51.674C261.762 52.6685 263.055 53.2541 265.154 53.2541C267.254 53.2541 268.535 52.6685 268.535 51.674C268.535 50.7017 267.254 50.1271 265.154 50.1271C263.055 50.1271 261.762 50.7017 261.773 51.674ZM268.381 48.768V40.3812H269.607V43.9282H271.696V44.9558H269.607V48.768H268.381ZM279.441 41.5967V42.8343H282.701V40.3923H283.927V50.5249H282.701V46.8232H279.441V48.0718H273.065V41.5967H279.441ZM274.281 47.0884H278.237V42.6022H274.281V47.0884ZM274.944 53.9613V49.6188H276.181V52.9448H284.248V53.9613H274.944ZM279.441 45.8066H282.701V43.8619H279.441V45.8066Z" fill="#A9ABB8"/>
<path d="M378.006 45.4751V46.663H368.503V45.4751H378.006ZM379.586 48.3591V49.5635H366.774V48.3591H379.586ZM373.873 49.0331V54.2928H372.415V49.0331H373.873ZM377.835 41.1215V42.3315H370.017V46.0442H368.503V41.1215H377.835ZM390.906 44.2044V45.4144H386.978V44.2044H390.906ZM391.973 40.337V50.6851H390.492V40.337H391.973ZM392.287 52.8232V54.0387H382.829V52.8232H392.287ZM384.326 49.6685V53.4586H382.829V49.6685H384.326ZM382.453 41.2597V43.6354H385.961V41.2597H387.431V48.3536H380.967V41.2597H382.453ZM382.453 47.1602H385.961V44.7845H382.453V47.1602ZM406.05 40.326V54.326H404.641V40.326H406.05ZM405.166 45.9558V47.1713H402.785V45.9558H405.166ZM403.293 40.5967V53.6354H401.912V40.5967H403.293ZM396.409 44.442C396.405 45.3296 396.348 46.1768 396.238 46.9834C396.127 47.7901 395.921 48.558 395.619 49.2873C395.317 50.0129 394.897 50.5967 394.359 51.0387L393.503 50.0221C393.996 49.628 394.381 49.1252 394.657 48.5138C394.934 47.9024 395.122 47.267 395.221 46.6077C395.324 45.9484 395.378 45.2578 395.381 44.5359V44.442V42.7182H396.409V44.442ZM396.68 44.442C396.676 45.1271 396.709 45.7974 396.779 46.453C396.849 47.1087 397.009 47.7735 397.26 48.4475C397.51 49.1215 397.884 49.6851 398.381 50.1381L397.652 51.1878C397.085 50.7164 396.656 50.0884 396.365 49.3039C396.074 48.5157 395.886 47.7201 395.801 46.9171C395.716 46.1105 395.676 45.2855 395.68 44.442V42.7182H396.68V44.442ZM399.624 44.442C399.621 45.3591 399.575 46.2173 399.486 47.0166C399.401 47.8158 399.214 48.5948 398.923 49.3536C398.635 50.1123 398.212 50.7238 397.652 51.1878L396.917 50.1381C397.411 49.7072 397.781 49.1731 398.028 48.5359C398.278 47.895 398.438 47.256 398.508 46.6188C398.582 45.9779 398.621 45.2762 398.624 44.5138V44.442V42.7182H399.624V44.442ZM399.917 44.442C399.913 45.1786 399.959 45.884 400.055 46.558C400.155 47.232 400.344 47.8785 400.624 48.4972C400.908 49.116 401.3 49.6243 401.801 50.0221L400.961 51.0387C400.416 50.6041 399.991 50.0258 399.685 49.3039C399.379 48.5783 399.169 47.8103 399.055 47C398.945 46.186 398.891 45.3333 398.895 44.442V42.7182H399.917V44.442ZM397.453 41.9889V43.1768H393.994V41.9889H397.453ZM401.182 41.9889V43.1768H397.856V41.9889H401.182ZM415.514 42.9227C415.514 43.7882 415.356 44.5985 415.039 45.3536C414.722 46.1087 414.266 46.7643 413.669 47.3204C413.072 47.8766 412.367 48.2965 411.553 48.5801L410.796 47.3978C411.511 47.1584 412.131 46.8122 412.658 46.3591C413.188 45.9024 413.595 45.3794 413.879 44.7901C414.163 44.1971 414.306 43.5746 414.31 42.9227V41.8453H415.514V42.9227ZM415.791 42.9116C415.791 43.5046 415.923 44.07 416.188 44.6077C416.457 45.1455 416.844 45.6206 417.349 46.0331C417.853 46.4457 418.455 46.7643 419.155 46.989L418.448 48.1492C417.645 47.8913 416.953 47.5046 416.371 46.989C415.789 46.4696 415.345 45.86 415.039 45.1602C414.733 44.4604 414.581 43.7109 414.581 42.9116V41.8453H415.791V42.9116ZM418.813 41.3315V42.5359H411.227V41.3315H418.813ZM421.907 40.326V48.7293H420.42V40.326H421.907ZM423.934 43.7901V45.0166H421.492V43.7901H423.934ZM417.382 49.0718C418.343 49.0718 419.172 49.175 419.868 49.3812C420.568 49.5838 421.104 49.8803 421.476 50.2707C421.848 50.6611 422.034 51.1289 422.034 51.674C422.034 52.2228 421.848 52.6943 421.476 53.0884C421.104 53.4825 420.568 53.7827 419.868 53.989C419.168 54.1989 418.339 54.3039 417.382 54.3039C416.417 54.3039 415.581 54.1989 414.873 53.989C414.166 53.7827 413.625 53.4825 413.249 53.0884C412.873 52.6943 412.686 52.2228 412.686 51.674C412.686 51.1289 412.873 50.6611 413.249 50.2707C413.625 49.8803 414.166 49.5838 414.873 49.3812C415.581 49.175 416.417 49.0718 417.382 49.0718ZM417.382 50.2486C416.711 50.2449 416.135 50.2983 415.652 50.4088C415.17 50.5193 414.802 50.6832 414.547 50.9006C414.293 51.1142 414.168 51.372 414.172 51.674C414.168 51.9834 414.293 52.2468 414.547 52.4641C414.802 52.6814 415.17 52.8471 415.652 52.9613C416.135 53.0755 416.711 53.1326 417.382 53.1326C418.052 53.1326 418.627 53.0755 419.105 52.9613C419.584 52.8471 419.949 52.6814 420.199 52.4641C420.453 52.2468 420.581 51.9834 420.581 51.674C420.581 51.372 420.453 51.1142 420.199 50.9006C419.949 50.6832 419.584 50.5193 419.105 50.4088C418.627 50.2983 418.052 50.2449 417.382 50.2486ZM435.039 42.7072V43.9282H431.199V42.7072H435.039ZM435.072 45.7127V46.9171H431.199V45.7127H435.072ZM431.547 41.5193V48.1492H425.044V41.5193H431.547ZM426.514 42.7182V46.9724H430.094V42.7182H426.514ZM436.083 40.337V50.5414H434.602V40.337H436.083ZM436.398 52.8232V54.0387H426.94V52.8232H436.398ZM428.437 49.6133V53.4088H426.94V49.6133H428.437Z" fill="#A9ABB8"/>
<path d="M526.464 43.7956C526.464 46.0994 527.105 48.4751 529.055 49.7238L527.967 51.2597C526.74 50.5193 525.961 49.2983 525.508 47.8453C525.005 49.453 524.149 50.8011 522.862 51.5856L521.646 50.105C523.751 48.8011 524.53 46.2983 524.53 43.8895V41.4365H526.464V43.7956ZM527.552 46.6409V45.0166H529.392V40.4309H531.259V53.7845H529.392V46.6409H527.552ZM532.326 54.442V40.2099H534.232V54.442H532.326ZM547.563 40.232V50.7182H545.574V45.5967H542.955V48.4751H536.182V41.1602H538.182V43.3425H540.983V41.1602H542.955V44H545.574V40.232H547.563ZM538.093 54.1934V49.674H540.11V52.5856H547.867V54.1934H538.093ZM538.182 46.9061H540.983V44.8564H538.182V46.9061ZM561.839 40.2099V54.442H559.955V47.3591H559.016V53.7845H557.176V50.0939L556.226 51.2541C555.469 50.6298 554.999 49.7348 554.701 48.7127C554.402 49.7845 553.911 50.7459 553.098 51.4144C552.281 50.7514 551.784 49.7845 551.485 48.7182C551.192 49.7348 550.728 50.6298 549.988 51.2541L548.872 49.9227C550.496 48.5691 550.623 46.1878 550.623 44.1878V43.3812H549.375V41.8011H552.933V43.3812H552.33V44.1878C552.319 45.5746 552.364 47.3646 553.098 48.8011C553.833 47.3757 553.85 45.6243 553.861 44.1878V43.3812H553.27V41.8011H556.618V43.3812H555.568V44.1878C555.557 46.1492 555.69 48.4309 557.176 49.8011V40.4309H559.016V45.7403H559.955V40.2099H561.839ZM574.526 41.1713V42.7624H571.686C571.697 44.4199 572.703 46.0221 574.968 46.6961L574.023 48.2541C572.443 47.779 571.355 46.8232 570.725 45.6077C570.095 47.0331 568.94 48.1713 567.239 48.7293L566.228 47.1547C568.581 46.4088 569.653 44.5691 569.675 42.7624H566.769V41.1713H574.526ZM568.189 51.674C568.184 49.9392 570.051 48.9282 573.056 48.9337C576.023 48.9282 577.858 49.9392 577.858 51.674C577.858 53.4088 576.023 54.442 573.056 54.4365C570.051 54.442 568.184 53.4088 568.189 51.674ZM570.184 51.674C570.178 52.4862 571.195 52.8895 573.056 52.884C574.907 52.8895 575.891 52.4862 575.891 51.674C575.891 50.8729 574.907 50.4807 573.056 50.4862C571.195 50.4807 570.178 50.8729 570.184 51.674ZM575.725 48.6575V40.2099H577.725V43.5193H579.637V45.1436H577.725V48.6575H575.725ZM587.459 41.3702V42.453H590.106V40.232H592.095V50.5746H590.106V47.0994H587.459V48.2983H580.703V41.3702H587.459ZM582.625 54.1934V49.6022H584.642V52.5856H592.399V54.1934H582.625ZM582.68 46.7459H585.504V42.9503H582.68V46.7459ZM587.459 45.5193H590.106V44.0608H587.459V45.5193Z" fill="#FF903F"/>
<path d="M677.917 41.779V49.9669H676.431V41.779H677.917ZM677.354 49.558C678.278 49.5617 679.122 49.5322 679.884 49.4696C680.65 49.407 681.44 49.291 682.254 49.1215L682.464 50.3812C681.617 50.5617 680.798 50.6851 680.006 50.7514C679.214 50.814 678.33 50.8435 677.354 50.8398H676.431V49.558H677.354ZM687.829 40.326V54.326H686.42V40.326H687.829ZM683.807 44.9448V46.1547H680.359V44.9448H683.807ZM684.829 40.6409V53.6464H683.42V40.6409H684.829ZM699.906 44.2044V45.4144H695.978V44.2044H699.906ZM700.973 40.337V50.6851H699.492V40.337H700.973ZM701.287 52.8232V54.0387H691.829V52.8232H701.287ZM693.326 49.6685V53.4586H691.829V49.6685H693.326ZM691.453 41.2597V43.6354H694.961V41.2597H696.431V48.3536H689.967V41.2597H691.453ZM691.453 47.1602H694.961V44.7845H691.453V47.1602ZM715.05 40.326V54.326H713.641V40.326H715.05ZM714.166 45.9558V47.1713H711.785V45.9558H714.166ZM712.293 40.5967V53.6354H710.912V40.5967H712.293ZM705.409 44.442C705.405 45.3296 705.348 46.1768 705.238 46.9834C705.127 47.7901 704.921 48.558 704.619 49.2873C704.317 50.0129 703.897 50.5967 703.359 51.0387L702.503 50.0221C702.996 49.628 703.381 49.1252 703.657 48.5138C703.934 47.9024 704.122 47.267 704.221 46.6077C704.324 45.9484 704.378 45.2578 704.381 44.5359V44.442V42.7182H705.409V44.442ZM705.68 44.442C705.676 45.1271 705.709 45.7974 705.779 46.453C705.849 47.1087 706.009 47.7735 706.26 48.4475C706.51 49.1215 706.884 49.6851 707.381 50.1381L706.652 51.1878C706.085 50.7164 705.656 50.0884 705.365 49.3039C705.074 48.5157 704.886 47.7201 704.801 46.9171C704.716 46.1105 704.676 45.2855 704.68 44.442V42.7182H705.68V44.442ZM708.624 44.442C708.621 45.3591 708.575 46.2173 708.486 47.0166C708.401 47.8158 708.214 48.5948 707.923 49.3536C707.635 50.1123 707.212 50.7238 706.652 51.1878L705.917 50.1381C706.411 49.7072 706.781 49.1731 707.028 48.5359C707.278 47.895 707.438 47.256 707.508 46.6188C707.582 45.9779 707.621 45.2762 707.624 44.5138V44.442V42.7182H708.624V44.442ZM708.917 44.442C708.913 45.1786 708.959 45.884 709.055 46.558C709.155 47.232 709.344 47.8785 709.624 48.4972C709.908 49.116 710.3 49.6243 710.801 50.0221L709.961 51.0387C709.416 50.6041 708.991 50.0258 708.685 49.3039C708.379 48.5783 708.169 47.8103 708.055 47C707.945 46.186 707.891 45.3333 707.895 44.442V42.7182H708.917V44.442ZM706.453 41.9889V43.1768H702.994V41.9889H706.453ZM710.182 41.9889V43.1768H706.856V41.9889H710.182ZM724.514 42.9227C724.514 43.7882 724.356 44.5985 724.039 45.3536C723.722 46.1087 723.266 46.7643 722.669 47.3204C722.072 47.8766 721.367 48.2965 720.553 48.5801L719.796 47.3978C720.511 47.1584 721.131 46.8122 721.658 46.3591C722.188 45.9024 722.595 45.3794 722.879 44.7901C723.163 44.1971 723.306 43.5746 723.31 42.9227V41.8453H724.514V42.9227ZM724.791 42.9116C724.791 43.5046 724.923 44.07 725.188 44.6077C725.457 45.1455 725.844 45.6206 726.349 46.0331C726.853 46.4457 727.455 46.7643 728.155 46.989L727.448 48.1492C726.645 47.8913 725.953 47.5046 725.371 46.989C724.789 46.4696 724.345 45.86 724.039 45.1602C723.733 44.4604 723.581 43.7109 723.581 42.9116V41.8453H724.791V42.9116ZM727.813 41.3315V42.5359H720.227V41.3315H727.813ZM730.907 40.326V48.7293H729.42V40.326H730.907ZM732.934 43.7901V45.0166H730.492V43.7901H732.934ZM726.382 49.0718C727.343 49.0718 728.172 49.175 728.868 49.3812C729.568 49.5838 730.104 49.8803 730.476 50.2707C730.848 50.6611 731.034 51.1289 731.034 51.674C731.034 52.2228 730.848 52.6943 730.476 53.0884C730.104 53.4825 729.568 53.7827 728.868 53.989C728.168 54.1989 727.339 54.3039 726.382 54.3039C725.417 54.3039 724.581 54.1989 723.873 53.989C723.166 53.7827 722.625 53.4825 722.249 53.0884C721.873 52.6943 721.686 52.2228 721.686 51.674C721.686 51.1289 721.873 50.6611 722.249 50.2707C722.625 49.8803 723.166 49.5838 723.873 49.3812C724.581 49.175 725.417 49.0718 726.382 49.0718ZM726.382 50.2486C725.711 50.2449 725.135 50.2983 724.652 50.4088C724.17 50.5193 723.802 50.6832 723.547 50.9006C723.293 51.1142 723.168 51.372 723.172 51.674C723.168 51.9834 723.293 52.2468 723.547 52.4641C723.802 52.6814 724.17 52.8471 724.652 52.9613C725.135 53.0755 725.711 53.1326 726.382 53.1326C727.052 53.1326 727.627 53.0755 728.105 52.9613C728.584 52.8471 728.949 52.6814 729.199 52.4641C729.453 52.2468 729.581 51.9834 729.581 51.674C729.581 51.372 729.453 51.1142 729.199 50.9006C728.949 50.6832 728.584 50.5193 728.105 50.4088C727.627 50.2983 727.052 50.2449 726.382 50.2486ZM744.039 42.7072V43.9282H740.199V42.7072H744.039ZM744.072 45.7127V46.9171H740.199V45.7127H744.072ZM740.547 41.5193V48.1492H734.044V41.5193H740.547ZM735.514 42.7182V46.9724H739.094V42.7182H735.514ZM745.083 40.337V50.5414H743.602V40.337H745.083ZM745.398 52.8232V54.0387H735.94V52.8232H745.398ZM737.437 49.6133V53.4088H735.94V49.6133H737.437Z" fill="#A9ABB8"/>
<line x1="249" y1="27.65" x2="712" y2="27.65" stroke="url(#paint0_linear_1293_5588)" stroke-width="0.7"/>
<circle cx="557.5" cy="27.5" r="3.5" fill="#FF903F"/>
<circle cx="402.5" cy="27.5" r="2.5" fill="#CDCED6"/>
<circle cx="249.5" cy="27.5" r="2.5" fill="#CDCED6"/>
<circle cx="711.5" cy="27.5" r="2.5" fill="#CDCED6"/>
<defs>
<linearGradient id="paint0_linear_1293_5588" x1="249" y1="28.5" x2="712" y2="28.5" gradientUnits="userSpaceOnUse">
<stop offset="0.492105" stop-color="#CDCED6"/>
<stop offset="0.667026" stop-color="#FF903F"/>
<stop offset="0.845" stop-color="#CDCED6"/>
</linearGradient>
</defs>
</svg>
