<svg width="960" height="82" viewBox="0 0 960 82" fill="none" xmlns="http://www.w3.org/2000/svg">
<rect width="960" height="82" rx="12.59" fill="white"/>
<path d="M218.626 43.3646C218.626 45.0773 220.018 46.6796 222.062 47.3094L221.477 48.2707C219.891 47.7624 218.659 46.6906 218.046 45.337C217.449 46.8619 216.189 48.0608 214.548 48.6464L213.941 47.663C215.985 46.9779 217.41 45.2652 217.41 43.3646V43.0331H214.272V42.0387H217.41V40.326H218.648V42.0387H221.753V43.0331H218.626V43.3646ZM215.565 53.232C217.996 52.8122 220.272 51.2873 220.283 49.3646V49.0552H221.543V49.3646C221.532 51.3315 223.786 52.8232 226.272 53.232L225.764 54.2044C223.664 53.8287 221.725 52.7403 220.902 51.116C220.068 52.7238 218.129 53.8287 216.029 54.2044L215.565 53.232ZM221.333 45.3536V44.326H224.173V40.3812H225.399V50.0166H224.173V45.3536H221.333ZM239.067 40.3923V50.6685H237.841V45.3204H234.559V48.2928H228.25V41.3094H229.476V43.7845H233.344V41.3094H234.559V44.3039H237.841V40.3923H239.067ZM229.476 47.2873H233.344V44.7459H229.476V47.2873ZM230.084 53.9613V49.663H231.321V52.9448H239.388V53.9613H230.084ZM253.288 40.3812V54.2707H252.117V47.0773H250.559V53.5635H249.41V40.6796H250.559V46.0608H252.117V40.3812H253.288ZM240.945 50.0718C242.559 48.8122 242.89 46.2707 242.89 44.5691V43.0773H241.432V42.0829H244.846V43.0773H243.984V44.5691C243.973 45.7127 244.045 47.9227 245.072 49.4586C246.067 48.011 246.128 45.9227 246.139 44.5691V43.0773H245.277V42.0829H248.592V43.0773H247.222V44.5691C247.211 46.326 247.553 48.8232 249.177 50.0718L248.459 50.9337C247.553 50.221 247.017 49.0829 246.713 47.8564C246.459 49.105 245.973 50.3149 245.056 51.0773C244.144 50.2928 243.658 49.0497 243.404 47.8011C243.106 49.0387 242.575 50.2044 241.675 50.9337L240.945 50.0718ZM263.453 43.011C263.453 44.8343 264.812 46.4586 266.856 47.1326L266.27 48.0939C264.674 47.5635 263.464 46.4586 262.867 45.0663C262.27 46.6575 260.989 47.9006 259.32 48.5028L258.69 47.5193C260.779 46.8122 262.226 45.0221 262.237 43.0221V42.4254H259.066V41.4088H266.569V42.4254H263.453V43.011ZM260.547 51.674C260.547 50.0718 262.292 49.1436 265.154 49.1436C268.005 49.1436 269.729 50.0718 269.729 51.674C269.729 53.2983 268.005 54.2376 265.154 54.2376C262.292 54.2376 260.547 53.2983 260.547 51.674ZM261.773 51.674C261.762 52.6685 263.055 53.2541 265.154 53.2541C267.254 53.2541 268.535 52.6685 268.535 51.674C268.535 50.7017 267.254 50.1271 265.154 50.1271C263.055 50.1271 261.762 50.7017 261.773 51.674ZM268.381 48.768V40.3812H269.607V43.9282H271.696V44.9558H269.607V48.768H268.381ZM279.441 41.5967V42.8343H282.701V40.3923H283.927V50.5249H282.701V46.8232H279.441V48.0718H273.065V41.5967H279.441ZM274.281 47.0884H278.237V42.6022H274.281V47.0884ZM274.944 53.9613V49.6188H276.181V52.9448H284.248V53.9613H274.944ZM279.441 45.8066H282.701V43.8619H279.441V45.8066Z" fill="#A9ABB8"/>
<path d="M677.917 41.779V49.9669H676.431V41.779H677.917ZM677.354 49.558C678.278 49.5617 679.122 49.5322 679.884 49.4696C680.65 49.407 681.44 49.291 682.254 49.1215L682.464 50.3812C681.617 50.5617 680.798 50.6851 680.006 50.7514C679.214 50.814 678.33 50.8435 677.354 50.8398H676.431V49.558H677.354ZM687.829 40.326V54.326H686.42V40.326H687.829ZM683.807 44.9448V46.1547H680.359V44.9448H683.807ZM684.829 40.6409V53.6464H683.42V40.6409H684.829ZM699.906 44.2044V45.4144H695.978V44.2044H699.906ZM700.973 40.337V50.6851H699.492V40.337H700.973ZM701.287 52.8232V54.0387H691.829V52.8232H701.287ZM693.326 49.6685V53.4586H691.829V49.6685H693.326ZM691.453 41.2597V43.6354H694.961V41.2597H696.431V48.3536H689.967V41.2597H691.453ZM691.453 47.1602H694.961V44.7845H691.453V47.1602ZM715.05 40.326V54.326H713.641V40.326H715.05ZM714.166 45.9558V47.1713H711.785V45.9558H714.166ZM712.293 40.5967V53.6354H710.912V40.5967H712.293ZM705.409 44.442C705.405 45.3296 705.348 46.1768 705.238 46.9834C705.127 47.7901 704.921 48.558 704.619 49.2873C704.317 50.0129 703.897 50.5967 703.359 51.0387L702.503 50.0221C702.996 49.628 703.381 49.1252 703.657 48.5138C703.934 47.9024 704.122 47.267 704.221 46.6077C704.324 45.9484 704.378 45.2578 704.381 44.5359V44.442V42.7182H705.409V44.442ZM705.68 44.442C705.676 45.1271 705.709 45.7974 705.779 46.453C705.849 47.1087 706.009 47.7735 706.26 48.4475C706.51 49.1215 706.884 49.6851 707.381 50.1381L706.652 51.1878C706.085 50.7164 705.656 50.0884 705.365 49.3039C705.074 48.5157 704.886 47.7201 704.801 46.9171C704.716 46.1105 704.676 45.2855 704.68 44.442V42.7182H705.68V44.442ZM708.624 44.442C708.621 45.3591 708.575 46.2173 708.486 47.0166C708.401 47.8158 708.214 48.5948 707.923 49.3536C707.635 50.1123 707.212 50.7238 706.652 51.1878L705.917 50.1381C706.411 49.7072 706.781 49.1731 707.028 48.5359C707.278 47.895 707.438 47.256 707.508 46.6188C707.582 45.9779 707.621 45.2762 707.624 44.5138V44.442V42.7182H708.624V44.442ZM708.917 44.442C708.913 45.1786 708.959 45.884 709.055 46.558C709.155 47.232 709.344 47.8785 709.624 48.4972C709.908 49.116 710.3 49.6243 710.801 50.0221L709.961 51.0387C709.416 50.6041 708.991 50.0258 708.685 49.3039C708.379 48.5783 708.169 47.8103 708.055 47C707.945 46.186 707.891 45.3333 707.895 44.442V42.7182H708.917V44.442ZM706.453 41.9889V43.1768H702.994V41.9889H706.453ZM710.182 41.9889V43.1768H706.856V41.9889H710.182ZM724.514 42.9227C724.514 43.7882 724.356 44.5985 724.039 45.3536C723.722 46.1087 723.266 46.7643 722.669 47.3204C722.072 47.8766 721.367 48.2965 720.553 48.5801L719.796 47.3978C720.511 47.1584 721.131 46.8122 721.658 46.3591C722.188 45.9024 722.595 45.3794 722.879 44.7901C723.163 44.1971 723.306 43.5746 723.31 42.9227V41.8453H724.514V42.9227ZM724.791 42.9116C724.791 43.5046 724.923 44.07 725.188 44.6077C725.457 45.1455 725.844 45.6206 726.349 46.0331C726.853 46.4457 727.455 46.7643 728.155 46.989L727.448 48.1492C726.645 47.8913 725.953 47.5046 725.371 46.989C724.789 46.4696 724.345 45.86 724.039 45.1602C723.733 44.4604 723.581 43.7109 723.581 42.9116V41.8453H724.791V42.9116ZM727.813 41.3315V42.5359H720.227V41.3315H727.813ZM730.907 40.326V48.7293H729.42V40.326H730.907ZM732.934 43.7901V45.0166H730.492V43.7901H732.934ZM726.382 49.0718C727.343 49.0718 728.172 49.175 728.868 49.3812C729.568 49.5838 730.104 49.8803 730.476 50.2707C730.848 50.6611 731.034 51.1289 731.034 51.674C731.034 52.2228 730.848 52.6943 730.476 53.0884C730.104 53.4825 729.568 53.7827 728.868 53.989C728.168 54.1989 727.339 54.3039 726.382 54.3039C725.417 54.3039 724.581 54.1989 723.873 53.989C723.166 53.7827 722.625 53.4825 722.249 53.0884C721.873 52.6943 721.686 52.2228 721.686 51.674C721.686 51.1289 721.873 50.6611 722.249 50.2707C722.625 49.8803 723.166 49.5838 723.873 49.3812C724.581 49.175 725.417 49.0718 726.382 49.0718ZM726.382 50.2486C725.711 50.2449 725.135 50.2983 724.652 50.4088C724.17 50.5193 723.802 50.6832 723.547 50.9006C723.293 51.1142 723.168 51.372 723.172 51.674C723.168 51.9834 723.293 52.2468 723.547 52.4641C723.802 52.6814 724.17 52.8471 724.652 52.9613C725.135 53.0755 725.711 53.1326 726.382 53.1326C727.052 53.1326 727.627 53.0755 728.105 52.9613C728.584 52.8471 728.949 52.6814 729.199 52.4641C729.453 52.2468 729.581 51.9834 729.581 51.674C729.581 51.372 729.453 51.1142 729.199 50.9006C728.949 50.6832 728.584 50.5193 728.105 50.4088C727.627 50.2983 727.052 50.2449 726.382 50.2486ZM744.039 42.7072V43.9282H740.199V42.7072H744.039ZM744.072 45.7127V46.9171H740.199V45.7127H744.072ZM740.547 41.5193V48.1492H734.044V41.5193H740.547ZM735.514 42.7182V46.9724H739.094V42.7182H735.514ZM745.083 40.337V50.5414H743.602V40.337H745.083ZM745.398 52.8232V54.0387H735.94V52.8232H745.398ZM737.437 49.6133V53.4088H735.94V49.6133H737.437Z" fill="#A9ABB8"/>
<path d="M529.978 45.2486V46.4807H527.348V45.2486H529.978ZM525.785 44.2155C525.781 45.221 525.652 46.1915 525.398 47.1271C525.148 48.0589 524.777 48.895 524.288 49.6354C523.798 50.3757 523.212 50.954 522.531 51.3702L521.603 50.2652C522.243 49.8821 522.79 49.3702 523.243 48.7293C523.7 48.0884 524.045 47.3794 524.277 46.6022C524.509 45.825 524.625 45.0295 524.625 44.2155V41.6022H525.785V44.2155ZM526.061 44.1492C526.061 44.9263 526.166 45.6832 526.376 46.4199C526.59 47.1529 526.906 47.8269 527.326 48.442C527.75 49.0571 528.266 49.5488 528.873 49.9171L528.039 51.0663C527.361 50.6575 526.789 50.0921 526.321 49.3702C525.853 48.6483 525.503 47.8398 525.271 46.9448C525.043 46.0497 524.93 45.1179 524.934 44.1492V41.6022H526.061V44.1492ZM533.835 40.326V54.326H532.409V40.326H533.835ZM530.928 40.5967V53.6354H529.531V40.5967H530.928ZM545.906 44.2044V45.4144H541.978V44.2044H545.906ZM546.973 40.337V50.6851H545.492V40.337H546.973ZM547.287 52.8232V54.0387H537.829V52.8232H547.287ZM539.326 49.6685V53.4586H537.829V49.6685H539.326ZM537.453 41.2597V43.6354H540.961V41.2597H542.431V48.3536H535.967V41.2597H537.453ZM537.453 47.1602H540.961V44.7845H537.453V47.1602ZM561.05 40.326V54.326H559.641V40.326H561.05ZM560.166 45.9558V47.1713H557.785V45.9558H560.166ZM558.293 40.5967V53.6354H556.912V40.5967H558.293ZM551.409 44.442C551.405 45.3296 551.348 46.1768 551.238 46.9834C551.127 47.7901 550.921 48.558 550.619 49.2873C550.317 50.0129 549.897 50.5967 549.359 51.0387L548.503 50.0221C548.996 49.628 549.381 49.1252 549.657 48.5138C549.934 47.9024 550.122 47.267 550.221 46.6077C550.324 45.9484 550.378 45.2578 550.381 44.5359V44.442V42.7182H551.409V44.442ZM551.68 44.442C551.676 45.1271 551.709 45.7974 551.779 46.453C551.849 47.1087 552.009 47.7735 552.26 48.4475C552.51 49.1215 552.884 49.6851 553.381 50.1381L552.652 51.1878C552.085 50.7164 551.656 50.0884 551.365 49.3039C551.074 48.5157 550.886 47.7201 550.801 46.9171C550.716 46.1105 550.676 45.2855 550.68 44.442V42.7182H551.68V44.442ZM554.624 44.442C554.621 45.3591 554.575 46.2173 554.486 47.0166C554.401 47.8158 554.214 48.5948 553.923 49.3536C553.635 50.1123 553.212 50.7238 552.652 51.1878L551.917 50.1381C552.411 49.7072 552.781 49.1731 553.028 48.5359C553.278 47.895 553.438 47.256 553.508 46.6188C553.582 45.9779 553.621 45.2762 553.624 44.5138V44.442V42.7182H554.624V44.442ZM554.917 44.442C554.913 45.1786 554.959 45.884 555.055 46.558C555.155 47.232 555.344 47.8785 555.624 48.4972C555.908 49.116 556.3 49.6243 556.801 50.0221L555.961 51.0387C555.416 50.6041 554.991 50.0258 554.685 49.3039C554.379 48.5783 554.169 47.8103 554.055 47C553.945 46.186 553.891 45.3333 553.895 44.442V42.7182H554.917V44.442ZM552.453 41.9889V43.1768H548.994V41.9889H552.453ZM556.182 41.9889V43.1768H552.856V41.9889H556.182ZM570.514 42.9227C570.514 43.7882 570.356 44.5985 570.039 45.3536C569.722 46.1087 569.266 46.7643 568.669 47.3204C568.072 47.8766 567.367 48.2965 566.553 48.5801L565.796 47.3978C566.511 47.1584 567.131 46.8122 567.658 46.3591C568.188 45.9024 568.595 45.3794 568.879 44.7901C569.163 44.1971 569.306 43.5746 569.31 42.9227V41.8453H570.514V42.9227ZM570.791 42.9116C570.791 43.5046 570.923 44.07 571.188 44.6077C571.457 45.1455 571.844 45.6206 572.349 46.0331C572.853 46.4457 573.455 46.7643 574.155 46.989L573.448 48.1492C572.645 47.8913 571.953 47.5046 571.371 46.989C570.789 46.4696 570.345 45.86 570.039 45.1602C569.733 44.4604 569.581 43.7109 569.581 42.9116V41.8453H570.791V42.9116ZM573.813 41.3315V42.5359H566.227V41.3315H573.813ZM576.907 40.326V48.7293H575.42V40.326H576.907ZM578.934 43.7901V45.0166H576.492V43.7901H578.934ZM572.382 49.0718C573.343 49.0718 574.172 49.175 574.868 49.3812C575.568 49.5838 576.104 49.8803 576.476 50.2707C576.848 50.6611 577.034 51.1289 577.034 51.674C577.034 52.2228 576.848 52.6943 576.476 53.0884C576.104 53.4825 575.568 53.7827 574.868 53.989C574.168 54.1989 573.339 54.3039 572.382 54.3039C571.417 54.3039 570.581 54.1989 569.873 53.989C569.166 53.7827 568.625 53.4825 568.249 53.0884C567.873 52.6943 567.686 52.2228 567.686 51.674C567.686 51.1289 567.873 50.6611 568.249 50.2707C568.625 49.8803 569.166 49.5838 569.873 49.3812C570.581 49.175 571.417 49.0718 572.382 49.0718ZM572.382 50.2486C571.711 50.2449 571.135 50.2983 570.652 50.4088C570.17 50.5193 569.802 50.6832 569.547 50.9006C569.293 51.1142 569.168 51.372 569.172 51.674C569.168 51.9834 569.293 52.2468 569.547 52.4641C569.802 52.6814 570.17 52.8471 570.652 52.9613C571.135 53.0755 571.711 53.1326 572.382 53.1326C573.052 53.1326 573.627 53.0755 574.105 52.9613C574.584 52.8471 574.949 52.6814 575.199 52.4641C575.453 52.2468 575.581 51.9834 575.581 51.674C575.581 51.372 575.453 51.1142 575.199 50.9006C574.949 50.6832 574.584 50.5193 574.105 50.4088C573.627 50.2983 573.052 50.2449 572.382 50.2486ZM590.039 42.7072V43.9282H586.199V42.7072H590.039ZM590.072 45.7127V46.9171H586.199V45.7127H590.072ZM586.547 41.5193V48.1492H580.044V41.5193H586.547ZM581.514 42.7182V46.9724H585.094V42.7182H581.514ZM591.083 40.337V50.5414H589.602V40.337H591.083ZM591.398 52.8232V54.0387H581.94V52.8232H591.398ZM583.437 49.6133V53.4088H581.94V49.6133H583.437Z" fill="#A9ABB8"/>
<path d="M378.375 46.2818V47.8453H368.552V41.9669H378.237V43.558H370.596V46.2818H378.375ZM366.895 50.8674V49.2762H379.9V50.8674H374.342V55.4199H372.37V50.8674H366.895ZM392.563 41.232V51.7182H390.574V46.5967H387.955V49.4751H381.182V42.1602H383.182V44.3425H385.983V42.1602H387.955V45H390.574V41.232H392.563ZM383.093 55.1934V50.674H385.11V53.5856H392.867V55.1934H383.093ZM383.182 47.9061H385.983V45.8564H383.182V47.9061ZM406.839 41.2099V55.442H404.955V48.3591H404.016V54.7845H402.176V51.0939L401.226 52.2541C400.469 51.6298 399.999 50.7348 399.701 49.7127C399.402 50.7845 398.911 51.7459 398.098 52.4144C397.281 51.7514 396.784 50.7845 396.485 49.7182C396.192 50.7348 395.728 51.6298 394.988 52.2541L393.872 50.9227C395.496 49.5691 395.623 47.1878 395.623 45.1878V44.3812H394.375V42.8011H397.933V44.3812H397.33V45.1878C397.319 46.5746 397.364 48.3646 398.098 49.8011C398.833 48.3757 398.85 46.6243 398.861 45.1878V44.3812H398.27V42.8011H401.618V44.3812H400.568V45.1878C400.557 47.1492 400.69 49.4309 402.176 50.8011V41.4309H404.016V46.7403H404.955V41.2099H406.839ZM419.526 42.1713V43.7624H416.686C416.697 45.4199 417.703 47.0221 419.968 47.6961L419.023 49.2541C417.443 48.779 416.355 47.8232 415.725 46.6077C415.095 48.0331 413.94 49.1713 412.239 49.7293L411.228 48.1547C413.581 47.4088 414.653 45.5691 414.675 43.7624H411.769V42.1713H419.526ZM413.189 52.674C413.184 50.9392 415.051 49.9282 418.056 49.9337C421.023 49.9282 422.858 50.9392 422.858 52.674C422.858 54.4088 421.023 55.442 418.056 55.4365C415.051 55.442 413.184 54.4088 413.189 52.674ZM415.184 52.674C415.178 53.4862 416.195 53.8895 418.056 53.884C419.907 53.8895 420.891 53.4862 420.891 52.674C420.891 51.8729 419.907 51.4807 418.056 51.4862C416.195 51.4807 415.178 51.8729 415.184 52.674ZM420.725 49.6575V41.2099H422.725V44.5193H424.637V46.1436H422.725V49.6575H420.725ZM432.459 42.3702V43.453H435.106V41.232H437.095V51.5746H435.106V48.0994H432.459V49.2983H425.703V42.3702H432.459ZM427.625 55.1934V50.6022H429.642V53.5856H437.399V55.1934H427.625ZM427.68 47.7459H430.504V43.9503H427.68V47.7459ZM432.459 46.5193H435.106V45.0608H432.459V46.5193Z" fill="#FF903F"/>
<line x1="249" y1="27.65" x2="712" y2="27.65" stroke="url(#paint0_linear_3207_9325)" stroke-width="0.7"/>
<circle cx="402.5" cy="27.5" r="3.5" fill="#FF903F"/>
<circle cx="711.5" cy="27.5" r="2.5" fill="#CDCED6"/>
<circle cx="556.5" cy="27.5" r="2.5" fill="#CDCED6"/>
<circle cx="249.5" cy="27.5" r="2.5" fill="#CDCED6"/>
<defs>
<linearGradient id="paint0_linear_3207_9325" x1="249" y1="28.5" x2="712" y2="28.5" gradientUnits="userSpaceOnUse">
<stop stop-color="#CDCED6"/>
<stop offset="0.33" stop-color="#FF903F"/>
<stop offset="0.665" stop-color="#CDCED6"/>
</linearGradient>
</defs>
</svg>
