<svg width="960" height="82" viewBox="0 0 960 82" fill="none" xmlns="http://www.w3.org/2000/svg">
<rect width="960" height="82" rx="12.5948" fill="white"/>
<path d="M218.126 43.3646C218.126 45.0773 219.518 46.6796 221.562 47.3094L220.977 48.2707C219.391 47.7624 218.159 46.6906 217.546 45.337C216.949 46.8619 215.689 48.0608 214.048 48.6464L213.441 47.663C215.485 46.9779 216.91 45.2652 216.91 43.3646V43.0331H213.772V42.0387H216.91V40.326H218.148V42.0387H221.253V43.0331H218.126V43.3646ZM215.065 53.232C217.496 52.8122 219.772 51.2873 219.783 49.3646V49.0552H221.043V49.3646C221.032 51.3315 223.286 52.8232 225.772 53.232L225.264 54.2044C223.164 53.8287 221.225 52.7403 220.402 51.116C219.568 52.7238 217.629 53.8287 215.529 54.2044L215.065 53.232ZM220.833 45.3536V44.326H223.673V40.3812H224.899V50.0166H223.673V45.3536H220.833ZM238.567 40.3923V50.6685H237.341V45.3204H234.059V48.2928H227.75V41.3094H228.976V43.7845H232.844V41.3094H234.059V44.3039H237.341V40.3923H238.567ZM228.976 47.2873H232.844V44.7459H228.976V47.2873ZM229.584 53.9613V49.663H230.821V52.9448H238.888V53.9613H229.584ZM252.788 40.3812V54.2707H251.617V47.0773H250.059V53.5635H248.91V40.6796H250.059V46.0608H251.617V40.3812H252.788ZM240.445 50.0718C242.059 48.8122 242.39 46.2707 242.39 44.5691V43.0773H240.932V42.0829H244.346V43.0773H243.484V44.5691C243.473 45.7127 243.545 47.9227 244.572 49.4586C245.567 48.011 245.628 45.9227 245.639 44.5691V43.0773H244.777V42.0829H248.092V43.0773H246.722V44.5691C246.711 46.326 247.053 48.8232 248.677 50.0718L247.959 50.9337C247.053 50.221 246.517 49.0829 246.213 47.8564C245.959 49.105 245.473 50.3149 244.556 51.0773C243.644 50.2928 243.158 49.0497 242.904 47.8011C242.606 49.0387 242.075 50.2044 241.175 50.9337L240.445 50.0718ZM262.953 43.011C262.953 44.8343 264.312 46.4586 266.356 47.1326L265.77 48.0939C264.174 47.5635 262.964 46.4586 262.367 45.0663C261.77 46.6575 260.489 47.9006 258.82 48.5028L258.19 47.5193C260.279 46.8122 261.726 45.0221 261.737 43.0221V42.4254H258.566V41.4088H266.069V42.4254H262.953V43.011ZM260.047 51.674C260.047 50.0718 261.792 49.1436 264.654 49.1436C267.505 49.1436 269.229 50.0718 269.229 51.674C269.229 53.2983 267.505 54.2376 264.654 54.2376C261.792 54.2376 260.047 53.2983 260.047 51.674ZM261.273 51.674C261.262 52.6685 262.555 53.2541 264.654 53.2541C266.754 53.2541 268.035 52.6685 268.035 51.674C268.035 50.7017 266.754 50.1271 264.654 50.1271C262.555 50.1271 261.262 50.7017 261.273 51.674ZM267.881 48.768V40.3812H269.107V43.9282H271.196V44.9558H269.107V48.768H267.881ZM278.941 41.5967V42.8343H282.201V40.3923H283.427V50.5249H282.201V46.8232H278.941V48.0718H272.565V41.5967H278.941ZM273.781 47.0884H277.737V42.6022H273.781V47.0884ZM274.444 53.9613V49.6188H275.681V52.9448H283.748V53.9613H274.444ZM278.941 45.8066H282.201V43.8619H278.941V45.8066Z" fill="#A9ABB8"/>
<path d="M377.506 45.4751V46.663H368.003V45.4751H377.506ZM379.086 48.3591V49.5635H366.274V48.3591H379.086ZM373.373 49.0331V54.2928H371.915V49.0331H373.373ZM377.335 41.1215V42.3315H369.517V46.0442H368.003V41.1215H377.335ZM390.406 44.2044V45.4144H386.478V44.2044H390.406ZM391.473 40.337V50.6851H389.992V40.337H391.473ZM391.787 52.8232V54.0387H382.329V52.8232H391.787ZM383.826 49.6685V53.4586H382.329V49.6685H383.826ZM381.953 41.2597V43.6354H385.461V41.2597H386.931V48.3536H380.467V41.2597H381.953ZM381.953 47.1602H385.461V44.7845H381.953V47.1602ZM405.55 40.326V54.326H404.141V40.326H405.55ZM404.666 45.9558V47.1713H402.285V45.9558H404.666ZM402.793 40.5967V53.6354H401.412V40.5967H402.793ZM395.909 44.442C395.905 45.3296 395.848 46.1768 395.738 46.9834C395.627 47.7901 395.421 48.558 395.119 49.2873C394.817 50.0129 394.397 50.5967 393.859 51.0387L393.003 50.0221C393.496 49.628 393.881 49.1252 394.157 48.5138C394.434 47.9024 394.622 47.267 394.721 46.6077C394.824 45.9484 394.878 45.2578 394.881 44.5359V44.442V42.7182H395.909V44.442ZM396.18 44.442C396.176 45.1271 396.209 45.7974 396.279 46.453C396.349 47.1087 396.509 47.7735 396.76 48.4475C397.01 49.1215 397.384 49.6851 397.881 50.1381L397.152 51.1878C396.585 50.7164 396.156 50.0884 395.865 49.3039C395.574 48.5157 395.386 47.7201 395.301 46.9171C395.216 46.1105 395.176 45.2855 395.18 44.442V42.7182H396.18V44.442ZM399.124 44.442C399.121 45.3591 399.075 46.2173 398.986 47.0166C398.901 47.8158 398.714 48.5948 398.423 49.3536C398.135 50.1123 397.712 50.7238 397.152 51.1878L396.417 50.1381C396.911 49.7072 397.281 49.1731 397.528 48.5359C397.778 47.895 397.938 47.256 398.008 46.6188C398.082 45.9779 398.121 45.2762 398.124 44.5138V44.442V42.7182H399.124V44.442ZM399.417 44.442C399.413 45.1786 399.459 45.884 399.555 46.558C399.655 47.232 399.844 47.8785 400.124 48.4972C400.408 49.116 400.8 49.6243 401.301 50.0221L400.461 51.0387C399.916 50.6041 399.491 50.0258 399.185 49.3039C398.879 48.5783 398.669 47.8103 398.555 47C398.445 46.186 398.391 45.3333 398.395 44.442V42.7182H399.417V44.442ZM396.953 41.9889V43.1768H393.494V41.9889H396.953ZM400.682 41.9889V43.1768H397.356V41.9889H400.682ZM415.014 42.9227C415.014 43.7882 414.856 44.5985 414.539 45.3536C414.222 46.1087 413.766 46.7643 413.169 47.3204C412.572 47.8766 411.867 48.2965 411.053 48.5801L410.296 47.3978C411.011 47.1584 411.631 46.8122 412.158 46.3591C412.688 45.9024 413.095 45.3794 413.379 44.7901C413.663 44.1971 413.806 43.5746 413.81 42.9227V41.8453H415.014V42.9227ZM415.291 42.9116C415.291 43.5046 415.423 44.07 415.688 44.6077C415.957 45.1455 416.344 45.6206 416.849 46.0331C417.353 46.4457 417.955 46.7643 418.655 46.989L417.948 48.1492C417.145 47.8913 416.453 47.5046 415.871 46.989C415.289 46.4696 414.845 45.86 414.539 45.1602C414.233 44.4604 414.081 43.7109 414.081 42.9116V41.8453H415.291V42.9116ZM418.313 41.3315V42.5359H410.727V41.3315H418.313ZM421.407 40.326V48.7293H419.92V40.326H421.407ZM423.434 43.7901V45.0166H420.992V43.7901H423.434ZM416.882 49.0718C417.843 49.0718 418.672 49.175 419.368 49.3812C420.068 49.5838 420.604 49.8803 420.976 50.2707C421.348 50.6611 421.534 51.1289 421.534 51.674C421.534 52.2228 421.348 52.6943 420.976 53.0884C420.604 53.4825 420.068 53.7827 419.368 53.989C418.668 54.1989 417.839 54.3039 416.882 54.3039C415.917 54.3039 415.081 54.1989 414.373 53.989C413.666 53.7827 413.125 53.4825 412.749 53.0884C412.373 52.6943 412.186 52.2228 412.186 51.674C412.186 51.1289 412.373 50.6611 412.749 50.2707C413.125 49.8803 413.666 49.5838 414.373 49.3812C415.081 49.175 415.917 49.0718 416.882 49.0718ZM416.882 50.2486C416.211 50.2449 415.635 50.2983 415.152 50.4088C414.67 50.5193 414.302 50.6832 414.047 50.9006C413.793 51.1142 413.668 51.372 413.672 51.674C413.668 51.9834 413.793 52.2468 414.047 52.4641C414.302 52.6814 414.67 52.8471 415.152 52.9613C415.635 53.0755 416.211 53.1326 416.882 53.1326C417.552 53.1326 418.127 53.0755 418.605 52.9613C419.084 52.8471 419.449 52.6814 419.699 52.4641C419.953 52.2468 420.081 51.9834 420.081 51.674C420.081 51.372 419.953 51.1142 419.699 50.9006C419.449 50.6832 419.084 50.5193 418.605 50.4088C418.127 50.2983 417.552 50.2449 416.882 50.2486ZM434.539 42.7072V43.9282H430.699V42.7072H434.539ZM434.572 45.7127V46.9171H430.699V45.7127H434.572ZM431.047 41.5193V48.1492H424.544V41.5193H431.047ZM426.014 42.7182V46.9724H429.594V42.7182H426.014ZM435.583 40.337V50.5414H434.102V40.337H435.583ZM435.898 52.8232V54.0387H426.44V52.8232H435.898ZM427.937 49.6133V53.4088H426.44V49.6133H427.937Z" fill="#A9ABB8"/>
<path d="M529.478 45.2486V46.4807H526.848V45.2486H529.478ZM525.285 44.2155C525.281 45.221 525.152 46.1915 524.898 47.1271C524.648 48.0589 524.277 48.895 523.788 49.6354C523.298 50.3757 522.712 50.954 522.031 51.3702L521.103 50.2652C521.743 49.8821 522.29 49.3702 522.743 48.7293C523.2 48.0884 523.545 47.3794 523.777 46.6022C524.009 45.825 524.125 45.0295 524.125 44.2155V41.6022H525.285V44.2155ZM525.561 44.1492C525.561 44.9263 525.666 45.6832 525.876 46.4199C526.09 47.1529 526.406 47.8269 526.826 48.442C527.25 49.0571 527.766 49.5488 528.373 49.9171L527.539 51.0663C526.861 50.6575 526.289 50.0921 525.821 49.3702C525.353 48.6483 525.003 47.8398 524.771 46.9448C524.543 46.0497 524.43 45.1179 524.434 44.1492V41.6022H525.561V44.1492ZM533.335 40.326V54.326H531.909V40.326H533.335ZM530.428 40.5967V53.6354H529.031V40.5967H530.428ZM545.406 44.2044V45.4144H541.478V44.2044H545.406ZM546.473 40.337V50.6851H544.992V40.337H546.473ZM546.787 52.8232V54.0387H537.329V52.8232H546.787ZM538.826 49.6685V53.4586H537.329V49.6685H538.826ZM536.953 41.2597V43.6354H540.461V41.2597H541.931V48.3536H535.467V41.2597H536.953ZM536.953 47.1602H540.461V44.7845H536.953V47.1602ZM560.55 40.326V54.326H559.141V40.326H560.55ZM559.666 45.9558V47.1713H557.285V45.9558H559.666ZM557.793 40.5967V53.6354H556.412V40.5967H557.793ZM550.909 44.442C550.905 45.3296 550.848 46.1768 550.738 46.9834C550.627 47.7901 550.421 48.558 550.119 49.2873C549.817 50.0129 549.397 50.5967 548.859 51.0387L548.003 50.0221C548.496 49.628 548.881 49.1252 549.157 48.5138C549.434 47.9024 549.622 47.267 549.721 46.6077C549.824 45.9484 549.878 45.2578 549.881 44.5359V44.442V42.7182H550.909V44.442ZM551.18 44.442C551.176 45.1271 551.209 45.7974 551.279 46.453C551.349 47.1087 551.509 47.7735 551.76 48.4475C552.01 49.1215 552.384 49.6851 552.881 50.1381L552.152 51.1878C551.585 50.7164 551.156 50.0884 550.865 49.3039C550.574 48.5157 550.386 47.7201 550.301 46.9171C550.216 46.1105 550.176 45.2855 550.18 44.442V42.7182H551.18V44.442ZM554.124 44.442C554.121 45.3591 554.075 46.2173 553.986 47.0166C553.901 47.8158 553.714 48.5948 553.423 49.3536C553.135 50.1123 552.712 50.7238 552.152 51.1878L551.417 50.1381C551.911 49.7072 552.281 49.1731 552.528 48.5359C552.778 47.895 552.938 47.256 553.008 46.6188C553.082 45.9779 553.121 45.2762 553.124 44.5138V44.442V42.7182H554.124V44.442ZM554.417 44.442C554.413 45.1786 554.459 45.884 554.555 46.558C554.655 47.232 554.844 47.8785 555.124 48.4972C555.408 49.116 555.8 49.6243 556.301 50.0221L555.461 51.0387C554.916 50.6041 554.491 50.0258 554.185 49.3039C553.879 48.5783 553.669 47.8103 553.555 47C553.445 46.186 553.391 45.3333 553.395 44.442V42.7182H554.417V44.442ZM551.953 41.9889V43.1768H548.494V41.9889H551.953ZM555.682 41.9889V43.1768H552.356V41.9889H555.682ZM570.014 42.9227C570.014 43.7882 569.856 44.5985 569.539 45.3536C569.222 46.1087 568.766 46.7643 568.169 47.3204C567.572 47.8766 566.867 48.2965 566.053 48.5801L565.296 47.3978C566.011 47.1584 566.631 46.8122 567.158 46.3591C567.688 45.9024 568.095 45.3794 568.379 44.7901C568.663 44.1971 568.806 43.5746 568.81 42.9227V41.8453H570.014V42.9227ZM570.291 42.9116C570.291 43.5046 570.423 44.07 570.688 44.6077C570.957 45.1455 571.344 45.6206 571.849 46.0331C572.353 46.4457 572.955 46.7643 573.655 46.989L572.948 48.1492C572.145 47.8913 571.453 47.5046 570.871 46.989C570.289 46.4696 569.845 45.86 569.539 45.1602C569.233 44.4604 569.081 43.7109 569.081 42.9116V41.8453H570.291V42.9116ZM573.313 41.3315V42.5359H565.727V41.3315H573.313ZM576.407 40.326V48.7293H574.92V40.326H576.407ZM578.434 43.7901V45.0166H575.992V43.7901H578.434ZM571.882 49.0718C572.843 49.0718 573.672 49.175 574.368 49.3812C575.068 49.5838 575.604 49.8803 575.976 50.2707C576.348 50.6611 576.534 51.1289 576.534 51.674C576.534 52.2228 576.348 52.6943 575.976 53.0884C575.604 53.4825 575.068 53.7827 574.368 53.989C573.668 54.1989 572.839 54.3039 571.882 54.3039C570.917 54.3039 570.081 54.1989 569.373 53.989C568.666 53.7827 568.125 53.4825 567.749 53.0884C567.373 52.6943 567.186 52.2228 567.186 51.674C567.186 51.1289 567.373 50.6611 567.749 50.2707C568.125 49.8803 568.666 49.5838 569.373 49.3812C570.081 49.175 570.917 49.0718 571.882 49.0718ZM571.882 50.2486C571.211 50.2449 570.635 50.2983 570.152 50.4088C569.67 50.5193 569.302 50.6832 569.047 50.9006C568.793 51.1142 568.668 51.372 568.672 51.674C568.668 51.9834 568.793 52.2468 569.047 52.4641C569.302 52.6814 569.67 52.8471 570.152 52.9613C570.635 53.0755 571.211 53.1326 571.882 53.1326C572.552 53.1326 573.127 53.0755 573.605 52.9613C574.084 52.8471 574.449 52.6814 574.699 52.4641C574.953 52.2468 575.081 51.9834 575.081 51.674C575.081 51.372 574.953 51.1142 574.699 50.9006C574.449 50.6832 574.084 50.5193 573.605 50.4088C573.127 50.2983 572.552 50.2449 571.882 50.2486ZM589.539 42.7072V43.9282H585.699V42.7072H589.539ZM589.572 45.7127V46.9171H585.699V45.7127H589.572ZM586.047 41.5193V48.1492H579.544V41.5193H586.047ZM581.014 42.7182V46.9724H584.594V42.7182H581.014ZM590.583 40.337V50.5414H589.102V40.337H590.583ZM590.898 52.8232V54.0387H581.44V52.8232H590.898ZM582.937 49.6133V53.4088H581.44V49.6133H582.937Z" fill="#A9ABB8"/>
<path d="M677.953 41.5691V49.326C679.262 49.2983 680.456 49.2044 681.798 48.9171L682.069 50.5856C680.317 50.9724 678.782 51.0387 676.947 51.0331H675.953V41.5691H677.953ZM679.964 46.3204V44.7238H682.804V40.4807H684.688V53.8066H682.804V46.3204H679.964ZM685.853 54.442V40.2099H687.732V54.442H685.853ZM701.063 40.232V50.7182H699.074V45.5967H696.455V48.4751H689.682V41.1602H691.682V43.3425H694.483V41.1602H696.455V44H699.074V40.232H701.063ZM691.593 54.1934V49.674H693.61V52.5856H701.367V54.1934H691.593ZM691.682 46.9061H694.483V44.8564H691.682V46.9061ZM715.339 40.2099V54.442H713.455V47.3591H712.516V53.7845H710.676V50.0939L709.726 51.2541C708.969 50.6298 708.499 49.7348 708.201 48.7127C707.902 49.7845 707.411 50.7459 706.598 51.4144C705.781 50.7514 705.284 49.7845 704.985 48.7182C704.692 49.7348 704.228 50.6298 703.488 51.2541L702.372 49.9227C703.996 48.5691 704.123 46.1878 704.123 44.1878V43.3812H702.875V41.8011H706.433V43.3812H705.83V44.1878C705.819 45.5746 705.864 47.3646 706.598 48.8011C707.333 47.3757 707.35 45.6243 707.361 44.1878V43.3812H706.77V41.8011H710.118V43.3812H709.068V44.1878C709.057 46.1492 709.19 48.4309 710.676 49.8011V40.4309H712.516V45.7403H713.455V40.2099H715.339ZM728.026 41.1713V42.7624H725.186C725.197 44.4199 726.203 46.0221 728.468 46.6961L727.523 48.2541C725.943 47.779 724.855 46.8232 724.225 45.6077C723.595 47.0331 722.44 48.1713 720.739 48.7293L719.728 47.1547C722.081 46.4088 723.153 44.5691 723.175 42.7624H720.269V41.1713H728.026ZM721.689 51.674C721.684 49.9392 723.551 48.9282 726.556 48.9337C729.523 48.9282 731.358 49.9392 731.358 51.674C731.358 53.4088 729.523 54.442 726.556 54.4365C723.551 54.442 721.684 53.4088 721.689 51.674ZM723.684 51.674C723.678 52.4862 724.695 52.8895 726.556 52.884C728.407 52.8895 729.391 52.4862 729.391 51.674C729.391 50.8729 728.407 50.4807 726.556 50.4862C724.695 50.4807 723.678 50.8729 723.684 51.674ZM729.225 48.6575V40.2099H731.225V43.5193H733.137V45.1436H731.225V48.6575H729.225ZM740.959 41.3702V42.453H743.606V40.232H745.595V50.5746H743.606V47.0994H740.959V48.2983H734.203V41.3702H740.959ZM736.125 54.1934V49.6022H738.142V52.5856H745.899V54.1934H736.125ZM736.18 46.7459H739.004V42.9503H736.18V46.7459ZM740.959 45.5193H743.606V44.0608H740.959V45.5193Z" fill="#FF903F"/>
<line x1="248.5" y1="27.65" x2="711.5" y2="27.65" stroke="url(#paint0_linear_1293_5613)" stroke-width="0.7"/>
<circle cx="711" cy="27.5" r="3.5" fill="#FF903F"/>
<circle cx="402" cy="27.5" r="2.5" fill="#CDCED6"/>
<circle cx="556" cy="27.5" r="2.5" fill="#CDCED6"/>
<circle cx="249" cy="27.5" r="2.5" fill="#CDCED6"/>
<defs>
<linearGradient id="paint0_linear_1293_5613" x1="248.5" y1="28.5" x2="711.5" y2="28.5" gradientUnits="userSpaceOnUse">
<stop offset="0.826772" stop-color="#CDCED6"/>
<stop offset="1" stop-color="#FF903F"/>
</linearGradient>
</defs>
</svg>
