<svg width="960" height="82" viewBox="0 0 960 82" fill="none" xmlns="http://www.w3.org/2000/svg">
<rect width="960" height="82" rx="12.59" fill="white"/>
<path d="M224.836 41.8619V43.2541C224.836 45 224.836 46.9779 224.316 49.9945L223.068 49.8729C223.631 47.0331 223.631 44.9558 223.631 43.2541V42.8785H215.267V41.8619H224.836ZM213.885 52.2265V51.1989H226.548V52.2265H213.885ZM239.023 40.3923V48.6243H237.797V40.3923H239.023ZM228.25 42.2265V41.232H234.603V45H229.476V46.9227C231.962 46.9337 233.819 46.8508 236.062 46.4917L236.217 47.5083C233.874 47.8729 231.973 47.9503 229.41 47.9503H228.283V44.0276H233.388V42.2265H228.25ZM229.984 54.0829V49.3757H239.023V54.0829H229.984ZM231.2 53.0773H237.819V50.3702H231.2V53.0773ZM245.288 44.6575C245.288 46.8895 246.426 49.1768 248.316 50.1934L247.608 51.1105C246.227 50.3536 245.227 48.9171 244.724 47.2376C244.227 49.0221 243.233 50.5801 241.851 51.4199L241.111 50.4917C243.001 49.3867 244.117 46.9558 244.128 44.6575V43.9724H241.487V42.9558H244.128V40.8895H245.299V42.9558H247.896V43.9724H245.288V44.6575ZM246.934 46.9006V45.8619H249.122V40.7127H250.282V53.5414H249.122V46.9006H246.934ZM251.918 54.2707V40.3812H253.089V54.2707H251.918ZM263.497 43C263.497 44.9337 264.9 46.768 266.933 47.4972L266.248 48.4586C264.718 47.8508 263.508 46.6464 262.906 45.1381C262.32 46.8122 261.055 48.1381 259.419 48.7901L258.768 47.7956C260.845 47.0331 262.281 45.0884 262.292 42.9558V41.232H263.497V43ZM261.276 53.9613V49.6077H262.513V52.9448H270.58V53.9613H261.276ZM265.939 44.6906V43.663H269.033V40.3923H270.259V50.8011H269.033V44.6906H265.939ZM278.425 41.3978V42.4144H274.215V44.1602H278.27V45.1326H274.215V47.0442C276.242 47.0387 277.502 46.9613 278.988 46.6685L279.121 47.6851C277.485 48.0055 276.17 48.0718 273.905 48.0718H273.032V41.3978H278.425ZM274.844 50.5359V49.5304H284.204V54.2707H282.999V50.5359H274.844ZM279.938 48.7127V40.6575H281.088V44.0166H283.043V40.3923H284.204V48.8122H283.043V45.0221H281.088V48.7127H279.938Z" fill="#A9ABB8"/>
<path d="M682.901 48.2155V51.6188H681.431V48.2155H682.901ZM682.166 41.1768C683.161 41.1768 684.048 41.3333 684.829 41.6464C685.614 41.9558 686.229 42.3923 686.674 42.9558C687.12 43.5157 687.343 44.1621 687.343 44.895C687.343 45.6464 687.122 46.3039 686.68 46.8674C686.238 47.4309 685.625 47.8656 684.84 48.1713C684.056 48.477 683.164 48.6298 682.166 48.6298C681.179 48.6298 680.293 48.477 679.509 48.1713C678.728 47.8656 678.114 47.4309 677.669 46.8674C677.227 46.3002 677.006 45.6427 677.006 44.895C677.006 44.1621 677.227 43.5157 677.669 42.9558C678.114 42.3923 678.728 41.9558 679.509 41.6464C680.293 41.3333 681.179 41.1768 682.166 41.1768ZM682.166 42.3812C681.452 42.3812 680.812 42.4862 680.249 42.6961C679.685 42.9024 679.243 43.1952 678.923 43.5746C678.606 43.954 678.448 44.3941 678.448 44.895C678.448 45.407 678.606 45.8564 678.923 46.2431C679.243 46.6262 679.684 46.9227 680.243 47.1326C680.807 47.3389 681.448 47.4438 682.166 47.4475C682.888 47.4438 683.531 47.3389 684.094 47.1326C684.658 46.9227 685.098 46.6262 685.415 46.2431C685.735 45.8564 685.895 45.407 685.895 44.895C685.895 44.3941 685.735 43.954 685.415 43.5746C685.098 43.1952 684.656 42.9024 684.089 42.6961C683.525 42.4862 682.884 42.3812 682.166 42.3812ZM688.608 51.3536V52.5801H675.796V51.3536H688.608ZM700.602 43.5138V44.7182H690.989V43.5138H700.602ZM702.094 45.9448V47.1436H689.282V45.9448H702.094ZM692.442 40.5304V44.1105H690.989V40.5304H692.442ZM700.486 48.2597V51.6851H692.359V53.3315H690.873V50.5912H699.028V49.4199H690.845V48.2597H700.486ZM700.967 52.9779V54.1492H690.873V52.9779H700.967ZM707.37 41.3204C708.099 41.3204 708.753 41.4622 709.331 41.7459C709.91 42.0258 710.361 42.4199 710.685 42.9282C711.013 43.4328 711.179 44.0092 711.182 44.6575C711.179 45.3057 711.013 45.884 710.685 46.3923C710.361 46.9006 709.91 47.2947 709.331 47.5746C708.753 47.8545 708.099 47.9945 707.37 47.9945C706.645 47.9945 705.991 47.8527 705.409 47.5691C704.827 47.2855 704.372 46.8913 704.044 46.3867C703.716 45.8785 703.554 45.302 703.558 44.6575C703.554 44.0129 703.716 43.4383 704.044 42.9337C704.372 42.4254 704.827 42.0295 705.409 41.7459C705.991 41.4622 706.645 41.3204 707.37 41.3204ZM707.37 42.6077C706.917 42.6077 706.512 42.6943 706.155 42.8674C705.797 43.0368 705.517 43.2781 705.315 43.5912C705.116 43.9006 705.018 44.256 705.022 44.6575C705.018 45.0626 705.116 45.4217 705.315 45.7348C705.517 46.0442 705.797 46.2836 706.155 46.453C706.512 46.6225 706.917 46.7072 707.37 46.7072C707.823 46.7072 708.228 46.6225 708.586 46.453C708.947 46.2836 709.227 46.0442 709.425 45.7348C709.628 45.4217 709.731 45.0626 709.735 44.6575C709.731 44.256 709.628 43.9006 709.425 43.5912C709.227 43.2781 708.947 43.0368 708.586 42.8674C708.228 42.6943 707.823 42.6077 707.37 42.6077ZM714.387 40.326V54.3536H712.906V40.326H714.387ZM702.884 50.105C703.963 50.105 704.989 50.0976 705.961 50.0829C706.934 50.0645 707.95 50.0203 709.011 49.9503C710.076 49.8803 711.081 49.7772 712.028 49.6409L712.144 50.7238C711.168 50.9079 710.153 51.046 709.099 51.1381C708.046 51.2302 707.061 51.2873 706.144 51.3094C705.227 51.3315 704.201 51.3425 703.066 51.3425L702.884 50.105ZM723.873 40.8066C724.57 40.8066 725.194 40.9411 725.746 41.2099C726.302 41.4788 726.739 41.8508 727.056 42.326C727.376 42.7974 727.538 43.337 727.542 43.9448C727.538 44.5488 727.376 45.0884 727.056 45.5635C726.739 46.035 726.302 46.4033 725.746 46.6685C725.194 46.93 724.57 47.0608 723.873 47.0608C723.17 47.0608 722.538 46.93 721.978 46.6685C721.418 46.4033 720.98 46.035 720.663 45.5635C720.347 45.0884 720.188 44.5488 720.188 43.9448C720.188 43.337 720.347 42.7974 720.663 42.326C720.98 41.8508 721.418 41.4788 721.978 41.2099C722.538 40.9411 723.17 40.8066 723.873 40.8066ZM723.873 42.0387C723.446 42.0387 723.061 42.1179 722.719 42.2762C722.38 42.4346 722.113 42.6593 721.918 42.9503C721.726 43.2376 721.632 43.5691 721.636 43.9448C721.632 44.3204 721.726 44.6538 721.918 44.9448C722.113 45.2357 722.38 45.4604 722.719 45.6188C723.061 45.7772 723.446 45.8564 723.873 45.8564C724.297 45.8564 724.678 45.7772 725.017 45.6188C725.356 45.4604 725.621 45.2357 725.813 44.9448C726.008 44.6538 726.105 44.3204 726.105 43.9448C726.105 43.5691 726.008 43.2376 725.813 42.9503C725.621 42.6593 725.356 42.4346 725.017 42.2762C724.678 42.1179 724.297 42.0387 723.873 42.0387ZM731.52 40.326V47.453H730.034V40.326H731.52ZM731.52 48.0994V51.6188H723.796V53.6077H722.354V50.5138H730.045V49.2762H722.31V48.0994H731.52ZM731.978 52.9613V54.1492H722.354V52.9613H731.978ZM745.05 40.326V54.326H743.558V40.326H745.05ZM740.89 41.8343C740.886 43.256 740.665 44.5746 740.227 45.7901C739.788 47.0018 739.085 48.116 738.116 49.1326C737.151 50.1492 735.89 51.0295 734.332 51.7735L733.547 50.5746C734.892 49.9374 735.997 49.1971 736.862 48.3536C737.731 47.5101 738.374 46.5672 738.79 45.5249C739.207 44.4825 739.416 43.3315 739.42 42.0718V41.8343H740.89ZM740.067 41.8343V43.0166H734.227V41.8343H740.067Z" fill="#A9ABB8"/>
<path d="M534.575 46.9006V48.1271H521.796V46.9006H534.575ZM533.083 44.4862V45.6851H523.387V44.4862H533.083ZM533 40.8287V42.0387H524.857V45.0773H523.387V40.8287H533ZM528.161 49.221C529.162 49.221 530.026 49.3204 530.752 49.5193C531.477 49.7145 532.032 50.0037 532.415 50.3867C532.801 50.7661 532.997 51.2247 533 51.7624C532.997 52.3039 532.801 52.7643 532.415 53.1436C532.032 53.523 531.477 53.8103 530.752 54.0055C530.03 54.2044 529.166 54.3039 528.161 54.3039C527.151 54.3039 526.284 54.2044 525.558 54.0055C524.833 53.8103 524.275 53.523 523.884 53.1436C523.498 52.7643 523.304 52.3039 523.304 51.7624C523.304 51.2247 523.498 50.7661 523.884 50.3867C524.275 50.0037 524.833 49.7145 525.558 49.5193C526.288 49.3204 527.155 49.221 528.161 49.221ZM528.161 50.3646C527.45 50.3683 526.844 50.4254 526.343 50.5359C525.842 50.6464 525.461 50.8066 525.199 51.0166C524.938 51.2228 524.809 51.4715 524.812 51.7624C524.809 52.0608 524.938 52.3149 525.199 52.5249C525.461 52.7311 525.84 52.8877 526.337 52.9945C526.838 53.0976 527.446 53.1492 528.161 53.1492C528.868 53.1492 529.47 53.0976 529.967 52.9945C530.468 52.8877 530.851 52.7311 531.116 52.5249C531.382 52.3149 531.516 52.0608 531.52 51.7624C531.516 51.4715 531.382 51.2228 531.116 51.0166C530.851 50.8066 530.468 50.6464 529.967 50.5359C529.466 50.4254 528.864 50.3683 528.161 50.3646ZM539.912 42.9227C539.912 43.7882 539.753 44.5985 539.437 45.3536C539.12 46.1087 538.663 46.7643 538.066 47.3204C537.47 47.8766 536.764 48.2965 535.95 48.5801L535.194 47.3978C535.908 47.1584 536.529 46.8122 537.055 46.3591C537.586 45.9024 537.993 45.3794 538.276 44.7901C538.56 44.1971 538.704 43.5746 538.707 42.9227V41.8453H539.912V42.9227ZM540.188 42.9116C540.188 43.5046 540.321 44.07 540.586 44.6077C540.855 45.1455 541.241 45.6206 541.746 46.0331C542.251 46.4457 542.853 46.7643 543.553 46.989L542.845 48.1492C542.043 47.8913 541.35 47.5046 540.768 46.989C540.186 46.4696 539.742 45.86 539.437 45.1602C539.131 44.4604 538.978 43.7109 538.978 42.9116V41.8453H540.188V42.9116ZM543.21 41.3315V42.5359H535.624V41.3315H543.21ZM546.304 40.326V48.7293H544.818V40.326H546.304ZM548.332 43.7901V45.0166H545.89V43.7901H548.332ZM541.779 49.0718C542.74 49.0718 543.569 49.175 544.265 49.3812C544.965 49.5838 545.501 49.8803 545.873 50.2707C546.245 50.6611 546.431 51.1289 546.431 51.674C546.431 52.2228 546.245 52.6943 545.873 53.0884C545.501 53.4825 544.965 53.7827 544.265 53.989C543.566 54.1989 542.737 54.3039 541.779 54.3039C540.814 54.3039 539.978 54.1989 539.271 53.989C538.564 53.7827 538.022 53.4825 537.647 53.0884C537.271 52.6943 537.083 52.2228 537.083 51.674C537.083 51.1289 537.271 50.6611 537.647 50.2707C538.022 49.8803 538.564 49.5838 539.271 49.3812C539.978 49.175 540.814 49.0718 541.779 49.0718ZM541.779 50.2486C541.109 50.2449 540.532 50.2983 540.05 50.4088C539.567 50.5193 539.199 50.6832 538.945 50.9006C538.691 51.1142 538.566 51.372 538.569 51.674C538.566 51.9834 538.691 52.2468 538.945 52.4641C539.199 52.6814 539.567 52.8471 540.05 52.9613C540.532 53.0755 541.109 53.1326 541.779 53.1326C542.45 53.1326 543.024 53.0755 543.503 52.9613C543.982 52.8471 544.346 52.6814 544.597 52.4641C544.851 52.2468 544.978 51.9834 544.978 51.674C544.978 51.372 544.851 51.1142 544.597 50.9006C544.346 50.6832 543.982 50.5193 543.503 50.4088C543.024 50.2983 542.45 50.2449 541.779 50.2486ZM560.425 40.337V50.5138H558.939V40.337H560.425ZM560.834 52.8232V54.0387H551.265V52.8232H560.834ZM552.757 49.4807V53.2762H551.265V49.4807H552.757ZM552.823 41.2873C553.519 41.2873 554.151 41.4365 554.718 41.7348C555.285 42.0295 555.731 42.4401 556.055 42.9669C556.379 43.4936 556.541 44.0884 556.541 44.7514C556.541 45.4254 556.379 46.0276 556.055 46.558C555.731 47.0847 555.285 47.4954 554.718 47.7901C554.151 48.0847 553.519 48.232 552.823 48.232C552.127 48.232 551.494 48.0847 550.923 47.7901C550.355 47.4954 549.908 47.0847 549.58 46.558C549.256 46.0276 549.094 45.4254 549.094 44.7514C549.094 44.0884 549.256 43.4936 549.58 42.9669C549.908 42.4401 550.355 42.0295 550.923 41.7348C551.494 41.4365 552.127 41.2873 552.823 41.2873ZM552.823 42.5801C552.389 42.5801 551.998 42.6722 551.652 42.8564C551.306 43.0368 551.033 43.2928 550.834 43.6243C550.639 43.9521 550.543 44.3278 550.547 44.7514C550.543 45.1823 550.639 45.5635 550.834 45.895C551.033 46.2265 551.306 46.4843 551.652 46.6685C551.998 46.849 552.389 46.9392 552.823 46.9392C553.25 46.9392 553.635 46.849 553.978 46.6685C554.324 46.4843 554.595 46.2265 554.79 45.895C554.989 45.5635 555.088 45.1823 555.088 44.7514C555.088 44.3278 554.989 43.9521 554.79 43.6243C554.595 43.2928 554.324 43.0368 553.978 42.8564C553.632 42.6722 553.247 42.5801 552.823 42.5801ZM569.425 46.9558V49.0608H567.939V46.9558H569.425ZM575.083 46.1215V47.3039H562.32V46.1215H575.083ZM573.436 40.7735V45.0884H563.95V40.7735H573.436ZM565.403 41.9448V43.9227H571.956V41.9448H565.403ZM573.464 48.5304V51.8122H565.32V53.4033H563.867V50.7348H572.005V49.663H563.84V48.5304H573.464ZM573.867 53.0442V54.1934H563.867V53.0442H573.867ZM586.326 41.558C586.326 42.4236 586.07 43.2192 585.558 43.9448C585.05 44.6703 584.359 45.2781 583.486 45.768C582.617 46.2541 581.66 46.5801 580.614 46.7459L580.017 45.5359C580.927 45.4144 581.765 45.1584 582.531 44.768C583.297 44.3738 583.905 43.895 584.354 43.3315C584.803 42.768 585.028 42.1768 585.028 41.558V40.7956H586.326V41.558ZM586.575 41.558C586.575 42.1694 586.801 42.7587 587.254 43.326C587.707 43.8895 588.317 44.3683 589.083 44.7624C589.853 45.1565 590.693 45.4144 591.602 45.5359L591.011 46.7459C589.962 46.5801 588.998 46.2523 588.122 45.7624C587.249 45.2726 586.556 44.6648 586.044 43.9392C585.536 43.2099 585.284 42.4162 585.288 41.558V40.7956H586.575V41.558ZM586.492 49.0497V54.326H585.033V49.0497H586.492ZM592.177 48.1215V49.3481H579.415V48.1215H592.177Z" fill="#A9ABB8"/>
<path d="M372.572 47.7182V49.3425H359.577V47.7182H372.572ZM361.058 52.8066C361.058 51.1381 362.931 50.1989 366.036 50.1989C369.124 50.1989 370.981 51.1381 370.992 52.8066C370.981 54.4917 369.124 55.442 366.036 55.4365C362.931 55.442 361.058 54.4917 361.058 52.8066ZM361.146 46.7238V41.6022H371.014V43.1989H363.135V45.1381H371.086V46.7238H361.146ZM363.091 52.8066C363.08 53.5635 364.069 53.9171 366.036 53.9227C367.97 53.9171 368.986 53.5635 368.992 52.8066C368.986 52.0884 367.97 51.7182 366.036 51.7127C364.069 51.7182 363.08 52.0884 363.091 52.8066ZM381.328 42.1713V43.7624H378.489C378.5 45.4199 379.505 47.0221 381.77 47.6961L380.826 49.2541C379.245 48.779 378.157 47.8232 377.527 46.6077C376.897 48.0331 375.743 49.1713 374.041 49.7293L373.03 48.1547C375.384 47.4088 376.455 45.5691 376.477 43.7624H373.571V42.1713H381.328ZM374.991 52.674C374.986 50.9392 376.853 49.9282 379.859 49.9337C382.826 49.9282 384.66 50.9392 384.66 52.674C384.66 54.4088 382.826 55.442 379.859 55.4365C376.853 55.442 374.986 54.4088 374.991 52.674ZM376.986 52.674C376.98 53.4862 377.997 53.8895 379.859 53.884C381.71 53.8895 382.693 53.4862 382.693 52.674C382.693 51.8729 381.71 51.4807 379.859 51.4862C377.997 51.4807 376.98 51.8729 376.986 52.674ZM382.527 49.6575V41.2099H384.527V44.5193H386.439V46.1436H384.527V49.6575H382.527ZM398.814 41.232V51.453H396.814V41.232H398.814ZM387.129 45.7182C387.123 43.6354 388.836 42.1326 391.019 42.1326C393.201 42.1326 394.902 43.6354 394.902 45.7182C394.902 47.8343 393.201 49.326 391.019 49.326C388.836 49.326 387.123 47.8343 387.129 45.7182ZM389.079 45.7182C389.068 46.9061 389.908 47.5912 391.019 47.5912C392.096 47.5912 392.936 46.9061 392.936 45.7182C392.936 44.5635 392.096 43.8674 391.019 43.8674C389.908 43.8674 389.068 44.5635 389.079 45.7182ZM389.284 55.1934V50.4199H391.3V53.5856H399.19V55.1934H389.284ZM413.554 46.8674V48.4309H408.04V49.3425H411.968V52.9834H404.046V53.8398H412.339V55.3425H402.09V51.5801H410.002V50.8453H402.079V49.3425H406.04V48.4309H400.582V46.8674H413.554ZM402.184 46.116V41.6354H411.908V46.116H402.184ZM404.14 44.5746H409.913V43.1768H404.14V44.5746ZM423.098 43.6575C423.098 45.4972 424.081 47.326 426.352 48.0829L425.269 49.6354C423.766 49.0829 422.728 48.0331 422.125 46.7182C421.518 48.2044 420.407 49.3757 418.761 49.9724L417.689 48.4033C420.059 47.6243 421.081 45.6796 421.087 43.6409V42.0884H423.098V43.6575ZM420.291 55.1934V50.6354H422.308V53.5856H430.065V55.1934H420.291ZM425.109 45.8674V44.2541H427.772V41.232H429.761V51.7403H427.772V45.8674H425.109ZM437.561 42.1657V43.7624H433.854V44.9392H437.423V46.453H433.854V47.7182C435.429 47.6961 436.595 47.6298 437.915 47.3978L438.108 49.0055C436.445 49.2983 435.059 49.3481 432.904 49.3481H431.937V42.1657H437.561ZM433.832 52.0884V50.4917H443.661V55.442H441.677V52.0884H433.832ZM438.677 49.8011V41.4807H440.534V44.7017H441.771V41.232H443.661V49.9006H441.771V46.3039H440.534V49.8011H438.677Z" fill="#FF903F"/>
<line x1="249" y1="27.65" x2="712" y2="27.65" stroke="url(#paint0_linear_3130_3357)" stroke-width="0.7"/>
<circle cx="402.5" cy="27.5" r="3.5" fill="#FF903F"/>
<circle cx="711.5" cy="27.5" r="2.5" fill="#CDCED6"/>
<circle cx="556.5" cy="27.5" r="2.5" fill="#CDCED6"/>
<circle cx="249.5" cy="27.5" r="2.5" fill="#CDCED6"/>
<defs>
<linearGradient id="paint0_linear_3130_3357" x1="249" y1="28.5" x2="712" y2="28.5" gradientUnits="userSpaceOnUse">
<stop stop-color="#CDCED6"/>
<stop offset="0.33" stop-color="#FF903F"/>
<stop offset="0.665" stop-color="#CDCED6"/>
</linearGradient>
</defs>
</svg>
