<svg width="164" height="165" viewBox="0 0 164 165" fill="none" xmlns="http://www.w3.org/2000/svg">
<circle cx="82" cy="82.7148" r="78.99" fill="#F7F7FA" stroke="#E8E8ED" stroke-width="6.01999"/>
<path d="M49.7871 58.3517L52.822 35.8075L63.6608 47.7427L75.8003 25.1985L89.2405 44.2063C100.802 37.5757 122.374 21.1484 122.374 21.1484L117.656 51.7375L149.504 68.5187L116.121 73.3812L136.064 111.397L91.4082 100.788L95.3102 127.31L66.6957 97.2515L45.018 115.375V95.4833L18.5713 99.0197L38.0812 73.3812L21.6062 56.1415L49.7871 58.3517Z" fill="#E8E8ED"/>
<path d="M45.1602 79.0068H113.618L107.861 137.659H52.068L45.1602 79.0068Z" fill="#F5D4BC"/>
<rect x="75.8994" y="79.0068" width="6.9772" height="58.6519" fill="#D4AF95"/>
<mask id="mask0_2643_6465" style="mask-type:alpha" maskUnits="userSpaceOnUse" x="45" y="79" width="69" height="59">
<path d="M45.1602 79.0068H113.618L107.861 137.659H52.068L45.1602 79.0068Z" fill="#FF903F"/>
</mask>
<g mask="url(#mask0_2643_6465)">
<rect x="112.65" y="95.7188" width="7.91321" height="66.5202" transform="rotate(90 112.65 95.7188)" fill="#D4AF95"/>
</g>
<path d="M75.37 53.5527L57.3076 65.3085L75.904 79.0025H79.2285L75.37 53.5527Z" fill="#D4AF95"/>
<path d="M82.0082 49.9472L78.8304 83.0437L82.8796 79.0114L94.4087 55.6711L82.0082 49.9472Z" fill="#D4AF95"/>
<path d="M74.8864 27.7238C74.8394 28.4606 74.7963 29.1896 74.7571 29.9107C74.7179 30.6319 74.667 31.3608 74.6042 32.0977L69.6189 32.3563V33.8378H73.9458L73.7106 37.4827L69.5954 37.6003L69.6189 44.0906L63.6695 44.2082L64.0457 27.7238H74.8864ZM88.5791 33.1088C88.5791 33.7202 88.5242 34.2768 88.4145 34.7784C88.3126 35.2723 88.148 35.7269 87.9207 36.1424C87.6933 36.5578 87.3994 36.9419 87.0388 37.2946C86.6782 37.6474 86.2432 37.9844 85.7337 38.3058L88.5321 43.2911L83.2411 44.3258L81.4303 39.317L79.9724 39.364L79.7607 44.2552H74.7049C74.7441 42.468 74.7794 40.6887 74.8107 38.9172C74.8499 37.1457 74.893 35.3663 74.94 33.5792C74.9557 32.6777 74.9714 31.7841 74.9871 30.8984C75.0028 30.0126 75.0341 29.119 75.0811 28.2176C75.6298 28.0138 76.1707 27.8453 76.7037 27.712C77.2367 27.5788 77.7698 27.4769 78.3028 27.4063C78.8436 27.3279 79.3884 27.277 79.9371 27.2535C80.4936 27.2221 81.0619 27.2064 81.642 27.2064C82.5356 27.2064 83.3978 27.3318 84.2287 27.5827C85.0674 27.8257 85.8082 28.1941 86.4509 28.6879C87.0937 29.1817 87.6071 29.7971 87.9912 30.5339C88.3831 31.2707 88.5791 32.129 88.5791 33.1088ZM83.3116 33.4851C83.3116 33.1559 83.2646 32.8541 83.1705 32.5797C83.0843 32.3054 82.951 32.0702 82.7707 31.8743C82.5983 31.6705 82.3788 31.5137 82.1123 31.404C81.8536 31.2864 81.5479 31.2276 81.1952 31.2276C81.0384 31.2276 80.8856 31.2394 80.7366 31.2629C80.5877 31.2785 80.4427 31.306 80.3016 31.3452L80.1135 35.7191H80.3957C80.7327 35.7191 81.0737 35.676 81.4186 35.5897C81.7713 35.5035 82.0849 35.3703 82.3592 35.19C82.6414 35.0097 82.8687 34.7784 83.0412 34.4963C83.2215 34.2141 83.3116 33.877 83.3116 33.4851ZM94.8173 27.8884L93.9943 43.9025L89.0325 44.1612L88.5622 28.2176L94.8173 27.8884Z" fill="#CECECE"/>
</svg>
