<svg width="164" height="165" viewBox="0 0 164 165" fill="none" xmlns="http://www.w3.org/2000/svg">
<circle cx="82" cy="82.7148" r="78.99" fill="#FFEBDC" stroke="#FF903F" stroke-width="6.01999"/>
<path d="M49.7871 58.3507L52.822 35.8066L63.6608 47.7417L75.8003 25.1975L89.2405 44.2054C100.802 37.5747 122.374 21.1475 122.374 21.1475L117.656 51.7365L149.504 68.5177L116.121 73.3802L136.064 111.396L91.4082 100.787L95.3102 127.309L66.6957 97.2505L45.018 115.374V95.4824L18.5713 99.0187L38.0812 73.3802L21.6062 56.1405L49.7871 58.3507Z" fill="white"/>
<path d="M45.1602 79.0068H113.618L107.861 137.659H52.068L45.1602 79.0068Z" fill="#FF903F"/>
<rect x="75.9014" y="79.0068" width="6.9772" height="58.6519" fill="black"/>
<mask id="mask0_2643_6479" style="mask-type:alpha" maskUnits="userSpaceOnUse" x="45" y="79" width="69" height="59">
<path d="M45.1602 79.0068H113.618L107.861 137.659H52.068L45.1602 79.0068Z" fill="#FF903F"/>
</mask>
<g mask="url(#mask0_2643_6479)">
<rect x="112.65" y="95.7188" width="7.91321" height="66.5202" transform="rotate(90 112.65 95.7188)" fill="black"/>
</g>
<path d="M75.371 53.5527L57.3086 65.3085L75.905 79.0025H79.2295L75.371 53.5527Z" fill="black"/>
<path d="M82.0092 49.9472L78.8314 83.0437L82.8806 79.0114L94.4096 55.6711L82.0092 49.9472Z" fill="black"/>
<path d="M74.8864 27.7228C74.8394 28.4596 74.7963 29.1886 74.7571 29.9097C74.7179 30.6309 74.667 31.3599 74.6042 32.0967L69.6189 32.3554V33.8368H73.9458L73.7106 37.4818L69.5954 37.5993L69.6189 44.0896L63.6695 44.2072L64.0457 27.7228H74.8864ZM88.5791 33.1079C88.5791 33.7193 88.5242 34.2758 88.4145 34.7775C88.3126 35.2713 88.148 35.7259 87.9207 36.1414C87.6933 36.5568 87.3994 36.9409 87.0388 37.2936C86.6782 37.6464 86.2432 37.9834 85.7337 38.3048L88.5321 43.2901L83.2411 44.3248L81.4303 39.316L79.9724 39.363L79.7607 44.2543H74.7049C74.7441 42.4671 74.7794 40.6877 74.8107 38.9162C74.8499 37.1447 74.893 35.3654 74.94 33.5782C74.9557 32.6767 74.9714 31.7832 74.9871 30.8974C75.0028 30.0116 75.0341 29.1181 75.0811 28.2166C75.6298 28.0128 76.1707 27.8443 76.7037 27.711C77.2367 27.5778 77.7698 27.4759 78.3028 27.4053C78.8436 27.3269 79.3884 27.276 79.9371 27.2525C80.4936 27.2211 81.0619 27.2055 81.642 27.2055C82.5356 27.2055 83.3978 27.3309 84.2287 27.5817C85.0674 27.8247 85.8082 28.1931 86.4509 28.6869C87.0937 29.1808 87.6071 29.7961 87.9912 30.5329C88.3831 31.2697 88.5791 32.128 88.5791 33.1079ZM83.3116 33.4841C83.3116 33.1549 83.2646 32.8531 83.1705 32.5788C83.0843 32.3044 82.951 32.0693 82.7707 31.8733C82.5983 31.6695 82.3788 31.5127 82.1123 31.403C81.8536 31.2854 81.5479 31.2266 81.1952 31.2266C81.0384 31.2266 80.8856 31.2384 80.7366 31.2619C80.5877 31.2776 80.4427 31.305 80.3016 31.3442L80.1135 35.7181H80.3957C80.7327 35.7181 81.0737 35.675 81.4186 35.5888C81.7713 35.5025 82.0849 35.3693 82.3592 35.189C82.6414 35.0087 82.8687 34.7775 83.0412 34.4953C83.2215 34.2131 83.3116 33.876 83.3116 33.4841ZM94.8173 27.8874L93.9943 43.9015L89.0325 44.1602L88.5622 28.2166L94.8173 27.8874Z" fill="black"/>
</svg>
