<svg width="417" height="62" viewBox="0 0 417 62" fill="none" xmlns="http://www.w3.org/2000/svg">
<rect x="0.607872" y="1.57662" width="415.784" height="59.5714" rx="1.82362" fill="white"/>
<rect x="0.607872" y="1.57662" width="415.784" height="59.5714" rx="1.82362" stroke="#D3D3D3" stroke-width="1.21574"/>
<path fill-rule="evenodd" clip-rule="evenodd" d="M40.8976 31.611C40.8976 30.8351 40.8279 30.0891 40.6986 29.3729H30.3936V33.6054H36.2822C36.0285 34.9731 35.2576 36.1319 34.0988 36.9078V39.6532H37.635C39.7039 37.7483 40.8976 34.9433 40.8976 31.611Z" fill="#4285F4"/>
<path fill-rule="evenodd" clip-rule="evenodd" d="M30.3936 42.304C33.3479 42.304 35.8247 41.3242 37.635 39.6532L34.0989 36.9078C33.1191 37.5643 31.8658 37.9522 30.3936 37.9522C27.5438 37.9522 25.1317 36.0275 24.2712 33.4413H20.6157V36.2761C22.4161 39.8521 26.1164 42.304 30.3936 42.304Z" fill="#34A853"/>
<path fill-rule="evenodd" clip-rule="evenodd" d="M24.2712 33.4413C24.0524 32.7848 23.9281 32.0835 23.9281 31.3623C23.9281 30.6412 24.0524 29.9399 24.2712 29.2834V26.4485H20.6157C19.8747 27.9257 19.4519 29.5967 19.4519 31.3623C19.4519 33.1279 19.8747 34.799 20.6157 36.2762L24.2712 33.4413Z" fill="#FBBC05"/>
<path fill-rule="evenodd" clip-rule="evenodd" d="M30.3936 24.7725C32.0001 24.7725 33.4424 25.3245 34.5763 26.4087L37.7146 23.2705C35.8197 21.5049 33.3429 20.4206 30.3936 20.4206C26.1164 20.4206 22.4161 22.8726 20.6157 26.4485L24.2712 29.2834C25.1317 26.6972 27.5438 24.7725 30.3936 24.7725Z" fill="#EA4335"/>
<path d="M151.084 30.7958V36.0767C150.887 36.3363 150.58 36.6213 150.162 36.9315C149.751 37.2355 149.203 37.4982 148.519 37.7199C147.835 37.9415 146.984 38.0523 145.964 38.0523C145.097 38.0523 144.302 37.9067 143.58 37.6154C142.858 37.3178 142.235 36.884 141.709 36.3142C141.19 35.7443 140.788 35.0509 140.503 34.2341C140.218 33.4109 140.075 32.4738 140.075 31.4227V30.4634C140.075 29.4186 140.205 28.4878 140.465 27.671C140.731 26.8478 141.111 26.1513 141.605 25.5814C142.099 25.0115 142.694 24.581 143.39 24.2897C144.093 23.9921 144.888 23.8433 145.774 23.8433C146.908 23.8433 147.845 24.0333 148.586 24.4132C149.333 24.7868 149.909 25.306 150.314 25.9708C150.72 26.6357 150.976 27.3955 151.084 28.2504H148.747C148.671 27.7691 148.522 27.3386 148.301 26.9586C148.085 26.5787 147.775 26.2811 147.37 26.0658C146.971 25.8442 146.452 25.7334 145.812 25.7334C145.261 25.7334 144.777 25.8379 144.359 26.0468C143.941 26.2558 143.593 26.5629 143.314 26.9681C143.042 27.3734 142.836 27.8673 142.697 28.4498C142.558 29.0324 142.488 29.6972 142.488 30.4444V31.4227C142.488 32.1825 142.567 32.8569 142.725 33.4458C142.89 34.0346 143.124 34.5317 143.428 34.937C143.739 35.3422 144.115 35.6493 144.559 35.8583C145.002 36.0609 145.502 36.1622 146.059 36.1622C146.604 36.1622 147.05 36.1179 147.398 36.0292C147.747 35.9342 148.022 35.8234 148.225 35.6968C148.434 35.5638 148.595 35.4372 148.709 35.3169V32.572H145.831V30.7958H151.084ZM153.059 32.8379V32.6194C153.059 31.8786 153.167 31.1916 153.382 30.5584C153.597 29.9188 153.908 29.3648 154.313 28.8962C154.725 28.4213 155.225 28.0541 155.814 27.7945C156.409 27.5285 157.08 27.3955 157.827 27.3955C158.581 27.3955 159.252 27.5285 159.841 27.7945C160.436 28.0541 160.939 28.4213 161.351 28.8962C161.763 29.3648 162.076 29.9188 162.291 30.5584C162.507 31.1916 162.614 31.8786 162.614 32.6194V32.8379C162.614 33.5787 162.507 34.2658 162.291 34.899C162.076 35.5322 161.763 36.0862 161.351 36.5611C160.939 37.0297 160.439 37.3969 159.85 37.6629C159.261 37.9225 158.593 38.0523 157.846 38.0523C157.093 38.0523 156.418 37.9225 155.823 37.6629C155.234 37.3969 154.734 37.0297 154.322 36.5611C153.911 36.0862 153.597 35.5322 153.382 34.899C153.167 34.2658 153.059 33.5787 153.059 32.8379ZM155.348 32.6194V32.8379C155.348 33.3001 155.396 33.737 155.491 34.1486C155.586 34.5602 155.735 34.9211 155.937 35.2314C156.14 35.5417 156.399 35.7854 156.716 35.9627C157.033 36.14 157.409 36.2287 157.846 36.2287C158.27 36.2287 158.638 36.14 158.948 35.9627C159.265 35.7854 159.524 35.5417 159.727 35.2314C159.929 34.9211 160.078 34.5602 160.173 34.1486C160.275 33.737 160.325 33.3001 160.325 32.8379V32.6194C160.325 32.1635 160.275 31.733 160.173 31.3277C160.078 30.9161 159.926 30.552 159.717 30.2354C159.515 29.9188 159.255 29.6719 158.939 29.4946C158.628 29.311 158.258 29.2192 157.827 29.2192C157.397 29.2192 157.023 29.311 156.706 29.4946C156.396 29.6719 156.14 29.9188 155.937 30.2354C155.735 30.552 155.586 30.9161 155.491 31.3277C155.396 31.733 155.348 32.1635 155.348 32.6194ZM164.096 32.8379V32.6194C164.096 31.8786 164.204 31.1916 164.419 30.5584C164.634 29.9188 164.944 29.3648 165.35 28.8962C165.761 28.4213 166.261 28.0541 166.85 27.7945C167.446 27.5285 168.117 27.3955 168.864 27.3955C169.617 27.3955 170.289 27.5285 170.877 27.7945C171.473 28.0541 171.976 28.4213 172.388 28.8962C172.799 29.3648 173.113 29.9188 173.328 30.5584C173.543 31.1916 173.651 31.8786 173.651 32.6194V32.8379C173.651 33.5787 173.543 34.2658 173.328 34.899C173.113 35.5322 172.799 36.0862 172.388 36.5611C171.976 37.0297 171.476 37.3969 170.887 37.6629C170.298 37.9225 169.63 38.0523 168.883 38.0523C168.129 38.0523 167.455 37.9225 166.86 37.6629C166.271 37.3969 165.771 37.0297 165.359 36.5611C164.948 36.0862 164.634 35.5322 164.419 34.899C164.204 34.2658 164.096 33.5787 164.096 32.8379ZM166.385 32.6194V32.8379C166.385 33.3001 166.432 33.737 166.527 34.1486C166.622 34.5602 166.771 34.9211 166.974 35.2314C167.176 35.5417 167.436 35.7854 167.753 35.9627C168.069 36.14 168.446 36.2287 168.883 36.2287C169.307 36.2287 169.674 36.14 169.985 35.9627C170.301 35.7854 170.561 35.5417 170.764 35.2314C170.966 34.9211 171.115 34.5602 171.21 34.1486C171.311 33.737 171.362 33.3001 171.362 32.8379V32.6194C171.362 32.1635 171.311 31.733 171.21 31.3277C171.115 30.9161 170.963 30.552 170.754 30.2354C170.551 29.9188 170.292 29.6719 169.975 29.4946C169.665 29.311 169.294 29.2192 168.864 29.2192C168.433 29.2192 168.06 29.311 167.743 29.4946C167.433 29.6719 167.176 29.9188 166.974 30.2354C166.771 30.552 166.622 30.9161 166.527 31.3277C166.432 31.733 166.385 32.1635 166.385 32.6194ZM182.152 27.5855H184.232V37.5774C184.232 38.5019 184.035 39.287 183.643 39.9329C183.25 40.5788 182.702 41.0695 182 41.4051C181.297 41.747 180.483 41.918 179.559 41.918C179.166 41.918 178.729 41.861 178.248 41.747C177.773 41.633 177.311 41.4494 176.861 41.1961C176.418 40.9492 176.048 40.6231 175.75 40.2178L176.823 38.8691C177.19 39.306 177.596 39.6258 178.039 39.8284C178.482 40.031 178.948 40.1324 179.435 40.1324C179.961 40.1324 180.407 40.0342 180.774 39.8379C181.148 39.648 181.436 39.3662 181.639 38.9926C181.841 38.619 181.943 38.1631 181.943 37.6249V29.9125L182.152 27.5855ZM175.171 32.8379V32.6384C175.171 31.8596 175.266 31.1504 175.456 30.5109C175.645 29.865 175.918 29.311 176.272 28.8487C176.627 28.3802 177.058 28.0224 177.564 27.7755C178.071 27.5222 178.644 27.3955 179.283 27.3955C179.948 27.3955 180.515 27.5159 180.983 27.7565C181.458 27.9971 181.854 28.3422 182.171 28.7917C182.487 29.235 182.734 29.7669 182.911 30.3874C183.095 31.0016 183.231 31.6855 183.32 32.439V33.0753C183.238 33.8099 183.098 34.481 182.902 35.0889C182.706 35.6968 182.446 36.2223 182.123 36.6656C181.8 37.1088 181.401 37.4508 180.926 37.6914C180.458 37.932 179.904 38.0523 179.264 38.0523C178.637 38.0523 178.071 37.9225 177.564 37.6629C177.064 37.4033 176.633 37.0392 176.272 36.5706C175.918 36.102 175.645 35.5512 175.456 34.918C175.266 34.2784 175.171 33.5851 175.171 32.8379ZM177.46 32.6384V32.8379C177.46 33.3065 177.504 33.7434 177.593 34.1486C177.688 34.5539 177.83 34.9116 178.02 35.2219C178.216 35.5258 178.463 35.7664 178.761 35.9437C179.065 36.1147 179.423 36.2002 179.834 36.2002C180.372 36.2002 180.812 36.0862 181.154 35.8583C181.503 35.6303 181.769 35.3232 181.952 34.937C182.142 34.5444 182.275 34.1075 182.351 33.6262V31.9071C182.313 31.5335 182.234 31.1852 182.114 30.8623C182 30.5394 181.844 30.2576 181.648 30.017C181.452 29.77 181.205 29.5801 180.907 29.4471C180.61 29.3078 180.258 29.2382 179.853 29.2382C179.442 29.2382 179.084 29.3268 178.78 29.5041C178.476 29.6814 178.226 29.9252 178.029 30.2354C177.84 30.5457 177.697 30.9066 177.602 31.3182C177.507 31.7298 177.46 32.1699 177.46 32.6384ZM189.057 23.2734V37.8623H186.758V23.2734H189.057ZM196.095 38.0523C195.335 38.0523 194.648 37.9288 194.034 37.6819C193.426 37.4286 192.906 37.0772 192.476 36.6276C192.052 36.178 191.726 35.6493 191.498 35.0414C191.27 34.4336 191.156 33.7782 191.156 33.0753V32.6954C191.156 31.8913 191.273 31.1631 191.507 30.5109C191.741 29.8587 192.068 29.3015 192.485 28.8392C192.903 28.3707 193.397 28.0129 193.967 27.766C194.537 27.519 195.154 27.3955 195.819 27.3955C196.554 27.3955 197.196 27.519 197.747 27.766C198.298 28.0129 198.754 28.3612 199.115 28.8107C199.482 29.254 199.755 29.7827 199.932 30.3969C200.115 31.0111 200.207 31.6886 200.207 32.4295V33.4078H192.267V31.7646H197.947V31.5842C197.934 31.1726 197.852 30.7863 197.7 30.4254C197.554 30.0645 197.329 29.7732 197.025 29.5516C196.722 29.33 196.316 29.2192 195.81 29.2192C195.43 29.2192 195.091 29.3015 194.793 29.4661C194.502 29.6244 194.258 29.8555 194.062 30.1595C193.866 30.4634 193.714 30.8307 193.606 31.2612C193.505 31.6855 193.454 32.1635 193.454 32.6954V33.0753C193.454 33.5249 193.514 33.9428 193.635 34.3291C193.761 34.709 193.945 35.0414 194.186 35.3264C194.426 35.6113 194.717 35.8361 195.059 36.0007C195.401 36.159 195.791 36.2382 196.228 36.2382C196.779 36.2382 197.269 36.1274 197.7 35.9057C198.13 35.6841 198.504 35.3707 198.821 34.9654L200.027 36.1337C199.805 36.4566 199.517 36.7669 199.163 37.0645C198.808 37.3558 198.374 37.5932 197.861 37.7769C197.355 37.9605 196.766 38.0523 196.095 38.0523ZM201.788 35.8782H217.719V37.2204H201.788V35.8782ZM208.907 32.1046H210.522V36.4423H208.907V32.1046ZM203.713 23.0983H215.754V28.4282H205.367V31.949H203.772V27.1249H214.159V24.4016H203.713V23.0983ZM203.772 31.2681H216.163V32.5909H203.772V31.2681ZM229.156 23.3123H230.478V26.4635C230.478 30.5095 228.3 34.2637 225.421 35.7226L224.429 34.3999C227.035 33.155 229.156 29.7898 229.156 26.4635V23.3123ZM229.428 23.3123H230.751V26.4635C230.751 29.6731 232.851 32.9021 235.458 34.1081L234.485 35.3919C231.626 33.9914 229.428 30.3734 229.428 26.4635V23.3123ZM237.286 21.7756H238.901V39.399H237.286V21.7756ZM246.739 23.6041H248.061V25.0241C248.061 28.2531 246.116 30.9375 243.179 31.9879L242.323 30.7235C244.988 29.7898 246.739 27.5334 246.739 25.0241V23.6041ZM247.03 23.6041H248.353V25.0046C248.353 27.3389 250.045 29.498 252.632 30.3734L251.796 31.6377C248.898 30.6262 247.03 28.0391 247.03 25.0046V23.6041ZM242.829 23.0205H252.224V24.3433H242.829V23.0205ZM254.441 21.7951H256.056V32.3769H254.441V21.7951ZM255.609 26.4246H258.663V27.7668H255.609V26.4246ZM244.638 33.3106H256.056V39.3796H254.441V34.6528H244.638V33.3106ZM272.219 21.7951H273.833V39.3796H272.219V21.7951ZM273.444 29.0117H276.712V30.3734H273.444V29.0117ZM260.217 24.5961H270.585V25.9189H260.217V24.5961ZM265.469 27.3778C267.959 27.3778 269.749 29.0506 269.749 31.4238C269.749 33.7969 267.959 35.4698 265.469 35.4698C262.999 35.4698 261.19 33.7969 261.19 31.4238C261.19 29.0506 262.999 27.3778 265.469 27.3778ZM265.469 28.7199C263.874 28.7199 262.726 29.8287 262.726 31.4238C262.726 32.9994 263.874 34.1276 265.469 34.1276C267.064 34.1276 268.212 32.9994 268.212 31.4238C268.212 29.8287 267.064 28.7199 265.469 28.7199ZM264.633 22.009H266.247V25.1992H264.633V22.009ZM291.008 21.7951H292.622V39.3796H291.008V21.7951ZM285.853 23.6819H287.448C287.448 28.7783 285.153 33.2328 279.278 36.1117L278.423 34.8084C283.5 32.3574 285.853 28.6227 285.853 23.9542V23.6819ZM279.22 23.6819H286.553V25.0046H279.22V23.6819Z" fill="black" fill-opacity="0.54"/>
</svg>
