<svg width="417" height="63" viewBox="0 0 417 63" fill="none" xmlns="http://www.w3.org/2000/svg">
<rect y="0.375" width="417" height="62.55" rx="8.34" fill="#FEE500"/>
<path d="M155.379 23.7698C155.358 30.1707 152.168 34.2782 147.039 36.8636L145.892 35.4458C148.77 34.1322 151.063 32.1723 152.356 29.6078L146.518 30.2333L146.184 28.607L152.96 28.0857C153.232 27.2309 153.398 26.3135 153.44 25.3335H146.914V23.7698H155.379ZM159.987 21.8516V29.1908H162.885V30.7128H159.987V40.0745H158.152V21.8516H159.987ZM173.419 23.7698C173.398 30.1707 170.208 34.2782 165.079 36.8636L163.932 35.4458C166.81 34.1322 169.103 32.1723 170.396 29.6078L164.558 30.2333L164.224 28.607L171.001 28.0857C171.272 27.2309 171.438 26.3135 171.48 25.3335H164.954V23.7698H173.419ZM178.027 21.8516V29.1908H180.925V30.7128H178.027V40.0745H176.192V21.8516H178.027ZM197.005 28.044C197.005 30.8796 194.691 32.8395 191.126 33.1106V36.1964H198.444V37.7184H181.993V36.1964H189.27V33.0897C185.726 32.7978 183.432 30.8796 183.432 28.044C183.432 24.9999 186.143 22.9775 190.208 22.9775C194.316 22.9775 197.005 24.9999 197.005 28.044ZM195.108 28.044C195.108 25.9799 193.169 24.5204 190.208 24.5204C187.268 24.5204 185.329 25.9799 185.329 28.044C185.329 30.129 187.268 31.5677 190.208 31.5677C193.148 31.5677 195.108 30.129 195.108 28.044ZM216.484 37.7601H200.034V36.2589H207.289V33.3816H202.014V27.5228H212.606V24.854H201.973V23.3528H214.441V29.024H203.849V31.8804H214.941V33.3816H209.145V36.2589H216.484V37.7601ZM238.625 40.0745H236.791V21.8516H238.625V40.0745ZM234.622 34.3199L233.517 35.696C231.891 34.5701 229.785 32.4017 229.118 30.275C228.472 32.5059 226.678 34.8203 224.614 36.1755L223.468 34.8203C226.199 33.0897 228.138 29.9205 228.138 26.5637V23.457H230.056V26.4803C230.056 29.8997 232.099 32.8604 234.622 34.3199ZM241.737 24.6246V23.1026H251.682V24.6246H247.7V25.125C247.7 27.7104 249.889 29.7329 251.954 30.3584L250.932 31.8387C249.306 31.1924 247.533 29.6286 246.783 27.9606C246.178 29.712 244.218 31.5677 242.342 32.3391L241.257 30.9005C243.614 30.0456 245.824 27.7104 245.824 25.1667V24.6246H241.737ZM243.864 33.5484H255.665V40.0953H253.83V35.0705H243.864V33.5484ZM258.375 28.2108H255.665V32.5893H253.809V21.8516H255.665V26.6679H258.375V28.2108ZM276.603 30.9839H273.705V40.0745H271.849V21.8516H273.705V29.441H276.603V30.9839ZM267.679 24.5412H262.237V23.04H267.679V24.5412ZM270.327 27.6687H259.527V26.1884H270.327V27.6687ZM269.306 32.5476C269.306 34.6952 267.596 36.3632 265.01 36.3632C262.425 36.3632 260.695 34.7369 260.695 32.5476C260.695 30.4001 262.425 28.6904 265.01 28.6904C267.596 28.6904 269.306 30.3584 269.306 32.5476ZM267.492 32.5476C267.492 31.1924 266.428 30.2333 265.01 30.2333C263.593 30.2333 262.55 31.1924 262.55 32.5476C262.55 33.882 263.572 34.8203 265.01 34.8203C266.512 34.8203 267.492 33.882 267.492 32.5476ZM292.621 40.0745H290.765V21.8516H292.621V40.0745ZM287.283 23.7906C287.179 29.5869 283.801 33.8403 278.818 36.5508L277.692 35.1539C281.987 33.0897 284.948 29.2742 285.282 25.3544H278.505V23.7906H287.283Z" fill="black" fill-opacity="0.85"/>
<g clip-path="url(#clip0_155_1333)">
<path fill-rule="evenodd" clip-rule="evenodd" d="M31.97 19.8018C25.0605 19.8018 19.46 24.1517 19.46 29.5165C19.46 32.853 21.6261 35.7943 24.9248 37.5438L23.5369 42.6406C23.4142 43.091 23.9266 43.4499 24.32 43.189L30.4039 39.1525C30.9173 39.2023 31.4391 39.2313 31.97 39.2313C38.8789 39.2313 44.4799 34.8816 44.4799 29.5165C44.4799 24.1517 38.8789 19.8018 31.97 19.8018Z" fill="black"/>
</g>
<defs>
<clipPath id="clip0_155_1333">
<rect width="25.02" height="23.63" fill="white" transform="translate(19.46 19.835)"/>
</clipPath>
</defs>
</svg>
