<svg width="216" height="220" viewBox="0 0 216 220" fill="none" xmlns="http://www.w3.org/2000/svg">
<path d="M0.982422 29.3523L138.06 -4.58451e-05L178.883 190.648L41.8058 220L0.982422 29.3523Z" fill="#FF903F"/>
<path d="M81.0836 91.8802L84.9465 60.6666L98.8006 68.8361L114.194 45.9779L134.512 77.6346L173.474 40.3704L167.468 82.7224L208.005 105.957L165.514 112.689L190.899 165.324L139.026 153.716V187.357L102.605 145.739L75.0134 170.832V143.291L41.3516 148.187L66.1841 112.689L45.2144 88.82L81.0836 91.8802Z" fill="white"/>
<path fill-rule="evenodd" clip-rule="evenodd" d="M68.6619 66.9834C69.8256 67.4201 70.4149 68.7175 69.9782 69.8811C66.5148 79.1095 65.0509 88.8089 68.5673 97.7551C71.1776 104.396 76.3386 108.079 83.4884 109.021C84.638 109.172 85.7786 109.261 86.9091 109.287C86.4561 106.834 86.252 104.344 86.3293 101.854C86.4742 97.189 87.9026 91.6459 90.6092 87.0058C93.312 82.3721 97.4775 78.3473 103.204 77.388C107.198 76.7187 111.658 78.0303 114.926 80.5247C118.23 83.0473 120.65 87.0738 119.74 91.8952C118.979 95.9214 116.609 99.4117 113.846 102.244C111.069 105.09 107.753 107.418 104.821 109.119C100.95 111.364 96.8705 112.798 92.6488 113.427C95.6321 122.081 101.991 129.871 109.77 134.334C117.073 138.523 125.683 139.699 134.28 139.348C135.522 139.297 136.57 140.263 136.62 141.505C136.671 142.747 135.705 143.795 134.463 143.845C125.397 144.215 115.839 143.005 107.53 138.238C98.5582 133.091 91.2191 123.988 88.0295 113.794C86.3368 113.814 84.626 113.71 82.9011 113.483C74.2973 112.351 67.6475 107.719 64.3782 99.4016C60.2785 88.9714 62.1205 78.0082 65.7641 68.2996C66.2008 67.136 67.4982 66.5466 68.6619 66.9834ZM91.4497 109.05C95.308 108.548 99.0266 107.276 102.563 105.225C105.259 103.662 108.214 101.571 110.624 99.1005C113.049 96.6155 114.782 93.8906 115.317 91.06C115.823 88.3774 114.57 85.9155 112.195 84.1024C109.783 82.2611 106.558 81.3898 103.947 81.8271C100.008 82.4871 96.8094 85.3096 94.4971 89.2737C92.1885 93.2315 90.9511 98.0366 90.8282 101.993C90.7551 104.347 90.9742 106.714 91.4497 109.05Z" fill="black"/>
<path d="M184.875 51.4819C185.203 51.0463 185.822 50.9591 186.258 51.2872L209.897 69.0905C210.333 69.4186 210.42 70.0377 210.092 70.4734L163.499 132.341L138.282 113.349L184.875 51.4819Z" fill="black"/>
<path d="M139.839 138.687C139.216 138.854 138.604 138.39 138.595 137.746L138.283 113.349L163.5 132.341L139.839 138.687Z" fill="black"/>
</svg>
