<svg width="current" height="current" viewBox="0 0 49 51" fill="none" xmlns="http://www.w3.org/2000/svg">
<path fill-rule="evenodd" clip-rule="evenodd" d="M3.18182 0C1.42455 0 0 1.42455 0 3.18182V14.388C0 15.8752 1.03013 17.164 2.48073 17.4917L35.1289 24.8666L34.521 30.6413C34.4622 31.2004 35.1042 31.5556 35.5466 31.2086L41.7311 26.358L45.1171 27.1229C47.1071 27.5724 49 26.0594 49 24.0193V3.18182C49 1.42455 47.5755 0 45.8182 0H3.18182Z" fill="#FF903F"/>
<path fill-rule="evenodd" clip-rule="evenodd" d="M28.3182 44.5452C30.0755 44.5452 31.5 43.1207 31.5 41.3634L31.5 30.1843C31.5 28.6848 30.453 27.3888 28.987 27.0736L3.85068 21.6689C1.86937 21.2429 7.62939e-06 22.753 7.62939e-06 24.7796L5.72205e-06 41.3636C5.72205e-06 43.1209 1.42457 44.5454 3.18185 44.5454L5.76188 44.5454L9.97634 50.4305C10.3048 50.8892 11.0235 50.7253 11.1206 50.1696L12.1033 44.5453L28.3182 44.5452Z" fill="#34C184"/>
</svg>
