<svg width="137" height="24" viewBox="0 0 137 24" fill="none" xmlns="http://www.w3.org/2000/svg">
<path d="M136.688 20.2831C136.183 20.9084 135.559 21.4542 134.818 21.9206C134.076 22.3869 133.281 22.7738 132.432 23.0812C131.583 23.3885 130.712 23.6164 129.82 23.7648C128.928 23.9238 128.079 24.0033 127.273 24.0033C125.715 24.0033 124.28 23.7277 122.969 23.1766C121.658 22.6254 120.524 21.8676 119.568 20.9031C118.622 19.928 117.881 18.7833 117.343 17.4691C116.806 16.1548 116.537 14.7399 116.537 13.2242C116.537 12.0689 116.672 10.9402 116.94 9.83788C117.209 8.725 117.591 7.68101 118.085 6.70591C118.59 5.72022 119.203 4.81931 119.923 4.0032C120.643 3.17649 121.459 2.46636 122.373 1.87283C123.286 1.27929 124.286 0.818239 125.371 0.489674C126.457 0.161109 127.617 -0.00317383 128.853 -0.00317383C129.315 -0.00317383 129.81 0.0180237 130.336 0.0604192C130.863 0.0922158 131.384 0.155809 131.9 0.251199C132.427 0.33599 132.937 0.457877 133.431 0.61686C133.926 0.775843 134.377 0.971922 134.786 1.2051L134.334 7.27825C133.732 7.05567 133.109 6.90729 132.464 6.8331C131.83 6.74831 131.207 6.70591 130.594 6.70591C129.735 6.70591 128.929 6.8384 128.176 7.10337C127.435 7.35774 126.784 7.7287 126.226 8.21625C125.678 8.7038 125.242 9.29734 124.92 9.99686C124.598 10.6964 124.436 11.486 124.436 12.3657C124.436 12.9168 124.512 13.4521 124.662 13.9714C124.812 14.4802 125.038 14.9359 125.339 15.3387C125.651 15.7308 126.032 16.0488 126.484 16.2926C126.946 16.5364 127.478 16.6583 128.079 16.6583C128.488 16.6583 128.907 16.6053 129.337 16.4993C129.778 16.3933 130.154 16.2131 130.465 15.9587L130.53 14.7187L126.661 14.6551L126.854 9.88557C128.456 9.83258 130.057 9.79018 131.658 9.75839C133.259 9.71599 134.872 9.663 136.494 9.5994L136.688 20.2831Z" fill="#FF903F"/>
<path d="M117.423 12.3021C117.423 13.2666 117.31 14.1993 117.084 15.1002C116.858 15.9905 116.531 16.8278 116.101 17.6121C115.682 18.3965 115.166 19.1172 114.553 19.7743C113.951 20.4208 113.269 20.9773 112.506 21.4436C111.754 21.91 110.931 22.2757 110.039 22.5406C109.147 22.795 108.202 22.9222 107.202 22.9222C106.235 22.9222 105.311 22.8003 104.43 22.5565C103.559 22.3127 102.742 21.9736 101.979 21.539C101.216 21.0939 100.523 20.5639 99.8997 19.9492C99.2871 19.3239 98.7606 18.6349 98.3199 17.8824C97.8901 17.1193 97.5515 16.3032 97.3044 15.4341C97.0679 14.565 96.9497 13.6588 96.9497 12.7155C96.9497 11.7934 97.0625 10.8925 97.2882 10.0128C97.5139 9.12245 97.8363 8.28514 98.2554 7.50082C98.6853 6.71651 99.2012 5.99578 99.803 5.33865C100.405 4.68152 101.077 4.11449 101.818 3.63754C102.57 3.16059 103.382 2.78963 104.252 2.52465C105.123 2.25968 106.042 2.1272 107.009 2.1272C108.567 2.1272 109.986 2.36567 111.265 2.84262C112.554 3.31957 113.65 4.0032 114.553 4.8935C115.467 5.77321 116.17 6.84369 116.665 8.10496C117.17 9.35563 117.423 10.7547 117.423 12.3021ZM110.265 12.7155C110.265 12.2597 110.195 11.8199 110.056 11.3959C109.927 10.9614 109.733 10.5798 109.475 10.2512C109.217 9.91207 108.895 9.6418 108.508 9.44042C108.132 9.22844 107.697 9.12245 107.202 9.12245C106.697 9.12245 106.246 9.21254 105.848 9.39272C105.45 9.5729 105.107 9.82198 104.816 10.1399C104.537 10.4473 104.322 10.813 104.172 11.2369C104.021 11.6503 103.946 12.0901 103.946 12.5565C103.946 13.0016 104.01 13.4468 104.139 13.8919C104.268 14.3371 104.462 14.7399 104.72 15.1002C104.978 15.4606 105.295 15.752 105.671 15.9746C106.058 16.1972 106.504 16.3085 107.009 16.3085C107.514 16.3085 107.965 16.2131 108.363 16.0223C108.771 15.8209 109.115 15.556 109.395 15.2274C109.674 14.8882 109.889 14.5014 110.039 14.0668C110.19 13.6323 110.265 13.1818 110.265 12.7155Z" fill="#FF903F"/>
<path d="M98.0605 14.4643L97.3835 21.5232L83.8102 22.5725C83.8747 18.8735 83.9445 15.1956 84.0197 11.539C84.1057 7.88243 84.2078 4.20462 84.326 0.505615H92.7086C92.4614 2.82677 92.225 5.14792 91.9993 7.46907C91.7736 9.77963 91.6124 12.1114 91.5157 14.4643C92.0208 14.4855 92.5205 14.4961 93.0149 14.4961C93.5092 14.4961 94.009 14.4961 94.5141 14.4961C95.1159 14.4961 95.707 14.4908 96.2873 14.4802C96.8676 14.4696 97.4587 14.4643 98.0605 14.4643Z" fill="#FF903F"/>
<path d="M78.7622 0.727995L77.6015 22.2861L69.1545 23.0492L64.6408 11.507L63.9315 23.2718H56.6774L57.2577 0.727995L65.3179 0.346436L70.8955 11.7932L71.1534 0.982368L78.7622 0.727995Z" fill="#FF903F"/>
<path d="M57.0308 12.3021C57.0308 13.2666 56.9179 14.1993 56.6923 15.1002C56.4666 15.9905 56.1388 16.8278 55.7089 17.6121C55.2898 18.3965 54.7739 19.1172 54.1614 19.7743C53.5595 20.4208 52.8771 20.9773 52.1141 21.4436C51.3618 21.91 50.5397 22.2757 49.6477 22.5406C48.7557 22.795 47.81 22.9222 46.8105 22.9222C45.8433 22.9222 44.9191 22.8003 44.0378 22.5565C43.1673 22.3127 42.3505 21.9736 41.5875 21.539C40.8245 21.0939 40.1313 20.5639 39.508 19.9492C38.8954 19.3239 38.3688 18.6349 37.9282 17.8824C37.4983 17.1193 37.1598 16.3032 36.9126 15.4341C36.6762 14.565 36.558 13.6588 36.558 12.7155C36.558 11.7934 36.6708 10.8925 36.8965 10.0128C37.1222 9.12245 37.4446 8.28514 37.8637 7.50082C38.2936 6.71651 38.8095 5.99578 39.4113 5.33865C40.0131 4.68152 40.6848 4.11449 41.4263 3.63754C42.1786 3.16059 42.99 2.78963 43.8605 2.52465C44.731 2.25968 45.6498 2.1272 46.6171 2.1272C48.1754 2.1272 49.5939 2.36567 50.8728 2.84262C52.1624 3.31957 53.2586 4.0032 54.1614 4.8935C55.0748 5.77321 55.7788 6.84369 56.2731 8.10496C56.7782 9.35563 57.0308 10.7547 57.0308 12.3021ZM49.8734 12.7155C49.8734 12.2597 49.8035 11.8199 49.6638 11.3959C49.5348 10.9614 49.3414 10.5798 49.0835 10.2512C48.8255 9.91207 48.5031 9.6418 48.1163 9.44042C47.7401 9.22844 47.3049 9.12245 46.8105 9.12245C46.3054 9.12245 45.854 9.21254 45.4564 9.39272C45.0588 9.5729 44.7149 9.82198 44.4247 10.1399C44.1453 10.4473 43.9303 10.813 43.7799 11.2369C43.6294 11.6503 43.5542 12.0901 43.5542 12.5565C43.5542 13.0016 43.6187 13.4468 43.7476 13.8919C43.8766 14.3371 44.0701 14.7399 44.328 15.1002C44.5859 15.4606 44.9029 15.752 45.2791 15.9746C45.666 16.1972 46.112 16.3085 46.6171 16.3085C47.1222 16.3085 47.5735 16.2131 47.9712 16.0223C48.3795 15.8209 48.7234 15.556 49.0029 15.2274C49.2823 14.8882 49.4972 14.5014 49.6477 14.0668C49.7981 13.6323 49.8734 13.1818 49.8734 12.7155Z" fill="#FF903F"/>
<path d="M37.2982 12.3021C37.2982 13.2666 37.1854 14.1993 36.9597 15.1002C36.734 15.9905 36.4062 16.8278 35.9764 17.6121C35.5572 18.3965 35.0414 19.1172 34.4288 19.7743C33.827 20.4208 33.1446 20.9773 32.3815 21.4436C31.6293 21.91 30.8071 22.2757 29.9151 22.5406C29.0231 22.795 28.0774 22.9222 27.078 22.9222C26.1107 22.9222 25.1865 22.8003 24.3053 22.5565C23.4348 22.3127 22.618 21.9736 21.855 21.539C21.0919 21.0939 20.3988 20.5639 19.7755 19.9492C19.1629 19.3239 18.6363 18.6349 18.1957 17.8824C17.7658 17.1193 17.4273 16.3032 17.1801 15.4341C16.9437 14.565 16.8254 13.6588 16.8254 12.7155C16.8254 11.7934 16.9383 10.8925 17.164 10.0128C17.3896 9.12245 17.7121 8.28514 18.1312 7.50082C18.5611 6.71651 19.0769 5.99578 19.6787 5.33865C20.2806 4.68152 20.9522 4.11449 21.6938 3.63754C22.4461 3.16059 23.2574 2.78963 24.1279 2.52465C24.9984 2.25968 25.9173 2.1272 26.8845 2.1272C28.4428 2.1272 29.8614 2.36567 31.1403 2.84262C32.4299 3.31957 33.5261 4.0032 34.4288 4.8935C35.3423 5.77321 36.0462 6.84369 36.5406 8.10496C37.0457 9.35563 37.2982 10.7547 37.2982 12.3021ZM30.1408 12.7155C30.1408 12.2597 30.071 11.8199 29.9313 11.3959C29.8023 10.9614 29.6088 10.5798 29.3509 10.2512C29.093 9.91207 28.7706 9.6418 28.3837 9.44042C28.0076 9.22844 27.5723 9.12245 27.078 9.12245C26.5729 9.12245 26.1215 9.21254 25.7239 9.39272C25.3262 9.5729 24.9823 9.82198 24.6922 10.1399C24.4127 10.4473 24.1978 10.813 24.0473 11.2369C23.8969 11.6503 23.8217 12.0901 23.8217 12.5565C23.8217 13.0016 23.8861 13.4468 24.0151 13.8919C24.1441 14.3371 24.3375 14.7399 24.5954 15.1002C24.8534 15.4606 25.1704 15.752 25.5465 15.9746C25.9334 16.1972 26.3794 16.3085 26.8845 16.3085C27.3896 16.3085 27.841 16.2131 28.2386 16.0223C28.647 15.8209 28.9909 15.556 29.2703 15.2274C29.5497 14.8882 29.7647 14.5014 29.9151 14.0668C30.0656 13.6323 30.1408 13.1818 30.1408 12.7155Z" fill="#FF903F"/>
<path d="M18.4523 0.791748L18.2911 7.53263L13.4872 7.72341L12.2621 22.795L5.4593 23.1448L5.49154 8.07317L0.687683 8.32754L0.881127 0.823544L18.4523 0.791748Z" fill="#FF903F"/>
</svg>
