<svg width="164" height="164" viewBox="0 0 164 164" fill="none" xmlns="http://www.w3.org/2000/svg">
<circle cx="82" cy="81.999" r="78.99" fill="#F7F7FA" stroke="#E8E8ED" stroke-width="6.01999"/>
<path d="M49.7871 57.6359L52.822 35.0917L63.6608 47.0269L75.8003 24.4827L89.2405 43.4905C100.802 36.8599 122.374 20.4326 122.374 20.4326L117.656 51.0217L149.504 67.8029L116.121 72.6654L136.064 110.681L91.4082 100.072L95.3102 126.595L66.6957 96.5357L45.018 114.659V94.7675L18.5713 98.3039L38.0812 72.6654L21.6062 55.4257L49.7871 57.6359Z" fill="#E8E8ED"/>
<path d="M45.1602 78.291H113.618L107.861 136.943H52.068L45.1602 78.291Z" fill="#F5D4BC"/>
<rect x="75.8994" y="78.291" width="6.9772" height="58.6519" fill="#D4AF95"/>
<mask id="mask0_2643_6354" style="mask-type:alpha" maskUnits="userSpaceOnUse" x="45" y="78" width="69" height="59">
<path d="M45.1602 78.291H113.618L107.861 136.943H52.068L45.1602 78.291Z" fill="#FF903F"/>
</mask>
<g mask="url(#mask0_2643_6354)">
<rect x="112.65" y="95.0029" width="7.91321" height="66.5202" transform="rotate(90 112.65 95.0029)" fill="#D4AF95"/>
</g>
<path d="M75.37 52.8369L57.3076 64.5927L75.904 78.2867H79.2285L75.37 52.8369Z" fill="#D4AF95"/>
<path d="M82.0082 49.2314L78.8304 82.3278L82.8796 78.2956L94.4087 54.9552L82.0082 49.2314Z" fill="#D4AF95"/>
<path d="M74.2333 26.5847L73.1515 43.8451L67.79 44.0803L67.837 34.9797L65.4149 42.3166H63.3455L61.4878 35.7558L61.4643 43.3748L56.0322 43.5394L56.2674 27.2901L62.3109 27.055L64.7094 34.8386L67.9076 26.5847H74.2333ZM88.7725 34.7211C88.7725 35.4344 88.6902 36.1242 88.5256 36.7904C88.361 37.4489 88.1219 38.0681 87.8084 38.6482C87.5026 39.2282 87.1264 39.7612 86.6796 40.2472C86.2406 40.7254 85.7429 41.1369 85.1864 41.4818C84.6377 41.8267 84.038 42.0971 83.3874 42.2931C82.7368 42.4812 82.047 42.5753 81.318 42.5753C80.6126 42.5753 79.9385 42.4851 79.2957 42.3048C78.6608 42.1246 78.0651 41.8737 77.5085 41.5523C76.952 41.2231 76.4464 40.8312 75.9918 40.3766C75.545 39.9141 75.1609 39.4046 74.8395 38.8481C74.526 38.2837 74.279 37.6801 74.0988 37.0374C73.9263 36.3946 73.8401 35.7244 73.8401 35.0268C73.8401 34.3448 73.9224 33.6785 74.087 33.0279C74.2516 32.3695 74.4868 31.7503 74.7925 31.1702C75.106 30.5902 75.4823 30.0571 75.9212 29.5711C76.3602 29.0852 76.8501 28.6658 77.3909 28.3131C77.9396 27.9603 78.5314 27.686 79.1664 27.49C79.8013 27.2941 80.4715 27.1961 81.177 27.1961C82.3135 27.1961 83.3482 27.3724 84.281 27.7252C85.2216 28.0779 86.0212 28.5835 86.6796 29.2419C87.3459 29.8925 87.8593 30.6842 88.2199 31.617C88.5883 32.542 88.7725 33.5766 88.7725 34.7211ZM83.552 35.0268C83.552 34.6897 83.5011 34.3644 83.3992 34.0509C83.3051 33.7295 83.164 33.4473 82.9759 33.2043C82.7878 32.9535 82.5526 32.7536 82.2704 32.6047C81.9961 32.4479 81.6786 32.3695 81.318 32.3695C80.9496 32.3695 80.6204 32.4361 80.3304 32.5694C80.0404 32.7026 79.7895 32.8868 79.5779 33.122C79.3741 33.3493 79.2173 33.6198 79.1076 33.9333C78.9978 34.239 78.943 34.5643 78.943 34.9092C78.943 35.2384 78.99 35.5676 79.0841 35.8968C79.1781 36.2261 79.3192 36.5239 79.5073 36.7904C79.6955 37.0569 79.9267 37.2725 80.2011 37.4371C80.4832 37.6017 80.8085 37.684 81.177 37.684C81.5454 37.684 81.8746 37.6135 82.1646 37.4724C82.4625 37.3235 82.7133 37.1275 82.9171 36.8845C83.1209 36.6337 83.2777 36.3476 83.3874 36.0262C83.4972 35.7048 83.552 35.3717 83.552 35.0268ZM103.323 37.7781C103.323 38.6638 103.312 39.5418 103.288 40.4118C103.273 41.2741 103.245 42.1442 103.206 43.0221L96.4334 42.9045C96.6686 41.5171 96.8724 40.1336 97.0448 38.754C97.2173 37.3666 97.3035 35.9674 97.3035 34.5565C97.3035 34.4546 97.2996 34.2899 97.2917 34.0626C97.2839 33.8353 97.2682 33.5806 97.2447 33.2984C97.2212 33.0083 97.1859 32.7144 97.1389 32.4165C97.0997 32.1108 97.0409 31.8326 96.9625 31.5817C96.892 31.3309 96.8018 31.1271 96.6921 30.9703C96.5902 30.8057 96.4648 30.7234 96.3158 30.7234C96.0493 30.7234 95.822 30.8018 95.6339 30.9586C95.4536 31.1153 95.3007 31.3191 95.1753 31.57C95.0577 31.813 94.9637 32.0873 94.8931 32.393C94.8226 32.6987 94.7677 33.0044 94.7285 33.3101C94.6972 33.6158 94.6737 33.9059 94.658 34.1802C94.6501 34.4467 94.6462 34.6662 94.6462 34.8386C94.607 36.2261 94.5757 37.6056 94.5522 38.9774C94.5286 40.3413 94.4973 41.7209 94.4581 43.1161L88.4616 43.3748C88.6184 40.6078 88.7673 37.8565 88.9084 35.1208C89.0573 32.3852 89.1749 29.6339 89.2611 26.8669L94.8108 26.5847L94.7638 28.4659C94.9833 28.1994 95.2184 27.9486 95.4693 27.7134C95.7279 27.4783 96.0023 27.2784 96.2923 27.1138C96.5823 26.9413 96.888 26.8081 97.2094 26.714C97.5386 26.6121 97.8835 26.5612 98.2441 26.5612C98.9104 26.5612 99.4943 26.6709 99.996 26.8904C100.498 27.1099 100.929 27.4077 101.289 27.784C101.65 28.1602 101.952 28.607 102.195 29.1244C102.438 29.6339 102.634 30.1786 102.783 30.7587C102.932 31.3387 103.045 31.9462 103.124 32.5811C103.202 33.2082 103.253 33.8275 103.276 34.4389C103.308 35.0503 103.323 35.6421 103.323 36.2143C103.323 36.7865 103.323 37.3078 103.323 37.7781Z" fill="#CECECE"/>
</svg>
