<svg width="960" height="82" viewBox="0 0 960 82" fill="none" xmlns="http://www.w3.org/2000/svg">
<rect width="960" height="82" rx="12.5948" fill="white"/>
<path d="M224.237 43.1328H215.144V41.5234H224.237V43.1328ZM226.777 52.5625H213.808V50.9453H226.777V52.5625ZM225.175 43.3203C225.175 44.1641 225.165 44.888 225.144 45.4922C225.128 46.0964 225.084 46.7839 225.011 47.5547C224.938 48.3203 224.823 49.1562 224.667 50.0625L222.644 49.8984C222.81 49.0599 222.93 48.2656 223.003 47.5156C223.081 46.7604 223.131 46.0859 223.152 45.4922C223.172 44.8932 223.183 44.1667 223.183 43.3125V43.2266V41.5234H225.175V43.2266V43.3203ZM239.207 48.6641H237.214V40.2344H239.207V48.6641ZM229.308 46.5391C230.834 46.5495 232.079 46.5286 233.042 46.4766C234.011 46.4245 234.99 46.3177 235.98 46.1562L236.222 47.7578C235.186 47.9193 234.152 48.0286 233.121 48.0859C232.089 48.1432 230.819 48.1719 229.308 48.1719H228.058V46.5391H229.308ZM234.628 45.3125H230.019V47.5391H228.058V43.7891H232.66V42.6094H228.042V41.0469H234.628V45.3125ZM239.207 54.2812H229.683V49.2812H239.207V54.2812ZM231.644 52.6797H237.253V50.8672H231.644V52.6797ZM248.965 47.2422H246.66V45.6094H248.965V47.2422ZM244.879 44.5391C244.874 45.5755 244.762 46.5599 244.543 47.4922C244.324 48.4193 243.975 49.2552 243.496 50C243.022 50.7448 242.42 51.3281 241.691 51.75L240.551 50.2578C241.202 49.8724 241.738 49.3776 242.16 48.7734C242.582 48.1693 242.889 47.5104 243.082 46.7969C243.275 46.0781 243.374 45.3255 243.379 44.5391V44.1406H244.879V44.5391ZM245.246 44.5391C245.251 45.3047 245.347 46.0286 245.535 46.7109C245.728 47.388 246.032 48.0104 246.449 48.5781C246.871 49.1458 247.405 49.6016 248.051 49.9453L246.957 51.4062C246.217 51.0312 245.608 50.4922 245.129 49.7891C244.65 49.0859 244.298 48.2891 244.074 47.3984C243.855 46.5078 243.749 45.5547 243.754 44.5391V44.1406H245.246V44.5391ZM247.496 44.2266H241.082V42.625H247.496V44.2266ZM245.238 43.9141H243.379V40.7031H245.238V43.9141ZM253.105 54.4375H251.23V40.2031H253.105V54.4375ZM250.199 53.7891H248.332V40.4531H250.199V53.7891ZM268.379 44.8672H265.036V43.25H268.379V44.8672ZM262.629 42.6406C262.624 43.6302 262.478 44.5443 262.192 45.3828C261.905 46.2161 261.468 46.9453 260.879 47.5703C260.291 48.1901 259.562 48.6589 258.692 48.9766L257.614 47.3984C258.379 47.1484 259.017 46.7839 259.528 46.3047C260.038 45.8203 260.413 45.2682 260.653 44.6484C260.898 44.0234 261.02 43.3542 261.02 42.6406V41.0938H262.629V42.6406ZM263.028 42.6562C263.028 43.2969 263.145 43.9062 263.379 44.4844C263.619 45.0573 263.978 45.5729 264.458 46.0312C264.942 46.4896 265.551 46.8411 266.286 47.0859L265.2 48.6328C264.372 48.3255 263.676 47.8776 263.114 47.2891C262.556 46.6953 262.137 46.0052 261.856 45.2188C261.58 44.4323 261.442 43.5781 261.442 42.6562V41.0938H263.028V42.6562ZM269.692 50.7344H267.708V40.2344H269.692V50.7344ZM269.997 54.1953H260.223V52.5859H269.997V54.1953ZM262.239 53.4609H260.223V49.6328H262.239V53.4609ZM272.677 46.7266C273.828 46.7214 274.765 46.6979 275.489 46.6562C276.218 46.6146 276.95 46.5286 277.684 46.3984L277.88 48.0078C277.098 48.1432 276.33 48.2344 275.575 48.2812C274.82 48.3281 273.854 48.3516 272.677 48.3516H271.716V46.7266H272.677ZM277.333 42.7656H273.622V47.6094H271.716V41.1641H277.333V42.7656ZM277.2 45.4531H273.052V43.9453H277.2V45.4531ZM283.434 48.8984H281.536V40.2344H283.434V48.8984ZM282.075 45.2969H279.77V43.7031H282.075V45.2969ZM280.302 48.8047H278.458V40.4766H280.302V48.8047ZM283.434 54.4375H281.458V51.0859H273.606V49.4922H283.434V54.4375Z" fill="#FF903F"/>
<path d="M373.319 48.125H360.538V46.8984H373.319V48.125ZM371.835 45.6797H362.14V44.4844H371.835V45.6797ZM371.749 42.0469H363.601V45.0703H362.14V40.8281H371.749V42.0469ZM366.913 49.2188C367.913 49.2188 368.775 49.3177 369.499 49.5156C370.223 49.7135 370.778 50.0052 371.163 50.3906C371.549 50.7708 371.744 51.2266 371.749 51.7578C371.744 52.2995 371.549 52.7604 371.163 53.1406C370.783 53.5208 370.228 53.8099 369.499 54.0078C368.775 54.2057 367.913 54.3047 366.913 54.3047C365.903 54.3047 365.033 54.2057 364.304 54.0078C363.575 53.8099 363.017 53.5208 362.632 53.1406C362.246 52.7604 362.054 52.2995 362.054 51.7578C362.054 51.2266 362.246 50.7708 362.632 50.3906C363.017 50.0052 363.575 49.7135 364.304 49.5156C365.033 49.3177 365.903 49.2188 366.913 49.2188ZM366.913 50.3594C366.2 50.3646 365.593 50.4219 365.093 50.5312C364.593 50.6406 364.21 50.7995 363.944 51.0078C363.684 51.2161 363.556 51.4661 363.562 51.7578C363.556 52.0547 363.684 52.3073 363.944 52.5156C364.21 52.724 364.593 52.8828 365.093 52.9922C365.593 53.0964 366.2 53.1484 366.913 53.1484C367.621 53.1484 368.226 53.0964 368.726 52.9922C369.226 52.8828 369.606 52.724 369.866 52.5156C370.127 52.3073 370.257 52.0547 370.257 51.7578C370.257 51.4661 370.124 51.2161 369.858 51.0078C369.598 50.7995 369.218 50.6406 368.718 50.5312C368.218 50.4219 367.616 50.3646 366.913 50.3594ZM378.656 42.9219C378.656 43.7865 378.497 44.5964 378.179 45.3516C377.867 46.1068 377.411 46.763 376.812 47.3203C376.218 47.8776 375.512 48.2969 374.695 48.5781L373.945 47.3984C374.658 47.1589 375.278 46.8099 375.804 46.3516C376.335 45.8932 376.742 45.3698 377.023 44.7812C377.309 44.1927 377.455 43.5729 377.46 42.9219V41.8516H378.656V42.9219ZM378.929 42.9141C378.929 43.5078 379.064 44.0729 379.335 44.6094C379.606 45.1458 379.994 45.6224 380.499 46.0391C381.005 46.4505 381.604 46.7656 382.296 46.9844L381.593 48.1484C380.791 47.888 380.101 47.5 379.523 46.9844C378.945 46.4635 378.499 45.8568 378.187 45.1641C377.88 44.4661 377.726 43.7161 377.726 42.9141V41.8516H378.929V42.9141ZM381.96 42.5312H374.374V41.3281H381.96V42.5312ZM385.046 48.7266H383.57V40.3203H385.046V48.7266ZM387.085 45.0156H384.632V43.7891H387.085V45.0156ZM380.523 49.0703C381.481 49.0703 382.309 49.1719 383.007 49.375C383.71 49.5781 384.247 49.875 384.617 50.2656C384.986 50.6562 385.171 51.125 385.171 51.6719C385.171 52.2188 384.986 52.6875 384.617 53.0781C384.247 53.474 383.71 53.776 383.007 53.9844C382.309 54.1979 381.481 54.3047 380.523 54.3047C379.559 54.3047 378.723 54.1979 378.015 53.9844C377.312 53.776 376.77 53.474 376.39 53.0781C376.015 52.6875 375.827 52.2188 375.827 51.6719C375.827 51.125 376.015 50.6562 376.39 50.2656C376.77 49.875 377.312 49.5781 378.015 49.375C378.723 49.1719 379.559 49.0703 380.523 49.0703ZM380.523 50.2422C379.856 50.2422 379.281 50.2969 378.796 50.4062C378.317 50.5156 377.95 50.6797 377.695 50.8984C377.439 51.1172 377.314 51.375 377.32 51.6719C377.314 51.9792 377.439 52.2422 377.695 52.4609C377.95 52.6797 378.317 52.8464 378.796 52.9609C379.275 53.0755 379.851 53.1328 380.523 53.1328C381.195 53.1328 381.77 53.0755 382.249 52.9609C382.729 52.8464 383.093 52.6797 383.343 52.4609C383.598 52.2422 383.726 51.9792 383.726 51.6719C383.726 51.3698 383.598 51.112 383.343 50.8984C383.093 50.6797 382.729 50.5156 382.249 50.4062C381.77 50.2969 381.195 50.2422 380.523 50.2422ZM399.164 50.5156H397.687V40.3359H399.164V50.5156ZM399.586 54.0469H390.015V52.8203H399.586V54.0469ZM391.5 53.2656H390.015V49.4844H391.5V53.2656ZM391.57 41.2812C392.268 41.2812 392.901 41.4297 393.468 41.7266C394.036 42.0234 394.481 42.4349 394.804 42.9609C395.132 43.487 395.297 44.0833 395.297 44.75C395.297 45.4219 395.132 46.0234 394.804 46.5547C394.481 47.0807 394.036 47.4922 393.468 47.7891C392.901 48.0859 392.268 48.2344 391.57 48.2344C390.872 48.2344 390.239 48.0859 389.672 47.7891C389.109 47.4922 388.664 47.0807 388.336 46.5547C388.007 46.0234 387.843 45.4219 387.843 44.75C387.843 44.0833 388.007 43.487 388.336 42.9609C388.664 42.4349 389.109 42.0234 389.672 41.7266C390.239 41.4297 390.872 41.2812 391.57 41.2812ZM391.57 42.5781C391.138 42.5781 390.747 42.6693 390.398 42.8516C390.054 43.0339 389.784 43.2891 389.586 43.6172C389.388 43.9453 389.291 44.3229 389.297 44.75C389.291 45.1823 389.388 45.5651 389.586 45.8984C389.784 46.2266 390.054 46.4818 390.398 46.6641C390.747 46.8464 391.138 46.9375 391.57 46.9375C391.997 46.9375 392.382 46.8464 392.726 46.6641C393.07 46.4818 393.341 46.2266 393.539 45.8984C393.737 45.5651 393.836 45.1823 393.836 44.75C393.836 44.3229 393.737 43.9453 393.539 43.6172C393.341 43.2891 393.07 43.0339 392.726 42.8516C392.382 42.6693 391.997 42.5781 391.57 42.5781ZM408.164 49.0625H406.688V46.9609H408.164V49.0625ZM413.828 47.3125H401.062V46.125H413.828V47.3125ZM412.18 45.0938H402.688V40.7734H412.18V45.0938ZM404.156 43.9219H410.703V41.9453H404.156V43.9219ZM412.211 51.8203H404.07V53.3984H402.609V50.7344H410.758V49.6641H402.586V48.5312H412.211V51.8203ZM412.617 54.1875H402.609V53.0391H412.617V54.1875ZM428.868 44.75H425.391V43.5234H428.868V44.75ZM422.821 42.8516C422.816 43.7682 422.659 44.625 422.352 45.4219C422.045 46.2135 421.597 46.9062 421.008 47.5C420.425 48.0938 419.732 48.5469 418.93 48.8594L418.133 47.6641C418.847 47.4089 419.467 47.0391 419.993 46.5547C420.524 46.0651 420.928 45.5026 421.204 44.8672C421.485 44.2266 421.626 43.5547 421.626 42.8516V41.1875H422.821V42.8516ZM423.094 42.8828C423.094 43.5234 423.23 44.1406 423.501 44.7344C423.777 45.3229 424.167 45.8464 424.673 46.3047C425.183 46.763 425.784 47.1146 426.477 47.3594L425.657 48.5156C424.891 48.2188 424.225 47.7917 423.657 47.2344C423.094 46.6719 422.662 46.0182 422.36 45.2734C422.063 44.5286 421.915 43.7318 421.915 42.8828V41.1875H423.094V42.8828ZM429.829 50.7734H428.344V40.3359H429.829V50.7734ZM430.141 54.0469H420.68V52.8203H430.141V54.0469ZM422.18 53.4141H420.68V49.6172H422.18V53.4141ZM433.149 46.9375C434.3 46.9375 435.243 46.9141 435.978 46.8672C436.717 46.8151 437.459 46.7188 438.204 46.5781L438.353 47.7969C437.576 47.9427 436.813 48.0417 436.063 48.0938C435.319 48.1406 434.347 48.1667 433.149 48.1719H432.251V46.9375H433.149ZM437.712 42.5391H433.665V47.6016H432.251V41.3125H437.712V42.5391ZM437.563 45.2344H433.228V44.0859H437.563V45.2344ZM443.603 48.8438H442.188V40.3359H443.603V48.8438ZM442.618 45.1094H440.071V43.9141H442.618V45.1094ZM440.478 48.75H439.103V40.5938H440.478V48.75ZM443.603 54.3203H442.142V50.7188H434.087V49.5156H443.603V54.3203Z" fill="#A9ABB8"/>
<path d="M534.573 48.125H521.792V46.8984H534.573V48.125ZM533.089 45.6797H523.394V44.4844H533.089V45.6797ZM533.003 42.0469H524.855V45.0703H523.394V40.8281H533.003V42.0469ZM528.167 49.2188C529.167 49.2188 530.029 49.3177 530.753 49.5156C531.477 49.7135 532.032 50.0052 532.417 50.3906C532.803 50.7708 532.998 51.2266 533.003 51.7578C532.998 52.2995 532.803 52.7604 532.417 53.1406C532.037 53.5208 531.482 53.8099 530.753 54.0078C530.029 54.2057 529.167 54.3047 528.167 54.3047C527.157 54.3047 526.287 54.2057 525.558 54.0078C524.829 53.8099 524.271 53.5208 523.886 53.1406C523.501 52.7604 523.308 52.2995 523.308 51.7578C523.308 51.2266 523.501 50.7708 523.886 50.3906C524.271 50.0052 524.829 49.7135 525.558 49.5156C526.287 49.3177 527.157 49.2188 528.167 49.2188ZM528.167 50.3594C527.454 50.3646 526.847 50.4219 526.347 50.5312C525.847 50.6406 525.464 50.7995 525.198 51.0078C524.938 51.2161 524.81 51.4661 524.816 51.7578C524.81 52.0547 524.938 52.3073 525.198 52.5156C525.464 52.724 525.847 52.8828 526.347 52.9922C526.847 53.0964 527.454 53.1484 528.167 53.1484C528.876 53.1484 529.48 53.0964 529.98 52.9922C530.48 52.8828 530.86 52.724 531.12 52.5156C531.381 52.3073 531.511 52.0547 531.511 51.7578C531.511 51.4661 531.378 51.2161 531.112 51.0078C530.852 50.7995 530.472 50.6406 529.972 50.5312C529.472 50.4219 528.87 50.3646 528.167 50.3594ZM539.91 42.9219C539.91 43.7865 539.751 44.5964 539.433 45.3516C539.121 46.1068 538.665 46.763 538.066 47.3203C537.472 47.8776 536.766 48.2969 535.949 48.5781L535.199 47.3984C535.912 47.1589 536.532 46.8099 537.058 46.3516C537.589 45.8932 537.996 45.3698 538.277 44.7812C538.563 44.1927 538.709 43.5729 538.714 42.9219V41.8516H539.91V42.9219ZM540.183 42.9141C540.183 43.5078 540.319 44.0729 540.589 44.6094C540.86 45.1458 541.248 45.6224 541.753 46.0391C542.259 46.4505 542.858 46.7656 543.55 46.9844L542.847 48.1484C542.045 47.888 541.355 47.5 540.777 46.9844C540.199 46.4635 539.753 45.8568 539.441 45.1641C539.134 44.4661 538.98 43.7161 538.98 42.9141V41.8516H540.183V42.9141ZM543.214 42.5312H535.628V41.3281H543.214V42.5312ZM546.3 48.7266H544.824V40.3203H546.3V48.7266ZM548.339 45.0156H545.886V43.7891H548.339V45.0156ZM541.777 49.0703C542.735 49.0703 543.563 49.1719 544.261 49.375C544.964 49.5781 545.501 49.875 545.871 50.2656C546.24 50.6562 546.425 51.125 546.425 51.6719C546.425 52.2188 546.24 52.6875 545.871 53.0781C545.501 53.474 544.964 53.776 544.261 53.9844C543.563 54.1979 542.735 54.3047 541.777 54.3047C540.813 54.3047 539.977 54.1979 539.269 53.9844C538.566 53.776 538.024 53.474 537.644 53.0781C537.269 52.6875 537.082 52.2188 537.082 51.6719C537.082 51.125 537.269 50.6562 537.644 50.2656C538.024 49.875 538.566 49.5781 539.269 49.375C539.977 49.1719 540.813 49.0703 541.777 49.0703ZM541.777 50.2422C541.11 50.2422 540.535 50.2969 540.05 50.4062C539.571 50.5156 539.204 50.6797 538.949 50.8984C538.694 51.1172 538.569 51.375 538.574 51.6719C538.569 51.9792 538.694 52.2422 538.949 52.4609C539.204 52.6797 539.571 52.8464 540.05 52.9609C540.529 53.0755 541.105 53.1328 541.777 53.1328C542.449 53.1328 543.024 53.0755 543.503 52.9609C543.983 52.8464 544.347 52.6797 544.597 52.4609C544.852 52.2422 544.98 51.9792 544.98 51.6719C544.98 51.3698 544.852 51.112 544.597 50.8984C544.347 50.6797 543.983 50.5156 543.503 50.4062C543.024 50.2969 542.449 50.2422 541.777 50.2422ZM560.418 50.5156H558.941V40.3359H560.418V50.5156ZM560.84 54.0469H551.269V52.8203H560.84V54.0469ZM552.754 53.2656H551.269V49.4844H552.754V53.2656ZM552.824 41.2812C553.522 41.2812 554.155 41.4297 554.722 41.7266C555.29 42.0234 555.736 42.4349 556.058 42.9609C556.387 43.487 556.551 44.0833 556.551 44.75C556.551 45.4219 556.387 46.0234 556.058 46.5547C555.736 47.0807 555.29 47.4922 554.722 47.7891C554.155 48.0859 553.522 48.2344 552.824 48.2344C552.126 48.2344 551.493 48.0859 550.926 47.7891C550.363 47.4922 549.918 47.0807 549.59 46.5547C549.262 46.0234 549.097 45.4219 549.097 44.75C549.097 44.0833 549.262 43.487 549.59 42.9609C549.918 42.4349 550.363 42.0234 550.926 41.7266C551.493 41.4297 552.126 41.2812 552.824 41.2812ZM552.824 42.5781C552.392 42.5781 552.001 42.6693 551.652 42.8516C551.308 43.0339 551.038 43.2891 550.84 43.6172C550.642 43.9453 550.545 44.3229 550.551 44.75C550.545 45.1823 550.642 45.5651 550.84 45.8984C551.038 46.2266 551.308 46.4818 551.652 46.6641C552.001 46.8464 552.392 46.9375 552.824 46.9375C553.251 46.9375 553.637 46.8464 553.98 46.6641C554.324 46.4818 554.595 46.2266 554.793 45.8984C554.991 45.5651 555.09 45.1823 555.09 44.75C555.09 44.3229 554.991 43.9453 554.793 43.6172C554.595 43.2891 554.324 43.0339 553.98 42.8516C553.637 42.6693 553.251 42.5781 552.824 42.5781ZM569.418 49.0625H567.942V46.9609H569.418V49.0625ZM575.082 47.3125H562.317V46.125H575.082V47.3125ZM573.434 45.0938H563.942V40.7734H573.434V45.0938ZM565.41 43.9219H571.957V41.9453H565.41V43.9219ZM573.465 51.8203H565.324V53.3984H563.863V50.7344H572.012V49.6641H563.84V48.5312H573.465V51.8203ZM573.871 54.1875H563.863V53.0391H573.871V54.1875ZM586.333 41.5547C586.333 42.4193 586.075 43.2161 585.559 43.9453C585.049 44.6745 584.359 45.2812 583.489 45.7656C582.619 46.25 581.661 46.5729 580.614 46.7344L580.02 45.5391C580.932 45.4141 581.77 45.1562 582.536 44.7656C583.307 44.3698 583.914 43.8932 584.356 43.3359C584.804 42.7734 585.028 42.1797 585.028 41.5547V40.7969H586.333V41.5547ZM586.567 41.5547C586.567 42.1693 586.794 42.7604 587.247 43.3281C587.705 43.8906 588.317 44.3698 589.083 44.7656C589.854 45.1562 590.692 45.4141 591.598 45.5391L591.013 46.7344C589.96 46.5729 588.999 46.25 588.13 45.7656C587.26 45.276 586.567 44.6667 586.052 43.9375C585.536 43.2083 585.278 42.4141 585.278 41.5547V40.7969H586.567V41.5547ZM586.497 54.3203H585.036V49.0469H586.497V54.3203ZM592.177 49.3516H579.411V48.1172H592.177V49.3516Z" fill="#A9ABB8"/>
<path d="M682.894 51.625H681.441V48.2109H682.894V51.625ZM682.175 41.1719C683.165 41.1719 684.053 41.3281 684.839 41.6406C685.626 41.9479 686.237 42.3854 686.675 42.9531C687.118 43.5156 687.339 44.1641 687.339 44.8984C687.339 45.6432 687.118 46.2969 686.675 46.8594C686.237 47.4219 685.626 47.8594 684.839 48.1719C684.053 48.4792 683.165 48.6328 682.175 48.6328C681.18 48.6328 680.292 48.4792 679.511 48.1719C678.735 47.8594 678.123 47.4219 677.675 46.8594C677.227 46.2969 677.003 45.6432 677.003 44.8984C677.003 44.1641 677.227 43.5156 677.675 42.9531C678.123 42.3854 678.735 41.9479 679.511 41.6406C680.292 41.3281 681.18 41.1719 682.175 41.1719ZM682.175 42.375C681.456 42.375 680.813 42.4792 680.245 42.6875C679.683 42.8958 679.243 43.1927 678.925 43.5781C678.612 43.9583 678.456 44.3984 678.456 44.8984C678.456 45.4089 678.612 45.8568 678.925 46.2422C679.243 46.6224 679.683 46.9193 680.245 47.1328C680.808 47.3411 681.451 47.4453 682.175 47.4453C682.899 47.4453 683.54 47.3411 684.097 47.1328C684.659 46.9193 685.099 46.6224 685.417 46.2422C685.735 45.8568 685.894 45.4089 685.894 44.8984C685.894 44.3984 685.735 43.9583 685.417 43.5781C685.099 43.1927 684.659 42.8958 684.097 42.6875C683.534 42.4792 682.894 42.375 682.175 42.375ZM688.605 52.5781H675.792V51.3516H688.605V52.5781ZM700.605 44.7188H690.98V43.5156H700.605V44.7188ZM702.097 47.1406H689.285V45.9531H702.097V47.1406ZM692.449 44.1094H690.98V40.5391H692.449V44.1094ZM700.488 51.6875H692.363V53.3359H690.871V50.5859H699.027V49.4141H690.839V48.2656H700.488V51.6875ZM700.972 54.1484H690.871V52.9766H700.972V54.1484ZM707.379 41.3125C708.103 41.3125 708.754 41.4557 709.332 41.7422C709.91 42.0234 710.361 42.4193 710.683 42.9297C711.012 43.4349 711.176 44.0104 711.176 44.6562C711.176 45.3021 711.012 45.8802 710.683 46.3906C710.361 46.8958 709.91 47.2917 709.332 47.5781C708.754 47.8594 708.103 48 707.379 48C706.644 48 705.986 47.8594 705.402 47.5781C704.824 47.2917 704.371 46.8958 704.043 46.3906C703.72 45.8802 703.558 45.3021 703.558 44.6562C703.558 44.0104 703.72 43.4349 704.043 42.9297C704.371 42.4193 704.824 42.0234 705.402 41.7422C705.986 41.4557 706.644 41.3125 707.379 41.3125ZM707.379 42.6094C706.926 42.6094 706.519 42.6927 706.16 42.8594C705.806 43.026 705.527 43.2682 705.324 43.5859C705.121 43.8984 705.019 44.2552 705.019 44.6562C705.019 45.0625 705.121 45.4193 705.324 45.7266C705.527 46.0339 705.806 46.2734 706.16 46.4453C706.519 46.6172 706.926 46.7031 707.379 46.7031C707.827 46.7031 708.23 46.6172 708.59 46.4453C708.949 46.2734 709.228 46.0339 709.426 45.7266C709.629 45.4193 709.73 45.0625 709.73 44.6562C709.73 44.2552 709.629 43.8984 709.426 43.5859C709.228 43.2682 708.949 43.026 708.59 42.8594C708.23 42.6927 707.827 42.6094 707.379 42.6094ZM714.387 54.3594H712.91V40.3203H714.387V54.3594ZM702.879 50.1094C704.603 50.1094 706.22 50.0807 707.73 50.0234C709.241 49.9661 710.673 49.8385 712.027 49.6406L712.137 50.7266C711.163 50.9089 710.147 51.0443 709.09 51.1328C708.038 51.2214 707.051 51.2786 706.129 51.3047C705.207 51.3307 704.189 51.3438 703.074 51.3438L702.879 50.1094ZM723.872 40.8047C724.569 40.8047 725.197 40.9375 725.754 41.2031C726.317 41.4688 726.754 41.8411 727.067 42.3203C727.379 42.7995 727.536 43.3385 727.536 43.9375C727.536 44.5417 727.379 45.0807 727.067 45.5547C726.754 46.0286 726.317 46.3984 725.754 46.6641C725.197 46.9297 724.569 47.0625 723.872 47.0625C723.168 47.0625 722.536 46.9297 721.973 46.6641C721.416 46.3984 720.978 46.0286 720.661 45.5547C720.348 45.0807 720.192 44.5417 720.192 43.9375C720.192 43.3385 720.348 42.7995 720.661 42.3203C720.978 41.8411 721.418 41.4688 721.981 41.2031C722.543 40.9375 723.174 40.8047 723.872 40.8047ZM723.872 42.0391C723.444 42.0391 723.059 42.1172 722.715 42.2734C722.377 42.4297 722.111 42.6536 721.918 42.9453C721.731 43.2318 721.64 43.5625 721.645 43.9375C721.64 44.3177 721.731 44.6536 721.918 44.9453C722.111 45.2318 722.377 45.4557 722.715 45.6172C723.059 45.7786 723.444 45.8594 723.872 45.8594C724.299 45.8594 724.681 45.7786 725.02 45.6172C725.359 45.4557 725.624 45.2318 725.817 44.9453C726.01 44.6536 726.106 44.3177 726.106 43.9375C726.106 43.5625 726.01 43.2318 725.817 42.9453C725.624 42.6536 725.359 42.4297 725.02 42.2734C724.681 42.1172 724.299 42.0391 723.872 42.0391ZM731.512 47.4609H730.036V40.3203H731.512V47.4609ZM731.512 51.6172H723.801V53.6016H722.348V50.5234H730.043V49.2734H722.317V48.1016H731.512V51.6172ZM731.981 54.1484H722.348V52.9688H731.981V54.1484ZM745.052 54.3203H743.552V40.3203H745.052V54.3203ZM740.895 41.8281C740.89 43.2552 740.669 44.5755 740.231 45.7891C739.794 46.9974 739.091 48.112 738.122 49.1328C737.153 50.1536 735.893 51.0339 734.341 51.7734L733.544 50.5703C734.888 49.9349 735.994 49.1953 736.864 48.3516C737.734 47.5026 738.374 46.5599 738.786 45.5234C739.203 44.4818 739.414 43.3307 739.419 42.0703V41.8281H740.895ZM740.059 43.0156H734.223V41.8281H740.059V43.0156Z" fill="#A9ABB8"/>
<line x1="249" y1="27.65" x2="712" y2="27.65" stroke="url(#paint0_linear_1159_8589)" stroke-width="0.7"/>
<circle cx="248.5" cy="27.5" r="3.5" fill="#FF903F"/>
<circle cx="402.5" cy="27.5" r="2.5" fill="#CDCED6"/>
<circle cx="556.5" cy="27.5" r="2.5" fill="#CDCED6"/>
<circle cx="711.5" cy="27.5" r="2.5" fill="#CDCED6"/>
<defs>
<linearGradient id="paint0_linear_1159_8589" x1="249" y1="28.5" x2="712" y2="28.5" gradientUnits="userSpaceOnUse">
<stop stop-color="#FF903F"/>
<stop offset="0.173228" stop-color="#CDCED6"/>
</linearGradient>
</defs>
</svg>
