<svg width="960" height="82" viewBox="0 0 794 82" fill="none" xmlns="http://www.w3.org/2000/svg">
<rect width="" height="82" rx="12.5948" fill="white"/>
<path d="M135.237 43.1328H126.144V41.5234H135.237V43.1328ZM137.777 52.5625H124.808V50.9453H137.777V52.5625ZM136.175 43.3203C136.175 44.1641 136.165 44.888 136.144 45.4922C136.128 46.0964 136.084 46.7839 136.011 47.5547C135.938 48.3203 135.823 49.1562 135.667 50.0625L133.644 49.8984C133.81 49.0599 133.93 48.2656 134.003 47.5156C134.081 46.7604 134.131 46.0859 134.152 45.4922C134.172 44.8932 134.183 44.1667 134.183 43.3125V43.2266V41.5234H136.175V43.2266V43.3203ZM150.207 48.6641H148.214V40.2344H150.207V48.6641ZM140.308 46.5391C141.834 46.5495 143.079 46.5286 144.042 46.4766C145.011 46.4245 145.99 46.3177 146.98 46.1562L147.222 47.7578C146.186 47.9193 145.152 48.0286 144.121 48.0859C143.089 48.1432 141.819 48.1719 140.308 48.1719H139.058V46.5391H140.308ZM145.628 45.3125H141.019V47.5391H139.058V43.7891H143.66V42.6094H139.042V41.0469H145.628V45.3125ZM150.207 54.2812H140.683V49.2812H150.207V54.2812ZM142.644 52.6797H148.253V50.8672H142.644V52.6797ZM159.965 47.2422H157.66V45.6094H159.965V47.2422ZM155.879 44.5391C155.874 45.5755 155.762 46.5599 155.543 47.4922C155.324 48.4193 154.975 49.2552 154.496 50C154.022 50.7448 153.42 51.3281 152.691 51.75L151.551 50.2578C152.202 49.8724 152.738 49.3776 153.16 48.7734C153.582 48.1693 153.889 47.5104 154.082 46.7969C154.275 46.0781 154.374 45.3255 154.379 44.5391V44.1406H155.879V44.5391ZM156.246 44.5391C156.251 45.3047 156.347 46.0286 156.535 46.7109C156.728 47.388 157.032 48.0104 157.449 48.5781C157.871 49.1458 158.405 49.6016 159.051 49.9453L157.957 51.4062C157.217 51.0312 156.608 50.4922 156.129 49.7891C155.65 49.0859 155.298 48.2891 155.074 47.3984C154.855 46.5078 154.749 45.5547 154.754 44.5391V44.1406H156.246V44.5391ZM158.496 44.2266H152.082V42.625H158.496V44.2266ZM156.238 43.9141H154.379V40.7031H156.238V43.9141ZM164.105 54.4375H162.23V40.2031H164.105V54.4375ZM161.199 53.7891H159.332V40.4531H161.199V53.7891ZM179.379 44.8672H176.036V43.25H179.379V44.8672ZM173.629 42.6406C173.624 43.6302 173.478 44.5443 173.192 45.3828C172.905 46.2161 172.468 46.9453 171.879 47.5703C171.291 48.1901 170.562 48.6589 169.692 48.9766L168.614 47.3984C169.379 47.1484 170.017 46.7839 170.528 46.3047C171.038 45.8203 171.413 45.2682 171.653 44.6484C171.898 44.0234 172.02 43.3542 172.02 42.6406V41.0938H173.629V42.6406ZM174.028 42.6562C174.028 43.2969 174.145 43.9062 174.379 44.4844C174.619 45.0573 174.978 45.5729 175.458 46.0312C175.942 46.4896 176.551 46.8411 177.286 47.0859L176.2 48.6328C175.372 48.3255 174.676 47.8776 174.114 47.2891C173.556 46.6953 173.137 46.0052 172.856 45.2188C172.58 44.4323 172.442 43.5781 172.442 42.6562V41.0938H174.028V42.6562ZM180.692 50.7344H178.708V40.2344H180.692V50.7344ZM180.997 54.1953H171.223V52.5859H180.997V54.1953ZM173.239 53.4609H171.223V49.6328H173.239V53.4609ZM183.677 46.7266C184.828 46.7214 185.765 46.6979 186.489 46.6562C187.218 46.6146 187.95 46.5286 188.684 46.3984L188.88 48.0078C188.098 48.1432 187.33 48.2344 186.575 48.2812C185.82 48.3281 184.854 48.3516 183.677 48.3516H182.716V46.7266H183.677ZM188.333 42.7656H184.622V47.6094H182.716V41.1641H188.333V42.7656ZM188.2 45.4531H184.052V43.9453H188.2V45.4531ZM194.434 48.8984H192.536V40.2344H194.434V48.8984ZM193.075 45.2969H190.77V43.7031H193.075V45.2969ZM191.302 48.8047H189.458V40.4766H191.302V48.8047ZM194.434 54.4375H192.458V51.0859H184.606V49.4922H194.434V54.4375Z" fill="#FF903F"/>
<path d="M284.319 48.125H271.538V46.8984H284.319V48.125ZM282.835 45.6797H273.14V44.4844H282.835V45.6797ZM282.749 42.0469H274.601V45.0703H273.14V40.8281H282.749V42.0469ZM277.913 49.2188C278.913 49.2188 279.775 49.3177 280.499 49.5156C281.223 49.7135 281.778 50.0052 282.163 50.3906C282.549 50.7708 282.744 51.2266 282.749 51.7578C282.744 52.2995 282.549 52.7604 282.163 53.1406C281.783 53.5208 281.228 53.8099 280.499 54.0078C279.775 54.2057 278.913 54.3047 277.913 54.3047C276.903 54.3047 276.033 54.2057 275.304 54.0078C274.575 53.8099 274.017 53.5208 273.632 53.1406C273.246 52.7604 273.054 52.2995 273.054 51.7578C273.054 51.2266 273.246 50.7708 273.632 50.3906C274.017 50.0052 274.575 49.7135 275.304 49.5156C276.033 49.3177 276.903 49.2188 277.913 49.2188ZM277.913 50.3594C277.2 50.3646 276.593 50.4219 276.093 50.5312C275.593 50.6406 275.21 50.7995 274.944 51.0078C274.684 51.2161 274.556 51.4661 274.562 51.7578C274.556 52.0547 274.684 52.3073 274.944 52.5156C275.21 52.724 275.593 52.8828 276.093 52.9922C276.593 53.0964 277.2 53.1484 277.913 53.1484C278.621 53.1484 279.226 53.0964 279.726 52.9922C280.226 52.8828 280.606 52.724 280.866 52.5156C281.127 52.3073 281.257 52.0547 281.257 51.7578C281.257 51.4661 281.124 51.2161 280.858 51.0078C280.598 50.7995 280.218 50.6406 279.718 50.5312C279.218 50.4219 278.616 50.3646 277.913 50.3594ZM289.656 42.9219C289.656 43.7865 289.497 44.5964 289.179 45.3516C288.867 46.1068 288.411 46.763 287.812 47.3203C287.218 47.8776 286.512 48.2969 285.695 48.5781L284.945 47.3984C285.658 47.1589 286.278 46.8099 286.804 46.3516C287.335 45.8932 287.742 45.3698 288.023 44.7812C288.309 44.1927 288.455 43.5729 288.46 42.9219V41.8516H289.656V42.9219ZM289.929 42.9141C289.929 43.5078 290.064 44.0729 290.335 44.6094C290.606 45.1458 290.994 45.6224 291.499 46.0391C292.005 46.4505 292.604 46.7656 293.296 46.9844L292.593 48.1484C291.791 47.888 291.101 47.5 290.523 46.9844C289.945 46.4635 289.499 45.8568 289.187 45.1641C288.88 44.4661 288.726 43.7161 288.726 42.9141V41.8516H289.929V42.9141ZM292.96 42.5312H285.374V41.3281H292.96V42.5312ZM296.046 48.7266H294.57V40.3203H296.046V48.7266ZM298.085 45.0156H295.632V43.7891H298.085V45.0156ZM291.523 49.0703C292.481 49.0703 293.309 49.1719 294.007 49.375C294.71 49.5781 295.247 49.875 295.617 50.2656C295.986 50.6562 296.171 51.125 296.171 51.6719C296.171 52.2188 295.986 52.6875 295.617 53.0781C295.247 53.474 294.71 53.776 294.007 53.9844C293.309 54.1979 292.481 54.3047 291.523 54.3047C290.559 54.3047 289.723 54.1979 289.015 53.9844C288.312 53.776 287.77 53.474 287.39 53.0781C287.015 52.6875 286.827 52.2188 286.827 51.6719C286.827 51.125 287.015 50.6562 287.39 50.2656C287.77 49.875 288.312 49.5781 289.015 49.375C289.723 49.1719 290.559 49.0703 291.523 49.0703ZM291.523 50.2422C290.856 50.2422 290.281 50.2969 289.796 50.4062C289.317 50.5156 288.95 50.6797 288.695 50.8984C288.439 51.1172 288.314 51.375 288.32 51.6719C288.314 51.9792 288.439 52.2422 288.695 52.4609C288.95 52.6797 289.317 52.8464 289.796 52.9609C290.275 53.0755 290.851 53.1328 291.523 53.1328C292.195 53.1328 292.77 53.0755 293.249 52.9609C293.729 52.8464 294.093 52.6797 294.343 52.4609C294.598 52.2422 294.726 51.9792 294.726 51.6719C294.726 51.3698 294.598 51.112 294.343 50.8984C294.093 50.6797 293.729 50.5156 293.249 50.4062C292.77 50.2969 292.195 50.2422 291.523 50.2422ZM310.164 50.5156H308.687V40.3359H310.164V50.5156ZM310.586 54.0469H301.015V52.8203H310.586V54.0469ZM302.5 53.2656H301.015V49.4844H302.5V53.2656ZM302.57 41.2812C303.268 41.2812 303.901 41.4297 304.468 41.7266C305.036 42.0234 305.481 42.4349 305.804 42.9609C306.132 43.487 306.297 44.0833 306.297 44.75C306.297 45.4219 306.132 46.0234 305.804 46.5547C305.481 47.0807 305.036 47.4922 304.468 47.7891C303.901 48.0859 303.268 48.2344 302.57 48.2344C301.872 48.2344 301.239 48.0859 300.672 47.7891C300.109 47.4922 299.664 47.0807 299.336 46.5547C299.007 46.0234 298.843 45.4219 298.843 44.75C298.843 44.0833 299.007 43.487 299.336 42.9609C299.664 42.4349 300.109 42.0234 300.672 41.7266C301.239 41.4297 301.872 41.2812 302.57 41.2812ZM302.57 42.5781C302.138 42.5781 301.747 42.6693 301.398 42.8516C301.054 43.0339 300.784 43.2891 300.586 43.6172C300.388 43.9453 300.291 44.3229 300.297 44.75C300.291 45.1823 300.388 45.5651 300.586 45.8984C300.784 46.2266 301.054 46.4818 301.398 46.6641C301.747 46.8464 302.138 46.9375 302.57 46.9375C302.997 46.9375 303.382 46.8464 303.726 46.6641C304.07 46.4818 304.341 46.2266 304.539 45.8984C304.737 45.5651 304.836 45.1823 304.836 44.75C304.836 44.3229 304.737 43.9453 304.539 43.6172C304.341 43.2891 304.07 43.0339 303.726 42.8516C303.382 42.6693 302.997 42.5781 302.57 42.5781ZM319.164 49.0625H317.688V46.9609H319.164V49.0625ZM324.828 47.3125H312.062V46.125H324.828V47.3125ZM323.18 45.0938H313.688V40.7734H323.18V45.0938ZM315.156 43.9219H321.703V41.9453H315.156V43.9219ZM323.211 51.8203H315.07V53.3984H313.609V50.7344H321.758V49.6641H313.586V48.5312H323.211V51.8203ZM323.617 54.1875H313.609V53.0391H323.617V54.1875ZM339.868 44.75H336.391V43.5234H339.868V44.75ZM333.821 42.8516C333.816 43.7682 333.659 44.625 333.352 45.4219C333.045 46.2135 332.597 46.9062 332.008 47.5C331.425 48.0938 330.732 48.5469 329.93 48.8594L329.133 47.6641C329.847 47.4089 330.467 47.0391 330.993 46.5547C331.524 46.0651 331.928 45.5026 332.204 44.8672C332.485 44.2266 332.626 43.5547 332.626 42.8516V41.1875H333.821V42.8516ZM334.094 42.8828C334.094 43.5234 334.23 44.1406 334.501 44.7344C334.777 45.3229 335.167 45.8464 335.673 46.3047C336.183 46.763 336.784 47.1146 337.477 47.3594L336.657 48.5156C335.891 48.2188 335.225 47.7917 334.657 47.2344C334.094 46.6719 333.662 46.0182 333.36 45.2734C333.063 44.5286 332.915 43.7318 332.915 42.8828V41.1875H334.094V42.8828ZM340.829 50.7734H339.344V40.3359H340.829V50.7734ZM341.141 54.0469H331.68V52.8203H341.141V54.0469ZM333.18 53.4141H331.68V49.6172H333.18V53.4141ZM344.149 46.9375C345.3 46.9375 346.243 46.9141 346.978 46.8672C347.717 46.8151 348.459 46.7188 349.204 46.5781L349.353 47.7969C348.576 47.9427 347.813 48.0417 347.063 48.0938C346.319 48.1406 345.347 48.1667 344.149 48.1719H343.251V46.9375H344.149ZM348.712 42.5391H344.665V47.6016H343.251V41.3125H348.712V42.5391ZM348.563 45.2344H344.228V44.0859H348.563V45.2344ZM354.603 48.8438H353.188V40.3359H354.603V48.8438ZM353.618 45.1094H351.071V43.9141H353.618V45.1094ZM351.478 48.75H350.103V40.5938H351.478V48.75ZM354.603 54.3203H353.142V50.7188H345.087V49.5156H354.603V54.3203Z" fill="#A9ABB8"/>
<path d="M445.573 48.125H432.792V46.8984H445.573V48.125ZM444.089 45.6797H434.394V44.4844H444.089V45.6797ZM444.003 42.0469H435.855V45.0703H434.394V40.8281H444.003V42.0469ZM439.167 49.2188C440.167 49.2188 441.029 49.3177 441.753 49.5156C442.477 49.7135 443.032 50.0052 443.417 50.3906C443.803 50.7708 443.998 51.2266 444.003 51.7578C443.998 52.2995 443.803 52.7604 443.417 53.1406C443.037 53.5208 442.482 53.8099 441.753 54.0078C441.029 54.2057 440.167 54.3047 439.167 54.3047C438.157 54.3047 437.287 54.2057 436.558 54.0078C435.829 53.8099 435.271 53.5208 434.886 53.1406C434.501 52.7604 434.308 52.2995 434.308 51.7578C434.308 51.2266 434.501 50.7708 434.886 50.3906C435.271 50.0052 435.829 49.7135 436.558 49.5156C437.287 49.3177 438.157 49.2188 439.167 49.2188ZM439.167 50.3594C438.454 50.3646 437.847 50.4219 437.347 50.5312C436.847 50.6406 436.464 50.7995 436.198 51.0078C435.938 51.2161 435.81 51.4661 435.816 51.7578C435.81 52.0547 435.938 52.3073 436.198 52.5156C436.464 52.724 436.847 52.8828 437.347 52.9922C437.847 53.0964 438.454 53.1484 439.167 53.1484C439.876 53.1484 440.48 53.0964 440.98 52.9922C441.48 52.8828 441.86 52.724 442.12 52.5156C442.381 52.3073 442.511 52.0547 442.511 51.7578C442.511 51.4661 442.378 51.2161 442.112 51.0078C441.852 50.7995 441.472 50.6406 440.972 50.5312C440.472 50.4219 439.87 50.3646 439.167 50.3594ZM450.91 42.9219C450.91 43.7865 450.751 44.5964 450.433 45.3516C450.121 46.1068 449.665 46.763 449.066 47.3203C448.472 47.8776 447.766 48.2969 446.949 48.5781L446.199 47.3984C446.912 47.1589 447.532 46.8099 448.058 46.3516C448.589 45.8932 448.996 45.3698 449.277 44.7812C449.563 44.1927 449.709 43.5729 449.714 42.9219V41.8516H450.91V42.9219ZM451.183 42.9141C451.183 43.5078 451.319 44.0729 451.589 44.6094C451.86 45.1458 452.248 45.6224 452.753 46.0391C453.259 46.4505 453.858 46.7656 454.55 46.9844L453.847 48.1484C453.045 47.888 452.355 47.5 451.777 46.9844C451.199 46.4635 450.753 45.8568 450.441 45.1641C450.134 44.4661 449.98 43.7161 449.98 42.9141V41.8516H451.183V42.9141ZM454.214 42.5312H446.628V41.3281H454.214V42.5312ZM457.3 48.7266H455.824V40.3203H457.3V48.7266ZM459.339 45.0156H456.886V43.7891H459.339V45.0156ZM452.777 49.0703C453.735 49.0703 454.563 49.1719 455.261 49.375C455.964 49.5781 456.501 49.875 456.871 50.2656C457.24 50.6562 457.425 51.125 457.425 51.6719C457.425 52.2188 457.24 52.6875 456.871 53.0781C456.501 53.474 455.964 53.776 455.261 53.9844C454.563 54.1979 453.735 54.3047 452.777 54.3047C451.813 54.3047 450.977 54.1979 450.269 53.9844C449.566 53.776 449.024 53.474 448.644 53.0781C448.269 52.6875 448.082 52.2188 448.082 51.6719C448.082 51.125 448.269 50.6562 448.644 50.2656C449.024 49.875 449.566 49.5781 450.269 49.375C450.977 49.1719 451.813 49.0703 452.777 49.0703ZM452.777 50.2422C452.11 50.2422 451.535 50.2969 451.05 50.4062C450.571 50.5156 450.204 50.6797 449.949 50.8984C449.694 51.1172 449.569 51.375 449.574 51.6719C449.569 51.9792 449.694 52.2422 449.949 52.4609C450.204 52.6797 450.571 52.8464 451.05 52.9609C451.529 53.0755 452.105 53.1328 452.777 53.1328C453.449 53.1328 454.024 53.0755 454.503 52.9609C454.983 52.8464 455.347 52.6797 455.597 52.4609C455.852 52.2422 455.98 51.9792 455.98 51.6719C455.98 51.3698 455.852 51.112 455.597 50.8984C455.347 50.6797 454.983 50.5156 454.503 50.4062C454.024 50.2969 453.449 50.2422 452.777 50.2422ZM471.418 50.5156H469.941V40.3359H471.418V50.5156ZM471.84 54.0469H462.269V52.8203H471.84V54.0469ZM463.754 53.2656H462.269V49.4844H463.754V53.2656ZM463.824 41.2812C464.522 41.2812 465.155 41.4297 465.722 41.7266C466.29 42.0234 466.736 42.4349 467.058 42.9609C467.387 43.487 467.551 44.0833 467.551 44.75C467.551 45.4219 467.387 46.0234 467.058 46.5547C466.736 47.0807 466.29 47.4922 465.722 47.7891C465.155 48.0859 464.522 48.2344 463.824 48.2344C463.126 48.2344 462.493 48.0859 461.926 47.7891C461.363 47.4922 460.918 47.0807 460.59 46.5547C460.262 46.0234 460.097 45.4219 460.097 44.75C460.097 44.0833 460.262 43.487 460.59 42.9609C460.918 42.4349 461.363 42.0234 461.926 41.7266C462.493 41.4297 463.126 41.2812 463.824 41.2812ZM463.824 42.5781C463.392 42.5781 463.001 42.6693 462.652 42.8516C462.308 43.0339 462.038 43.2891 461.84 43.6172C461.642 43.9453 461.545 44.3229 461.551 44.75C461.545 45.1823 461.642 45.5651 461.84 45.8984C462.038 46.2266 462.308 46.4818 462.652 46.6641C463.001 46.8464 463.392 46.9375 463.824 46.9375C464.251 46.9375 464.637 46.8464 464.98 46.6641C465.324 46.4818 465.595 46.2266 465.793 45.8984C465.991 45.5651 466.09 45.1823 466.09 44.75C466.09 44.3229 465.991 43.9453 465.793 43.6172C465.595 43.2891 465.324 43.0339 464.98 42.8516C464.637 42.6693 464.251 42.5781 463.824 42.5781ZM480.418 49.0625H478.942V46.9609H480.418V49.0625ZM486.082 47.3125H473.317V46.125H486.082V47.3125ZM484.434 45.0938H474.942V40.7734H484.434V45.0938ZM476.41 43.9219H482.957V41.9453H476.41V43.9219ZM484.465 51.8203H476.324V53.3984H474.863V50.7344H483.012V49.6641H474.84V48.5312H484.465V51.8203ZM484.871 54.1875H474.863V53.0391H484.871V54.1875ZM497.333 41.5547C497.333 42.4193 497.075 43.2161 496.559 43.9453C496.049 44.6745 495.359 45.2812 494.489 45.7656C493.619 46.25 492.661 46.5729 491.614 46.7344L491.02 45.5391C491.932 45.4141 492.77 45.1562 493.536 44.7656C494.307 44.3698 494.914 43.8932 495.356 43.3359C495.804 42.7734 496.028 42.1797 496.028 41.5547V40.7969H497.333V41.5547ZM497.567 41.5547C497.567 42.1693 497.794 42.7604 498.247 43.3281C498.705 43.8906 499.317 44.3698 500.083 44.7656C500.854 45.1562 501.692 45.4141 502.598 45.5391L502.013 46.7344C500.96 46.5729 499.999 46.25 499.13 45.7656C498.26 45.276 497.567 44.6667 497.052 43.9375C496.536 43.2083 496.278 42.4141 496.278 41.5547V40.7969H497.567V41.5547ZM497.497 54.3203H496.036V49.0469H497.497V54.3203ZM503.177 49.3516H490.411V48.1172H503.177V49.3516Z" fill="#A9ABB8"/>
<path d="M593.894 51.625H592.441V48.2109H593.894V51.625ZM593.175 41.1719C594.165 41.1719 595.053 41.3281 595.839 41.6406C596.626 41.9479 597.237 42.3854 597.675 42.9531C598.118 43.5156 598.339 44.1641 598.339 44.8984C598.339 45.6432 598.118 46.2969 597.675 46.8594C597.237 47.4219 596.626 47.8594 595.839 48.1719C595.053 48.4792 594.165 48.6328 593.175 48.6328C592.18 48.6328 591.292 48.4792 590.511 48.1719C589.735 47.8594 589.123 47.4219 588.675 46.8594C588.227 46.2969 588.003 45.6432 588.003 44.8984C588.003 44.1641 588.227 43.5156 588.675 42.9531C589.123 42.3854 589.735 41.9479 590.511 41.6406C591.292 41.3281 592.18 41.1719 593.175 41.1719ZM593.175 42.375C592.456 42.375 591.813 42.4792 591.245 42.6875C590.683 42.8958 590.243 43.1927 589.925 43.5781C589.612 43.9583 589.456 44.3984 589.456 44.8984C589.456 45.4089 589.612 45.8568 589.925 46.2422C590.243 46.6224 590.683 46.9193 591.245 47.1328C591.808 47.3411 592.451 47.4453 593.175 47.4453C593.899 47.4453 594.54 47.3411 595.097 47.1328C595.659 46.9193 596.099 46.6224 596.417 46.2422C596.735 45.8568 596.894 45.4089 596.894 44.8984C596.894 44.3984 596.735 43.9583 596.417 43.5781C596.099 43.1927 595.659 42.8958 595.097 42.6875C594.534 42.4792 593.894 42.375 593.175 42.375ZM599.605 52.5781H586.792V51.3516H599.605V52.5781ZM611.605 44.7188H601.98V43.5156H611.605V44.7188ZM613.097 47.1406H600.285V45.9531H613.097V47.1406ZM603.449 44.1094H601.98V40.5391H603.449V44.1094ZM611.488 51.6875H603.363V53.3359H601.871V50.5859H610.027V49.4141H601.839V48.2656H611.488V51.6875ZM611.972 54.1484H601.871V52.9766H611.972V54.1484ZM618.379 41.3125C619.103 41.3125 619.754 41.4557 620.332 41.7422C620.91 42.0234 621.361 42.4193 621.683 42.9297C622.012 43.4349 622.176 44.0104 622.176 44.6562C622.176 45.3021 622.012 45.8802 621.683 46.3906C621.361 46.8958 620.91 47.2917 620.332 47.5781C619.754 47.8594 619.103 48 618.379 48C617.644 48 616.986 47.8594 616.402 47.5781C615.824 47.2917 615.371 46.8958 615.043 46.3906C614.72 45.8802 614.558 45.3021 614.558 44.6562C614.558 44.0104 614.72 43.4349 615.043 42.9297C615.371 42.4193 615.824 42.0234 616.402 41.7422C616.986 41.4557 617.644 41.3125 618.379 41.3125ZM618.379 42.6094C617.926 42.6094 617.519 42.6927 617.16 42.8594C616.806 43.026 616.527 43.2682 616.324 43.5859C616.121 43.8984 616.019 44.2552 616.019 44.6562C616.019 45.0625 616.121 45.4193 616.324 45.7266C616.527 46.0339 616.806 46.2734 617.16 46.4453C617.519 46.6172 617.926 46.7031 618.379 46.7031C618.827 46.7031 619.23 46.6172 619.59 46.4453C619.949 46.2734 620.228 46.0339 620.426 45.7266C620.629 45.4193 620.73 45.0625 620.73 44.6562C620.73 44.2552 620.629 43.8984 620.426 43.5859C620.228 43.2682 619.949 43.026 619.59 42.8594C619.23 42.6927 618.827 42.6094 618.379 42.6094ZM625.387 54.3594H623.91V40.3203H625.387V54.3594ZM613.879 50.1094C615.603 50.1094 617.22 50.0807 618.73 50.0234C620.241 49.9661 621.673 49.8385 623.027 49.6406L623.137 50.7266C622.163 50.9089 621.147 51.0443 620.09 51.1328C619.038 51.2214 618.051 51.2786 617.129 51.3047C616.207 51.3307 615.189 51.3438 614.074 51.3438L613.879 50.1094ZM634.872 40.8047C635.569 40.8047 636.197 40.9375 636.754 41.2031C637.317 41.4688 637.754 41.8411 638.067 42.3203C638.379 42.7995 638.536 43.3385 638.536 43.9375C638.536 44.5417 638.379 45.0807 638.067 45.5547C637.754 46.0286 637.317 46.3984 636.754 46.6641C636.197 46.9297 635.569 47.0625 634.872 47.0625C634.168 47.0625 633.536 46.9297 632.973 46.6641C632.416 46.3984 631.978 46.0286 631.661 45.5547C631.348 45.0807 631.192 44.5417 631.192 43.9375C631.192 43.3385 631.348 42.7995 631.661 42.3203C631.978 41.8411 632.418 41.4688 632.981 41.2031C633.543 40.9375 634.174 40.8047 634.872 40.8047ZM634.872 42.0391C634.444 42.0391 634.059 42.1172 633.715 42.2734C633.377 42.4297 633.111 42.6536 632.918 42.9453C632.731 43.2318 632.64 43.5625 632.645 43.9375C632.64 44.3177 632.731 44.6536 632.918 44.9453C633.111 45.2318 633.377 45.4557 633.715 45.6172C634.059 45.7786 634.444 45.8594 634.872 45.8594C635.299 45.8594 635.681 45.7786 636.02 45.6172C636.359 45.4557 636.624 45.2318 636.817 44.9453C637.01 44.6536 637.106 44.3177 637.106 43.9375C637.106 43.5625 637.01 43.2318 636.817 42.9453C636.624 42.6536 636.359 42.4297 636.02 42.2734C635.681 42.1172 635.299 42.0391 634.872 42.0391ZM642.512 47.4609H641.036V40.3203H642.512V47.4609ZM642.512 51.6172H634.801V53.6016H633.348V50.5234H641.043V49.2734H633.317V48.1016H642.512V51.6172ZM642.981 54.1484H633.348V52.9688H642.981V54.1484ZM656.052 54.3203H654.552V40.3203H656.052V54.3203ZM651.895 41.8281C651.89 43.2552 651.669 44.5755 651.231 45.7891C650.794 46.9974 650.091 48.112 649.122 49.1328C648.153 50.1536 646.893 51.0339 645.341 51.7734L644.544 50.5703C645.888 49.9349 646.994 49.1953 647.864 48.3516C648.734 47.5026 649.374 46.5599 649.786 45.5234C650.203 44.4818 650.414 43.3307 650.419 42.0703V41.8281H651.895ZM651.059 43.0156H645.223V41.8281H651.059V43.0156Z" fill="#A9ABB8"/>
<line x1="160" y1="27.65" x2="623" y2="27.65" stroke="url(#paint0_linear_1159_8589)" stroke-width="0.7"/>
<circle cx="159.5" cy="27.5" r="3.5" fill="#FF903F"/>
<circle cx="313.5" cy="27.5" r="2.5" fill="#CDCED6"/>
<circle cx="467.5" cy="27.5" r="2.5" fill="#CDCED6"/>
<circle cx="622.5" cy="27.5" r="2.5" fill="#CDCED6"/>
<defs>
<linearGradient id="paint0_linear_1159_8589" x1="160" y1="28.5" x2="623" y2="28.5" gradientUnits="userSpaceOnUse">
<stop stop-color="#FF903F"/>
<stop offset="0.173228" stop-color="#CDCED6"/>
</linearGradient>
</defs>
</svg>
