<svg width="200" height="224" viewBox="0 0 200 224" fill="none" xmlns="http://www.w3.org/2000/svg">
<path d="M134.934 113.625L127.208 123.106L118.167 116.799L96.537 136.64L81.0265 111.578L26.3823 121.907L36.7206 97.5785L7.97469 73.5624L51.0056 73.5624L38.0531 23.8865L81.0265 48.8355L90.2704 11.9921L111.447 48.8356L131.754 29.3985L138.19 56.6684L164.245 48.8356L153.511 67.8094L192.674 73.5624L147.504 97.5785L175.254 121.907L134.934 113.625Z" fill="#B2B2B2"/>
<path d="M167.809 136.322L132.585 160.721L93.2215 149.504L80.1774 98.0963C79.2461 94.4263 80.9167 90.5912 84.2383 88.7737C88.9789 86.1797 94.8947 88.7356 96.2552 93.9654L99.5367 106.58L98.9683 76.3884C98.889 72.1789 102.009 68.5925 106.188 68.0878C111.122 67.492 115.449 71.3844 115.377 76.3537L114.962 104.718L120.623 72.808C121.574 67.4515 126.833 63.9966 132.127 65.2518C137.126 66.4373 140.267 71.3955 139.202 76.4224L132.37 108.684L141.945 82.5109C143.925 77.0991 150.428 74.9404 155.251 78.0937C158.677 80.3337 160.148 84.6126 158.822 88.4856L144.312 130.878L156.835 121.272C161.231 117.9 167.581 119.087 170.462 123.82C173.026 128.032 171.863 133.513 167.809 136.322Z" fill="#707070"/>
<rect width="52.0429" height="14.5072" transform="matrix(-0.960824 -0.277158 -0.277157 0.960825 139.194 159.037)" fill="#949494"/>
<path d="M39.8736 135.783L75.3665 159.791L114.603 148.138L127.076 96.5892C127.967 92.909 126.254 89.0927 122.912 87.3121C118.143 84.7709 112.256 87.3921 110.954 92.6367L107.812 105.287L108.046 75.0908C108.078 70.8808 104.919 67.3292 100.734 66.8708C95.7938 66.3298 91.5105 70.2699 91.6382 75.2381L92.3667 103.596L86.3523 71.7508C85.3427 66.4051 80.0453 63.0088 74.7661 64.3225C69.7798 65.5634 66.6943 70.5561 67.8146 75.5709L75.0046 107.755L65.1395 81.6894C63.0998 76.3 56.5735 74.2134 51.7855 77.42C48.3842 79.6979 46.9613 83.9928 48.3298 87.8509L63.3088 130.08L50.6807 120.613C46.2473 117.29 39.9106 118.547 37.0823 123.312C34.5649 127.553 35.7887 133.02 39.8736 135.783Z" fill="#E3E3E3"/>
<rect width="52.0429" height="14.5072" transform="matrix(0.957692 -0.287793 0.287792 0.957693 68.7383 158.181)" fill="#BFBFBF"/>
<path fill-rule="evenodd" clip-rule="evenodd" d="M66.0965 13.1202C66.4534 13.5464 66.3977 14.1817 65.972 14.5391C62.5964 17.3736 59.8953 20.8316 59.2981 25.0919C58.8547 28.2543 60.054 30.8255 62.6298 32.7655C63.0439 33.0774 63.4683 33.3631 63.9024 33.6222C64.2652 32.5664 64.7329 31.551 65.3103 30.5975C66.3916 28.8115 68.1656 26.9655 70.2385 25.7527C72.3086 24.5415 74.8142 23.8895 77.2534 24.7756C78.9553 25.3938 80.4029 26.8863 81.1264 28.5774C81.8581 30.2876 81.9151 32.3893 80.5013 34.068C79.3207 35.4698 77.6312 36.3085 75.9336 36.8042C74.2272 37.3025 72.4253 37.4802 70.9105 37.4978C68.9108 37.5209 67.0079 37.1821 65.2266 36.4985C64.486 40.5277 65.2493 44.9629 67.296 48.4137C69.2175 51.6533 72.3102 54.006 75.7332 55.761C76.2276 56.0145 76.4232 56.6214 76.1701 57.1166C75.9169 57.6117 75.3108 57.8076 74.8164 57.5541C71.2064 55.7033 67.7528 53.1285 65.5664 49.4424C63.2057 45.4622 62.3496 40.2996 63.3481 35.6252C62.685 35.2604 62.042 34.8434 61.4206 34.3754C58.3209 32.0409 56.7507 28.7727 57.3059 24.8118C58.0022 19.8448 61.1281 15.9775 64.6795 12.9955C65.1052 12.6381 65.7396 12.6939 66.0965 13.1202ZM65.7217 34.5288C67.3336 35.1821 69.0604 35.5046 70.8872 35.4835C72.28 35.4673 73.8896 35.3027 75.3704 34.8703C76.86 34.4353 78.1335 33.7548 78.9635 32.7693C79.7501 31.8353 79.8032 30.6 79.2773 29.3707C78.7432 28.1225 77.6796 27.0733 76.5675 26.6693C74.8895 26.0598 73.0243 26.4559 71.2533 27.492C69.4851 28.5265 67.9477 30.1269 67.0305 31.6419C66.4848 32.5431 66.0499 33.5139 65.7217 34.5288Z" fill="#707070"/>
<path d="M22.4112 204.729C23.1778 204.734 23.8594 204.959 24.4561 205.407C25.0528 205.854 25.5189 206.488 25.8546 207.309C26.1902 208.129 26.3601 209.084 26.3642 210.174C26.3601 211.268 26.1902 212.227 25.8546 213.052C25.5189 213.872 25.0528 214.506 24.4561 214.954C23.8594 215.397 23.1778 215.619 22.4112 215.619C21.6446 215.619 20.963 215.397 20.3663 214.954C19.7696 214.506 19.3055 213.872 18.9741 213.052C18.6426 212.227 18.4789 211.268 18.483 210.174C18.4789 209.084 18.6426 208.129 18.9741 207.309C19.3055 206.488 19.7696 205.854 20.3663 205.407C20.963 204.959 21.6446 204.734 22.4112 204.729ZM19.7883 210.174C19.7883 211.011 19.8981 211.749 20.1177 212.387C20.3415 213.025 20.6522 213.518 21.05 213.866C21.4478 214.214 21.9015 214.388 22.4112 214.388C22.9292 214.388 23.385 214.214 23.7786 213.866C24.1764 213.518 24.4851 213.027 24.7047 212.393C24.9243 211.755 25.0341 211.015 25.0341 210.174C25.0341 209.337 24.9243 208.602 24.7047 207.968C24.4851 207.334 24.1764 206.843 23.7786 206.495C23.385 206.142 22.9292 205.964 22.4112 205.96C21.9015 205.964 21.4478 206.142 21.05 206.495C20.6522 206.843 20.3415 207.336 20.1177 207.974C19.8981 208.608 19.7883 209.341 19.7883 210.174ZM28.9499 203.524H30.3297V209.764H32.9402V210.945H30.3297V219.149H28.9499V203.524ZM39.0623 206.42C39.0623 207.108 39.2322 207.771 39.5719 208.409C39.9117 209.043 40.3841 209.602 40.9891 210.087C41.5982 210.572 42.2902 210.941 43.065 211.193L42.3565 212.263C41.449 211.956 40.6493 211.494 39.9573 210.876C39.2653 210.259 38.7432 209.54 38.391 208.72C38.0471 209.611 37.525 210.392 36.8247 211.063C36.1244 211.734 35.3081 212.238 34.3758 212.573L33.6548 211.504C34.4338 211.227 35.1258 210.829 35.7308 210.311C36.3357 209.793 36.8081 209.196 37.1479 208.521C37.4918 207.845 37.6659 207.145 37.67 206.42V205.749H34.0153V204.618H42.6548V205.749H39.0623V206.42ZM35.8178 213.804H46.3344V219.149H44.9545V214.935H35.8178V213.804ZM44.9545 203.524H46.3344V212.971H44.9545V203.524ZM65.6886 215.084H64.3087V203.536H65.6886V215.084ZM53.1085 212.101C53.8833 211.844 54.5712 211.467 55.172 210.97C55.777 210.472 56.2473 209.894 56.5829 209.236C56.9186 208.577 57.0864 207.887 57.0864 207.166V206.756H53.4814V205.637H57.0864V203.598H58.4786V205.637H62.0463V206.756H58.4538V207.166C58.4538 207.845 58.6237 208.496 58.9634 209.118C59.3074 209.735 59.7839 210.278 60.393 210.746C61.0021 211.21 61.6941 211.562 62.469 211.803L61.7853 212.909C60.8654 212.611 60.0574 212.161 59.3612 211.56C58.6692 210.959 58.1471 210.255 57.7949 209.447C57.4552 210.317 56.9372 211.077 56.2411 211.728C55.5449 212.379 54.7328 212.863 53.8046 213.182L53.1085 212.101ZM55.5947 214.003H56.9745V217.658H66.1734V218.801H55.5947V214.003ZM80.3383 205.91C80.3383 206.577 80.33 207.153 80.3134 207.638C80.301 208.123 80.2616 208.674 80.1953 209.292C80.129 209.905 80.0275 210.56 79.8907 211.256H82.2278V212.399H75.7637V219.174H74.3838V212.399H67.9819V211.256H78.4861C78.6352 210.56 78.745 209.903 78.8155 209.285C78.8859 208.668 78.9294 208.117 78.946 207.632C78.9626 207.143 78.9709 206.569 78.9709 205.91V205.687H69.772V204.543H80.3383V205.91ZM101.644 217.135H87.3361V215.979H90.8789V211.765C90.2035 211.409 89.6773 210.955 89.3002 210.404C88.9273 209.849 88.7408 209.225 88.7408 208.533C88.7408 207.738 88.9832 207.037 89.468 206.432C89.9528 205.823 90.6283 205.351 91.4943 205.015C92.3603 204.68 93.3444 204.51 94.4466 204.506C95.553 204.51 96.5392 204.68 97.4052 205.015C98.2754 205.351 98.9528 205.823 99.4376 206.432C99.9225 207.037 100.165 207.738 100.165 208.533C100.165 209.217 99.9825 209.832 99.6179 210.379C99.2574 210.922 98.7477 211.372 98.0889 211.728V215.979H101.644V217.135ZM90.0709 208.533C90.0709 209.105 90.2553 209.613 90.6241 210.056C90.997 210.495 91.515 210.837 92.178 211.082C92.8451 211.322 93.6013 211.442 94.4466 211.442C95.2919 211.442 96.0461 211.322 96.7091 211.082C97.3762 210.837 97.8962 210.495 98.2691 210.056C98.6462 209.613 98.8347 209.105 98.8347 208.533C98.8347 207.957 98.6462 207.45 98.2691 207.01C97.8962 206.571 97.3762 206.231 96.7091 205.991C96.0461 205.751 95.2919 205.633 94.4466 205.637C93.6013 205.633 92.8451 205.751 92.178 205.991C91.515 206.231 90.997 206.571 90.6241 207.01C90.2553 207.45 90.0709 207.957 90.0709 208.533ZM96.6966 215.979V212.269C96.0046 212.447 95.2546 212.536 94.4466 212.536C93.6676 212.536 92.93 212.449 92.2339 212.275V215.979H96.6966ZM107.866 206.868C107.866 207.506 108.036 208.119 108.375 208.707C108.719 209.292 109.194 209.805 109.799 210.249C110.404 210.688 111.089 211.019 111.856 211.243L111.185 212.325C110.273 212.051 109.471 211.631 108.779 211.063C108.087 210.491 107.565 209.822 107.213 209.055C106.877 209.913 106.364 210.663 105.672 211.305C104.984 211.948 104.178 212.424 103.254 212.735L102.582 211.666C103.345 211.409 104.022 211.038 104.615 210.553C105.207 210.068 105.67 209.507 106.001 208.869C106.332 208.231 106.498 207.564 106.498 206.868V206.544H102.968V205.426H106.498V203.449H107.891V205.426H111.384V206.544H107.866V206.868ZM105.069 216.253C105.065 215.652 105.272 215.14 105.69 214.718C106.109 214.291 106.71 213.966 107.493 213.742C108.28 213.518 109.216 213.406 110.302 213.406C111.384 213.406 112.316 213.518 113.099 213.742C113.882 213.966 114.483 214.291 114.902 214.718C115.324 215.14 115.536 215.652 115.536 216.253C115.536 216.854 115.324 217.368 114.902 217.794C114.483 218.225 113.88 218.553 113.093 218.776C112.31 219 111.379 219.112 110.302 219.112C109.221 219.112 108.286 219 107.499 218.776C106.712 218.553 106.109 218.225 105.69 217.794C105.272 217.368 105.065 216.854 105.069 216.253ZM106.436 216.253C106.432 216.613 106.585 216.926 106.896 217.191C107.207 217.457 107.652 217.66 108.232 217.801C108.817 217.946 109.507 218.018 110.302 218.018C111.098 218.018 111.786 217.946 112.366 217.801C112.946 217.66 113.391 217.457 113.702 217.191C114.013 216.926 114.168 216.613 114.168 216.253C114.168 215.888 114.013 215.575 113.702 215.314C113.391 215.049 112.946 214.846 112.366 214.705C111.786 214.564 111.098 214.492 110.302 214.488C109.502 214.492 108.812 214.564 108.232 214.705C107.652 214.846 107.207 215.049 106.896 215.314C106.585 215.575 106.432 215.888 106.436 216.253ZM110.899 207.999H114.106V203.524H115.486V212.996H114.106V209.142H110.899V207.999ZM130.608 219.174H129.228V203.524H130.608V219.174ZM118.314 210.174C118.314 209.084 118.481 208.129 118.817 207.309C119.157 206.488 119.629 205.854 120.234 205.407C120.839 204.959 121.529 204.734 122.304 204.729C123.075 204.734 123.76 204.959 124.361 205.407C124.966 205.854 125.439 206.49 125.778 207.315C126.122 208.135 126.294 209.089 126.294 210.174C126.294 211.264 126.122 212.221 125.778 213.046C125.439 213.87 124.966 214.506 124.361 214.954C123.756 215.397 123.071 215.619 122.304 215.619C121.529 215.619 120.839 215.397 120.234 214.954C119.629 214.506 119.157 213.872 118.817 213.052C118.481 212.227 118.314 211.268 118.314 210.174ZM119.644 210.174C119.644 211.011 119.756 211.749 119.979 212.387C120.203 213.025 120.516 213.518 120.918 213.866C121.324 214.214 121.786 214.388 122.304 214.388C122.822 214.388 123.28 214.214 123.678 213.866C124.08 213.518 124.392 213.025 124.616 212.387C124.84 211.749 124.952 211.011 124.952 210.174C124.952 209.341 124.84 208.608 124.616 207.974C124.392 207.336 124.08 206.843 123.678 206.495C123.28 206.142 122.822 205.964 122.304 205.96C121.786 205.964 121.324 206.142 120.918 206.495C120.516 206.843 120.203 207.336 119.979 207.974C119.756 208.608 119.644 209.341 119.644 210.174ZM140.191 214.637H143.038V212.685H144.318V218.938H138.886V212.685H140.191V214.637ZM137.332 207.812C137.328 207.108 137.498 206.484 137.842 205.941C138.186 205.399 138.666 204.976 139.284 204.673C139.901 204.371 140.602 204.22 141.385 204.22C142.077 204.22 142.707 204.344 143.274 204.593C143.842 204.837 144.308 205.185 144.673 205.637C145.041 206.089 145.276 206.611 145.375 207.203H148.657V203.524H150.037V211.803H148.657V208.359H145.381C145.29 208.964 145.062 209.497 144.698 209.957C144.337 210.417 143.869 210.773 143.293 211.026C142.721 211.278 142.085 211.405 141.385 211.405C140.602 211.405 139.901 211.254 139.284 210.951C138.666 210.649 138.186 210.226 137.842 209.683C137.498 209.14 137.328 208.517 137.332 207.812ZM138.65 207.812C138.65 208.285 138.766 208.707 138.998 209.08C139.23 209.449 139.553 209.739 139.968 209.95C140.386 210.162 140.858 210.269 141.385 210.274C141.907 210.269 142.373 210.162 142.783 209.95C143.193 209.739 143.515 209.449 143.747 209.08C143.979 208.707 144.095 208.285 144.095 207.812C144.095 207.344 143.979 206.926 143.747 206.557C143.515 206.184 143.193 205.894 142.783 205.687C142.373 205.479 141.907 205.376 141.385 205.376C140.858 205.376 140.386 205.479 139.968 205.687C139.553 205.894 139.23 206.182 138.998 206.551C138.766 206.919 138.65 207.34 138.65 207.812ZM143.038 217.844V215.706H140.191V217.844H143.038ZM144.53 218.006C145.139 217.753 145.661 217.409 146.096 216.974C146.531 216.539 146.861 216.056 147.084 215.526C147.308 214.995 147.422 214.459 147.426 213.916V212.586H148.781V213.916C148.777 214.479 148.885 215.03 149.104 215.569C149.328 216.108 149.658 216.593 150.093 217.024C150.532 217.45 151.06 217.778 151.678 218.006L150.957 219.062C150.256 218.781 149.666 218.381 149.185 217.863C148.704 217.349 148.34 216.754 148.091 216.079C147.83 216.742 147.459 217.332 146.979 217.85C146.498 218.368 145.922 218.772 145.251 219.062L144.53 218.006ZM156.482 204.729C157.186 204.734 157.818 204.93 158.378 205.32C158.941 205.705 159.395 206.256 159.739 206.973C160.083 207.69 160.29 208.529 160.36 209.49H163.866V203.524H165.233V219.174H163.866V210.634H160.373C160.323 211.641 160.128 212.522 159.789 213.276C159.449 214.026 158.993 214.604 158.421 215.01C157.853 215.416 157.207 215.619 156.482 215.619C155.715 215.619 155.034 215.397 154.437 214.954C153.844 214.506 153.382 213.872 153.051 213.052C152.724 212.227 152.562 211.268 152.566 210.174C152.562 209.084 152.724 208.129 153.051 207.309C153.382 206.488 153.844 205.854 154.437 205.407C155.034 204.959 155.715 204.734 156.482 204.729ZM153.884 210.174C153.884 211.011 153.992 211.749 154.207 212.387C154.427 213.025 154.733 213.518 155.127 213.866C155.521 214.214 155.972 214.388 156.482 214.388C156.987 214.388 157.437 214.214 157.831 213.866C158.224 213.518 158.531 213.025 158.751 212.387C158.97 211.749 159.08 211.011 159.08 210.174C159.08 209.341 158.97 208.608 158.751 207.974C158.531 207.336 158.224 206.843 157.831 206.495C157.437 206.142 156.987 205.964 156.482 205.96C155.972 205.964 155.521 206.142 155.127 206.495C154.733 206.843 154.427 207.336 154.207 207.974C153.992 208.608 153.884 209.341 153.884 210.174ZM181.785 217.135H167.477V215.979H171.02V211.765C170.344 211.409 169.818 210.955 169.441 210.404C169.068 209.849 168.882 209.225 168.882 208.533C168.882 207.738 169.124 207.037 169.609 206.432C170.094 205.823 170.769 205.351 171.635 205.015C172.501 204.68 173.485 204.51 174.587 204.506C175.694 204.51 176.68 204.68 177.546 205.015C178.416 205.351 179.094 205.823 179.578 206.432C180.063 207.037 180.306 207.738 180.306 208.533C180.306 209.217 180.123 209.832 179.759 210.379C179.398 210.922 178.889 211.372 178.23 211.728V215.979H181.785V217.135ZM170.212 208.533C170.212 209.105 170.396 209.613 170.765 210.056C171.138 210.495 171.656 210.837 172.319 211.082C172.986 211.322 173.742 211.442 174.587 211.442C175.433 211.442 176.187 211.322 176.85 211.082C177.517 210.837 178.037 210.495 178.41 210.056C178.787 209.613 178.976 209.105 178.976 208.533C178.976 207.957 178.787 207.45 178.41 207.01C178.037 206.571 177.517 206.231 176.85 205.991C176.187 205.751 175.433 205.633 174.587 205.637C173.742 205.633 172.986 205.751 172.319 205.991C171.656 206.231 171.138 206.571 170.765 207.01C170.396 207.45 170.212 207.957 170.212 208.533ZM176.837 215.979V212.269C176.145 212.447 175.395 212.536 174.587 212.536C173.808 212.536 173.071 212.449 172.375 212.275V215.979H176.837Z" fill="#84889A"/>
</svg>
