<svg width="200" height="224" viewBox="0 0 200 224" fill="none" xmlns="http://www.w3.org/2000/svg">
<path d="M134.934 113.625L127.208 123.106L118.167 116.799L96.537 136.64L81.0265 111.578L26.3823 121.907L36.7206 97.5785L7.97469 73.5624L51.0056 73.5624L38.0531 23.8865L81.0265 48.8355L90.2704 11.9921L111.447 48.8356L131.754 29.3985L138.19 56.6684L164.245 48.8356L153.511 67.8094L192.674 73.5624L147.504 97.5785L175.254 121.907L134.934 113.625Z" fill="#B2B2B2"/>
<path d="M167.809 136.322L132.585 160.721L93.2215 149.504L80.1774 98.0963C79.2461 94.4263 80.9167 90.5912 84.2383 88.7737C88.9789 86.1797 94.8947 88.7356 96.2552 93.9654L99.5367 106.58L98.9683 76.3884C98.889 72.1789 102.009 68.5925 106.188 68.0878C111.122 67.492 115.449 71.3844 115.377 76.3537L114.962 104.718L120.623 72.808C121.574 67.4515 126.833 63.9966 132.127 65.2518C137.126 66.4373 140.267 71.3955 139.202 76.4224L132.37 108.684L141.945 82.5109C143.925 77.0991 150.428 74.9404 155.251 78.0937C158.677 80.3337 160.148 84.6126 158.822 88.4856L144.312 130.878L156.835 121.272C161.231 117.9 167.581 119.087 170.462 123.82C173.026 128.032 171.863 133.513 167.809 136.322Z" fill="#707070"/>
<rect width="52.0429" height="14.5072" transform="matrix(-0.960824 -0.277158 -0.277157 0.960825 139.194 159.037)" fill="#949494"/>
<path d="M39.8736 135.783L75.3665 159.791L114.603 148.138L127.076 96.5892C127.967 92.909 126.254 89.0927 122.912 87.3121C118.143 84.7709 112.256 87.3921 110.954 92.6367L107.812 105.287L108.046 75.0908C108.078 70.8808 104.919 67.3292 100.734 66.8708C95.7938 66.3298 91.5105 70.2699 91.6382 75.2381L92.3667 103.596L86.3523 71.7508C85.3427 66.4051 80.0453 63.0088 74.7661 64.3225C69.7798 65.5634 66.6943 70.5561 67.8146 75.5709L75.0046 107.755L65.1395 81.6894C63.0998 76.3 56.5735 74.2134 51.7855 77.42C48.3842 79.6979 46.9613 83.9928 48.3298 87.8509L63.3088 130.08L50.6807 120.613C46.2473 117.29 39.9106 118.547 37.0823 123.312C34.5649 127.553 35.7887 133.02 39.8736 135.783Z" fill="#E3E3E3"/>
<rect width="52.0429" height="14.5072" transform="matrix(0.957692 -0.287793 0.287792 0.957693 68.7383 158.181)" fill="#BFBFBF"/>
<path fill-rule="evenodd" clip-rule="evenodd" d="M66.0965 13.1202C66.4534 13.5464 66.3977 14.1817 65.972 14.5391C62.5964 17.3736 59.8953 20.8316 59.2981 25.0919C58.8547 28.2543 60.054 30.8255 62.6298 32.7655C63.0439 33.0774 63.4683 33.3631 63.9024 33.6222C64.2652 32.5664 64.7329 31.551 65.3103 30.5975C66.3916 28.8115 68.1656 26.9655 70.2385 25.7527C72.3086 24.5415 74.8142 23.8895 77.2534 24.7756C78.9553 25.3938 80.4029 26.8863 81.1264 28.5774C81.8581 30.2876 81.9151 32.3893 80.5013 34.068C79.3207 35.4698 77.6312 36.3085 75.9336 36.8042C74.2272 37.3025 72.4253 37.4802 70.9105 37.4978C68.9108 37.5209 67.0079 37.1821 65.2266 36.4985C64.486 40.5277 65.2493 44.9629 67.296 48.4137C69.2175 51.6533 72.3102 54.006 75.7332 55.761C76.2276 56.0145 76.4232 56.6214 76.1701 57.1166C75.9169 57.6117 75.3108 57.8076 74.8164 57.5541C71.2064 55.7033 67.7528 53.1285 65.5664 49.4424C63.2057 45.4622 62.3496 40.2996 63.3481 35.6252C62.685 35.2604 62.042 34.8434 61.4206 34.3754C58.3209 32.0409 56.7507 28.7727 57.3059 24.8118C58.0022 19.8448 61.1281 15.9775 64.6795 12.9955C65.1052 12.6381 65.7396 12.6939 66.0965 13.1202ZM65.7217 34.5288C67.3336 35.1821 69.0604 35.5046 70.8872 35.4835C72.28 35.4673 73.8896 35.3027 75.3704 34.8703C76.86 34.4353 78.1335 33.7548 78.9635 32.7693C79.7501 31.8353 79.8032 30.6 79.2773 29.3707C78.7432 28.1225 77.6796 27.0733 76.5675 26.6693C74.8895 26.0598 73.0243 26.4559 71.2533 27.492C69.4851 28.5265 67.9477 30.1269 67.0305 31.6419C66.4848 32.5431 66.0499 33.5139 65.7217 34.5288Z" fill="#707070"/>
<path d="M14.8129 204.729C15.5795 204.734 16.2611 204.959 16.8578 205.407C17.4545 205.854 17.9206 206.488 18.2562 207.309C18.5919 208.129 18.7618 209.084 18.7659 210.174C18.7618 211.268 18.5919 212.227 18.2562 213.052C17.9206 213.872 17.4545 214.506 16.8578 214.954C16.2611 215.397 15.5795 215.619 14.8129 215.619C14.0463 215.619 13.3647 215.397 12.768 214.954C12.1713 214.506 11.7072 213.872 11.3757 213.052C11.0442 212.227 10.8806 211.268 10.8847 210.174C10.8806 209.084 11.0442 208.129 11.3757 207.309C11.7072 206.488 12.1713 205.854 12.768 205.407C13.3647 204.959 14.0463 204.734 14.8129 204.729ZM12.19 210.174C12.19 211.011 12.2998 211.749 12.5194 212.387C12.7431 213.025 13.0539 213.518 13.4517 213.866C13.8495 214.214 14.3032 214.388 14.8129 214.388C15.3308 214.388 15.7866 214.214 16.1803 213.866C16.5781 213.518 16.8868 213.027 17.1064 212.393C17.326 211.755 17.4358 211.015 17.4358 210.174C17.4358 209.337 17.326 208.602 17.1064 207.968C16.8868 207.334 16.5781 206.843 16.1803 206.495C15.7866 206.142 15.3308 205.964 14.8129 205.96C14.3032 205.964 13.8495 206.142 13.4517 206.495C13.0539 206.843 12.7431 207.336 12.5194 207.974C12.2998 208.608 12.19 209.341 12.19 210.174ZM21.3516 203.524H22.7314V209.764H25.3419V210.945H22.7314V219.149H21.3516V203.524ZM31.4639 206.42C31.4639 207.108 31.6338 207.771 31.9736 208.409C32.3134 209.043 32.7858 209.602 33.3907 210.087C33.9999 210.572 34.6918 210.941 35.4667 211.193L34.7581 212.263C33.8507 211.956 33.051 211.494 32.359 210.876C31.667 210.259 31.1449 209.54 30.7927 208.72C30.4487 209.611 29.9266 210.392 29.2264 211.063C28.5261 211.734 27.7098 212.238 26.7775 212.573L26.0565 211.504C26.8355 211.227 27.5275 210.829 28.1324 210.311C28.7374 209.793 29.2098 209.196 29.5496 208.521C29.8935 207.845 30.0675 207.145 30.0717 206.42V205.749H26.417V204.618H35.0565V205.749H31.4639V206.42ZM28.2195 213.804H38.736V219.149H37.3562V214.935H28.2195V213.804ZM37.3562 203.524H38.736V212.971H37.3562V203.524ZM59.4328 214.127H52.9811V219.174H51.6262V214.127H45.1869V212.971H59.4328V214.127ZM46.082 210.647C47.0184 210.522 47.9114 210.263 48.7608 209.87C49.6144 209.472 50.3043 208.987 50.8306 208.415C51.3568 207.839 51.622 207.236 51.6262 206.606V206.594H46.5668V205.463H51.6262V203.511H52.9811V205.463H58.053V206.594H52.9936V206.606C52.9936 207.236 53.2546 207.839 53.7767 208.415C54.2988 208.987 54.9846 209.472 55.834 209.87C56.6835 210.263 57.5764 210.522 58.5129 210.647L58.0032 211.765C57.1911 211.641 56.4121 211.428 55.6662 211.125C54.9204 210.818 54.2553 210.439 53.6711 209.988C53.0909 209.536 52.6393 209.033 52.3161 208.477C51.9887 209.037 51.5309 209.542 50.9425 209.994C50.3582 210.446 49.6911 210.823 48.9411 211.125C48.1911 211.428 47.4079 211.641 46.5916 211.765L46.082 210.647ZM72.4789 209.876H75.0148V211.044H72.4789V219.137H71.0991V203.524H72.4789V209.876ZM60.483 215.084C62.4927 214.086 64.0466 212.849 65.1446 211.374C66.2468 209.894 66.8767 208.222 67.0341 206.358H61.2165V205.202H68.4388C68.4347 206.722 68.1819 208.158 67.6805 209.509C67.1833 210.86 66.4002 212.103 65.3311 213.238C64.2662 214.374 62.9071 215.35 61.2538 216.166L60.483 215.084ZM84.6672 209.776H81.5098V211.958C83.1258 211.883 84.5471 211.778 85.7736 211.641L85.873 212.66C83.1507 213.033 79.8109 213.22 75.8537 213.22L75.6424 212.089C77.2998 212.08 78.7957 212.055 80.1299 212.014V209.776H77.0719V204.543H84.5429V205.687H78.4642V208.645H84.6672V209.776ZM78.315 214.413H79.6949V217.658H88.9808V218.801H78.315V214.413ZM87.0788 203.536H88.4587V215.221H87.0788V203.536ZM107.838 215.084H106.458V203.536H107.838V215.084ZM95.2577 212.101C96.0325 211.844 96.7204 211.467 97.3212 210.97C97.9262 210.472 98.3965 209.894 98.7321 209.236C99.0677 208.577 99.2356 207.887 99.2356 207.166V206.756H95.6306V205.637H99.2356V203.598H100.628V205.637H104.195V206.756H100.603V207.166C100.603 207.845 100.773 208.496 101.113 209.118C101.457 209.735 101.933 210.278 102.542 210.746C103.151 211.21 103.843 211.562 104.618 211.803L103.934 212.909C103.015 212.611 102.207 212.161 101.51 211.56C100.818 210.959 100.296 210.255 99.9441 209.447C99.6043 210.317 99.0864 211.077 98.3902 211.728C97.6941 212.379 96.882 212.863 95.9538 213.182L95.2577 212.101ZM97.7438 214.003H99.1237V217.658H108.323V218.801H97.7438V214.003ZM122.487 205.91C122.487 206.577 122.479 207.153 122.463 207.638C122.45 208.123 122.411 208.674 122.344 209.292C122.278 209.905 122.177 210.56 122.04 211.256H124.377V212.399H117.913V219.174H116.533V212.399H110.131V211.256H120.635C120.784 210.56 120.894 209.903 120.965 209.285C121.035 208.668 121.079 208.117 121.095 207.632C121.112 207.143 121.12 206.569 121.12 205.91V205.687H111.921V204.543H122.487V205.91ZM137.423 209.876H139.959V211.044H137.423V219.137H136.043V203.524H137.423V209.876ZM125.427 215.084C127.437 214.086 128.991 212.849 130.089 211.374C131.191 209.894 131.821 208.222 131.978 206.358H126.161V205.202H133.383C133.379 206.722 133.126 208.158 132.625 209.509C132.127 210.86 131.344 212.103 130.275 213.238C129.21 214.374 127.851 215.35 126.198 216.166L125.427 215.084ZM147.79 214.637H150.636V212.685H151.917V218.938H146.484V212.685H147.79V214.637ZM144.931 207.812C144.926 207.108 145.096 206.484 145.44 205.941C145.784 205.399 146.265 204.976 146.882 204.673C147.5 204.371 148.2 204.22 148.983 204.22C149.675 204.22 150.305 204.344 150.873 204.593C151.44 204.837 151.906 205.185 152.271 205.637C152.64 206.089 152.874 206.611 152.973 207.203H156.255V203.524H157.635V211.803H156.255V208.359H152.98C152.888 208.964 152.661 209.497 152.296 209.957C151.935 210.417 151.467 210.773 150.891 211.026C150.319 211.278 149.683 211.405 148.983 211.405C148.2 211.405 147.5 211.254 146.882 210.951C146.265 210.649 145.784 210.226 145.44 209.683C145.096 209.14 144.926 208.517 144.931 207.812ZM146.248 207.812C146.248 208.285 146.364 208.707 146.596 209.08C146.828 209.449 147.152 209.739 147.566 209.95C147.984 210.162 148.457 210.269 148.983 210.274C149.505 210.269 149.971 210.162 150.382 209.95C150.792 209.739 151.113 209.449 151.345 209.08C151.577 208.707 151.693 208.285 151.693 207.812C151.693 207.344 151.577 206.926 151.345 206.557C151.113 206.184 150.792 205.894 150.382 205.687C149.971 205.479 149.505 205.376 148.983 205.376C148.457 205.376 147.984 205.479 147.566 205.687C147.152 205.894 146.828 206.182 146.596 206.551C146.364 206.919 146.248 207.34 146.248 207.812ZM150.636 217.844V215.706H147.79V217.844H150.636ZM152.128 218.006C152.737 217.753 153.259 217.409 153.694 216.974C154.129 216.539 154.459 216.056 154.683 215.526C154.906 214.995 155.02 214.459 155.024 213.916V212.586H156.379V213.916C156.375 214.479 156.483 215.03 156.703 215.569C156.926 216.108 157.256 216.593 157.691 217.024C158.13 217.45 158.658 217.778 159.276 218.006L158.555 219.062C157.855 218.781 157.264 218.381 156.783 217.863C156.303 217.349 155.938 216.754 155.69 216.079C155.428 216.742 155.058 217.332 154.577 217.85C154.096 218.368 153.52 218.772 152.849 219.062L152.128 218.006ZM164.08 204.729C164.785 204.734 165.417 204.93 165.976 205.32C166.539 205.705 166.993 206.256 167.337 206.973C167.681 207.69 167.888 208.529 167.959 209.49H171.464V203.524H172.832V219.174H171.464V210.634H167.971C167.921 211.641 167.727 212.522 167.387 213.276C167.047 214.026 166.591 214.604 166.019 215.01C165.452 215.416 164.805 215.619 164.08 215.619C163.314 215.619 162.632 215.397 162.035 214.954C161.443 214.506 160.981 213.872 160.649 213.052C160.322 212.227 160.16 211.268 160.164 210.174C160.16 209.084 160.322 208.129 160.649 207.309C160.981 206.488 161.443 205.854 162.035 205.407C162.632 204.959 163.314 204.734 164.08 204.729ZM161.482 210.174C161.482 211.011 161.59 211.749 161.805 212.387C162.025 213.025 162.332 213.518 162.725 213.866C163.119 214.214 163.571 214.388 164.08 214.388C164.586 214.388 165.035 214.214 165.429 213.866C165.823 213.518 166.129 213.025 166.349 212.387C166.568 211.749 166.678 211.011 166.678 210.174C166.678 209.341 166.568 208.608 166.349 207.974C166.129 207.336 165.823 206.843 165.429 206.495C165.035 206.142 164.586 205.964 164.08 205.96C163.571 205.964 163.119 206.142 162.725 206.495C162.332 206.843 162.025 207.336 161.805 207.974C161.59 208.608 161.482 209.341 161.482 210.174ZM189.383 217.135H175.075V215.979H178.618V211.765C177.943 211.409 177.416 210.955 177.039 210.404C176.666 209.849 176.48 209.225 176.48 208.533C176.48 207.738 176.722 207.037 177.207 206.432C177.692 205.823 178.367 205.351 179.233 205.015C180.099 204.68 181.084 204.51 182.186 204.506C183.292 204.51 184.278 204.68 185.144 205.015C186.014 205.351 186.692 205.823 187.177 206.432C187.662 207.037 187.904 207.738 187.904 208.533C187.904 209.217 187.722 209.832 187.357 210.379C186.997 210.922 186.487 211.372 185.828 211.728V215.979H189.383V217.135ZM177.81 208.533C177.81 209.105 177.994 209.613 178.363 210.056C178.736 210.495 179.254 210.837 179.917 211.082C180.584 211.322 181.34 211.442 182.186 211.442C183.031 211.442 183.785 211.322 184.448 211.082C185.115 210.837 185.635 210.495 186.008 210.056C186.385 209.613 186.574 209.105 186.574 208.533C186.574 207.957 186.385 207.45 186.008 207.01C185.635 206.571 185.115 206.231 184.448 205.991C183.785 205.751 183.031 205.633 182.186 205.637C181.34 205.633 180.584 205.751 179.917 205.991C179.254 206.231 178.736 206.571 178.363 207.01C177.994 207.45 177.81 207.957 177.81 208.533ZM184.436 215.979V212.269C183.744 212.447 182.994 212.536 182.186 212.536C181.407 212.536 180.669 212.449 179.973 212.275V215.979H184.436Z" fill="#84889A"/>
</svg>
