<svg width="164" height="165" viewBox="0 0 164 165" fill="none" xmlns="http://www.w3.org/2000/svg">
<circle cx="82" cy="82.3604" r="78.99" fill="#FFEBDC" stroke="#FF903F" stroke-width="6.01999"/>
<path d="M49.7871 57.9972L52.822 35.453L63.6608 47.3882L75.8003 24.844L89.2405 43.8518C100.802 37.2212 122.374 20.7939 122.374 20.7939L117.656 51.383L149.504 68.1642L116.121 73.0267L136.064 111.042L91.4082 100.433L95.3102 126.956L66.6957 96.897L45.018 115.021V95.1288L18.5713 98.6652L38.0812 73.0267L21.6062 55.787L49.7871 57.9972Z" fill="white"/>
<path d="M45.1602 78.6523H113.618L107.861 137.304H52.068L45.1602 78.6523Z" fill="#FF903F"/>
<rect x="75.9014" y="78.6523" width="6.9772" height="58.6519" fill="black"/>
<mask id="mask0_2643_6521" style="mask-type:alpha" maskUnits="userSpaceOnUse" x="45" y="78" width="69" height="60">
<path d="M45.1602 78.6523H113.618L107.861 137.304H52.068L45.1602 78.6523Z" fill="#FF903F"/>
</mask>
<g mask="url(#mask0_2643_6521)">
<rect x="112.65" y="95.3643" width="7.91321" height="66.5202" transform="rotate(90 112.65 95.3643)" fill="black"/>
</g>
<path d="M75.371 53.1982L57.3086 64.954L75.905 78.648H79.2295L75.371 53.1982Z" fill="black"/>
<path d="M82.0092 49.5927L78.8314 82.6892L82.8806 78.6569L94.4096 55.3166L82.0092 49.5927Z" fill="black"/>
<path d="M72.3426 38.0689C72.3426 39.1428 72.1544 40.0716 71.7782 40.8555C71.4098 41.6315 70.9003 42.2742 70.2497 42.7838C69.6069 43.2854 68.8505 43.6577 67.9804 43.9007C67.1182 44.1359 66.1893 44.2535 65.1938 44.2535C64.8097 44.2535 64.3865 44.2025 63.924 44.1006C63.4693 43.9987 63.0069 43.8733 62.5366 43.7244C62.0662 43.5676 61.6116 43.403 61.1727 43.2305C60.7415 43.0503 60.3574 42.8817 60.0204 42.725L60.5377 38.1159C61.204 38.5157 61.9408 38.8214 62.7482 39.033C63.5634 39.2368 64.3629 39.3387 65.1468 39.3387C65.2957 39.3387 65.476 39.3348 65.6876 39.327C65.8993 39.3113 66.0992 39.276 66.2873 39.2211C66.4833 39.1584 66.6479 39.0683 66.7811 38.9507C66.9144 38.8331 66.981 38.6646 66.981 38.4451C66.981 38.2962 66.934 38.1708 66.8399 38.0689C66.7459 37.9591 66.6244 37.8729 66.4754 37.8102C66.3265 37.7397 66.158 37.6887 65.9698 37.6574C65.7817 37.6182 65.5975 37.5907 65.4172 37.575C65.2369 37.5594 65.0684 37.5515 64.9116 37.5515C64.7549 37.5515 64.6294 37.5515 64.5354 37.5515C63.8613 37.5515 63.2459 37.4457 62.6894 37.2341C62.1407 37.0224 61.6665 36.7246 61.2667 36.3405C60.8748 35.9486 60.5691 35.4782 60.3496 34.9295C60.1301 34.373 60.0204 33.7577 60.0204 33.0836C60.0204 32.1586 60.2046 31.3317 60.573 30.6027C60.9493 29.8659 61.447 29.2427 62.0662 28.7332C62.6933 28.2158 63.4106 27.82 64.2179 27.5456C65.0253 27.2713 65.8601 27.1341 66.7223 27.1341C67.1064 27.1341 67.5023 27.1498 67.9099 27.1812C68.3175 27.2047 68.7212 27.2517 69.1209 27.3222C69.5285 27.3928 69.9244 27.4829 70.3085 27.5927C70.6926 27.7024 71.057 27.8396 71.4019 28.0042L70.9551 32.7779C70.4221 32.5976 69.8617 32.4486 69.2738 32.3311C68.6937 32.2057 68.1254 32.1429 67.5689 32.1429C67.467 32.1429 67.3337 32.1469 67.1691 32.1547C67.0124 32.1547 66.8438 32.1665 66.6635 32.19C66.4911 32.2057 66.3147 32.2331 66.1344 32.2723C65.9542 32.3115 65.7935 32.3663 65.6524 32.4369C65.5113 32.4996 65.3976 32.5858 65.3114 32.6956C65.2252 32.8053 65.186 32.9346 65.1938 33.0836C65.2017 33.256 65.2644 33.3893 65.3819 33.4833C65.5074 33.5774 65.6641 33.6479 65.8523 33.695C66.0482 33.7342 66.2599 33.7538 66.4872 33.7538C66.7223 33.7538 66.9536 33.7498 67.1809 33.742C67.4082 33.7263 67.6198 33.7146 67.8158 33.7067C68.0118 33.6911 68.1725 33.6871 68.2979 33.695C68.925 33.7342 69.4893 33.8674 69.991 34.0947C70.4927 34.3221 70.9159 34.6238 71.2608 35.0001C71.6136 35.3763 71.8801 35.8271 72.0604 36.3522C72.2485 36.8696 72.3426 37.4418 72.3426 38.0689ZM87.0464 43.0777L81.2145 43.8302L80.5091 41.1729H77.8283L77.2404 43.8302L71.2439 43.2423L75.9235 27.5809L82.4609 27.2517L87.0464 43.0777ZM80.0858 37.575L79.1922 33.4833L78.3221 37.575H80.0858ZM97.5645 27.5104L97.4469 32.4957L93.9431 32.6368L93.5198 43.548L88.558 43.8067L88.1112 32.8954L84.6074 33.0836L84.7485 27.5339L97.5645 27.5104Z" fill="black"/>
</svg>
