<svg width="164" height="165" viewBox="0 0 164 165" fill="none" xmlns="http://www.w3.org/2000/svg">
<circle cx="82" cy="82.3604" r="78.99" fill="#F7F7FA" stroke="#E8E8ED" stroke-width="6.01999"/>
<path d="M49.7871 57.9963L52.822 35.4521L63.6608 47.3872L75.8003 24.843L89.2405 43.8509C100.802 37.2202 122.374 20.793 122.374 20.793L117.656 51.382L149.504 68.1632L116.121 73.0257L136.064 111.041L91.4082 100.432L95.3102 126.955L66.6957 96.896L45.018 115.02V95.1279L18.5713 98.6642L38.0812 73.0257L21.6062 55.786L49.7871 57.9963Z" fill="#E8E8ED"/>
<path d="M45.1602 78.6514H113.618L107.861 137.303H52.068L45.1602 78.6514Z" fill="#F5D4BC"/>
<rect x="75.8994" y="78.6514" width="6.9772" height="58.6519" fill="#D4AF95"/>
<mask id="mask0_2643_6493" style="mask-type:alpha" maskUnits="userSpaceOnUse" x="45" y="78" width="69" height="60">
<path d="M45.1602 78.6514H113.618L107.861 137.303H52.068L45.1602 78.6514Z" fill="#FF903F"/>
</mask>
<g mask="url(#mask0_2643_6493)">
<rect x="112.65" y="95.3643" width="7.91321" height="66.5202" transform="rotate(90 112.65 95.3643)" fill="#D4AF95"/>
</g>
<path d="M75.37 53.1973L57.3076 64.953L75.904 78.6471H79.2285L75.37 53.1973Z" fill="#D4AF95"/>
<path d="M82.0082 49.5918L78.8304 82.6882L82.8796 78.656L94.4087 55.3156L82.0082 49.5918Z" fill="#D4AF95"/>
<path d="M72.3426 38.0679C72.3426 39.1418 72.1544 40.0706 71.7782 40.8545C71.4098 41.6305 70.9003 42.2733 70.2497 42.7828C69.6069 43.2844 68.8505 43.6568 67.9804 43.8998C67.1182 44.1349 66.1893 44.2525 65.1938 44.2525C64.8097 44.2525 64.3865 44.2015 63.924 44.0996C63.4693 43.9977 63.0069 43.8723 62.5366 43.7234C62.0662 43.5666 61.6116 43.402 61.1727 43.2296C60.7415 43.0493 60.3574 42.8808 60.0204 42.724L60.5377 38.1149C61.204 38.5147 61.9408 38.8204 62.7482 39.032C63.5634 39.2358 64.3629 39.3377 65.1468 39.3377C65.2957 39.3377 65.476 39.3338 65.6876 39.326C65.8993 39.3103 66.0992 39.275 66.2873 39.2202C66.4833 39.1575 66.6479 39.0673 66.7811 38.9497C66.9144 38.8322 66.981 38.6636 66.981 38.4441C66.981 38.2952 66.934 38.1698 66.8399 38.0679C66.7459 37.9582 66.6244 37.8719 66.4754 37.8092C66.3265 37.7387 66.158 37.6877 65.9698 37.6564C65.7817 37.6172 65.5975 37.5897 65.4172 37.5741C65.2369 37.5584 65.0684 37.5506 64.9116 37.5506C64.7549 37.5506 64.6294 37.5506 64.5354 37.5506C63.8613 37.5506 63.2459 37.4447 62.6894 37.2331C62.1407 37.0215 61.6665 36.7236 61.2667 36.3395C60.8748 35.9476 60.5691 35.4773 60.3496 34.9286C60.1301 34.372 60.0204 33.7567 60.0204 33.0826C60.0204 32.1576 60.2046 31.3307 60.573 30.6017C60.9493 29.8649 61.447 29.2417 62.0662 28.7322C62.6933 28.2149 63.4106 27.819 64.2179 27.5447C65.0253 27.2703 65.8601 27.1331 66.7223 27.1331C67.1064 27.1331 67.5023 27.1488 67.9099 27.1802C68.3175 27.2037 68.7212 27.2507 69.1209 27.3213C69.5285 27.3918 69.9244 27.482 70.3085 27.5917C70.6926 27.7014 71.057 27.8386 71.4019 28.0032L70.9551 32.7769C70.4221 32.5966 69.8617 32.4477 69.2738 32.3301C68.6937 32.2047 68.1254 32.142 67.5689 32.142C67.467 32.142 67.3337 32.1459 67.1691 32.1537C67.0124 32.1537 66.8438 32.1655 66.6635 32.189C66.4911 32.2047 66.3147 32.2321 66.1344 32.2713C65.9542 32.3105 65.7935 32.3654 65.6524 32.4359C65.5113 32.4986 65.3976 32.5848 65.3114 32.6946C65.2252 32.8043 65.186 32.9337 65.1938 33.0826C65.2017 33.255 65.2644 33.3883 65.3819 33.4824C65.5074 33.5764 65.6641 33.647 65.8523 33.694C66.0482 33.7332 66.2599 33.7528 66.4872 33.7528C66.7223 33.7528 66.9536 33.7489 67.1809 33.741C67.4082 33.7254 67.6198 33.7136 67.8158 33.7058C68.0118 33.6901 68.1725 33.6862 68.2979 33.694C68.925 33.7332 69.4893 33.8664 69.991 34.0938C70.4927 34.3211 70.9159 34.6229 71.2608 34.9991C71.6136 35.3754 71.8801 35.8261 72.0604 36.3513C72.2485 36.8686 72.3426 37.4408 72.3426 38.0679ZM87.0464 43.0767L81.2145 43.8292L80.5091 41.172H77.8283L77.2404 43.8292L71.2439 43.2413L75.9235 27.5799L82.4609 27.2507L87.0464 43.0767ZM80.0858 37.5741L79.1922 33.4824L78.3221 37.5741H80.0858ZM97.5645 27.5094L97.4469 32.4947L93.9431 32.6358L93.5198 43.547L88.558 43.8057L88.1112 32.8945L84.6074 33.0826L84.7485 27.5329L97.5645 27.5094Z" fill="#CECECE"/>
</svg>
