<svg width="164" height="165" viewBox="0 0 164 165" fill="none" xmlns="http://www.w3.org/2000/svg">
<circle cx="82" cy="82.1377" r="78.99" fill="#F7F7FA" stroke="#E8E8ED" stroke-width="6.01999"/>
<path d="M49.7871 57.7746L52.822 35.2304L63.6608 47.1655L75.8003 24.6213L89.2405 43.6292C100.802 36.9986 122.374 20.5713 122.374 20.5713L117.656 51.1603L149.504 67.9416L116.121 72.804L136.064 110.82L91.4082 100.211L95.3102 126.733L66.6957 96.6744L45.018 114.798V94.9062L18.5713 98.4425L38.0812 72.804L21.6062 55.5644L49.7871 57.7746Z" fill="#E8E8ED"/>
<path d="M45.1602 78.4297H113.618L107.861 137.082H52.068L45.1602 78.4297Z" fill="#F5D4BC"/>
<rect x="75.8994" y="78.4297" width="6.9772" height="58.6519" fill="#D4AF95"/>
<mask id="mask0_2643_6508" style="mask-type:alpha" maskUnits="userSpaceOnUse" x="45" y="78" width="69" height="60">
<path d="M45.1602 78.4297H113.618L107.861 137.082H52.068L45.1602 78.4297Z" fill="#FF903F"/>
</mask>
<g mask="url(#mask0_2643_6508)">
<rect x="112.65" y="95.1416" width="7.91321" height="66.5202" transform="rotate(90 112.65 95.1416)" fill="#D4AF95"/>
</g>
<path d="M75.37 52.9756L57.3076 64.7313L75.904 78.4254H79.2285L75.37 52.9756Z" fill="#D4AF95"/>
<path d="M82.0082 49.3701L78.8304 82.4665L82.8796 78.4343L94.4087 55.0939L82.0082 49.3701Z" fill="#D4AF95"/>
<path d="M70.9094 37.8462C70.9094 38.9201 70.7213 39.849 70.345 40.6328C69.9766 41.4088 69.4671 42.0516 68.8165 42.5611C68.1738 43.0628 67.4173 43.4351 66.5473 43.6781C65.685 43.9132 64.7562 44.0308 63.7607 44.0308C63.3766 44.0308 62.9533 43.9799 62.4908 43.878C62.0362 43.7761 61.5737 43.6507 61.1034 43.5017C60.6331 43.3449 60.1785 43.1803 59.7395 43.0079C59.3084 42.8276 58.9243 42.6591 58.5872 42.5023L59.1046 37.8932C59.7708 38.293 60.5077 38.5987 61.315 38.8104C62.1302 39.0142 62.9298 39.1161 63.7136 39.1161C63.8626 39.1161 64.0428 39.1121 64.2545 39.1043C64.4661 39.0886 64.666 39.0534 64.8541 38.9985C65.0501 38.9358 65.2147 38.8456 65.348 38.7281C65.4812 38.6105 65.5478 38.4419 65.5478 38.2225C65.5478 38.0735 65.5008 37.9481 65.4068 37.8462C65.3127 37.7365 65.1912 37.6503 65.0423 37.5875C64.8933 37.517 64.7248 37.466 64.5367 37.4347C64.3486 37.3955 64.1643 37.3681 63.9841 37.3524C63.8038 37.3367 63.6352 37.3289 63.4785 37.3289C63.3217 37.3289 63.1963 37.3289 63.1022 37.3289C62.4281 37.3289 61.8128 37.2231 61.2562 37.0114C60.7076 36.7998 60.2333 36.5019 59.8336 36.1178C59.4416 35.7259 59.1359 35.2556 58.9164 34.7069C58.697 34.1504 58.5872 33.535 58.5872 32.8609C58.5872 31.936 58.7714 31.109 59.1398 30.38C59.5161 29.6432 60.0138 29.02 60.6331 28.5105C61.2602 27.9932 61.9774 27.5973 62.7848 27.323C63.5921 27.0486 64.4269 26.9115 65.2892 26.9115C65.6733 26.9115 66.0691 26.9271 66.4767 26.9585C66.8843 26.982 67.288 27.029 67.6878 27.0996C68.0954 27.1701 68.4912 27.2603 68.8753 27.37C69.2594 27.4798 69.6239 27.6169 69.9688 27.7815L69.522 32.5552C68.989 32.3749 68.4285 32.226 67.8406 32.1084C67.2606 31.983 66.6923 31.9203 66.1357 31.9203C66.0338 31.9203 65.9006 31.9242 65.736 31.932C65.5792 31.932 65.4107 31.9438 65.2304 31.9673C65.0579 31.983 64.8816 32.0104 64.7013 32.0496C64.521 32.0888 64.3603 32.1437 64.2192 32.2142C64.0781 32.2769 63.9645 32.3632 63.8782 32.4729C63.792 32.5826 63.7528 32.712 63.7607 32.8609C63.7685 33.0334 63.8312 33.1666 63.9488 33.2607C64.0742 33.3547 64.231 33.4253 64.4191 33.4723C64.6151 33.5115 64.8267 33.5311 65.054 33.5311C65.2892 33.5311 65.5204 33.5272 65.7477 33.5193C65.975 33.5037 66.1867 33.4919 66.3826 33.4841C66.5786 33.4684 66.7393 33.4645 66.8647 33.4723C67.4918 33.5115 68.0562 33.6448 68.5578 33.8721C69.0595 34.0994 69.4828 34.4012 69.8277 34.7774C70.1804 35.1537 70.4469 35.6044 70.6272 36.1296C70.8153 36.6469 70.9094 37.2191 70.9094 37.8462ZM84.9666 27.3112C84.6138 30.0704 84.312 32.8178 84.0612 35.5534C83.8104 38.2813 83.5713 41.0287 83.344 43.7957L78.5233 44.1484L78.7349 42.3377C78.5782 42.518 78.3939 42.6748 78.1823 42.808C77.9785 42.9413 77.759 43.051 77.5239 43.1372C77.2887 43.2156 77.0457 43.2744 76.7949 43.3136C76.5441 43.3449 76.305 43.3567 76.0777 43.3489C75.5446 43.341 75.043 43.2391 74.5727 43.0432C74.1023 42.8394 73.6712 42.5729 73.2793 42.2436C72.8874 41.9066 72.5346 41.5186 72.2211 41.0796C71.9076 40.6328 71.6411 40.1664 71.4216 39.6804C71.2099 39.1866 71.0453 38.6849 70.9277 38.1754C70.818 37.6659 70.7631 37.1721 70.7631 36.694C70.7631 35.9885 70.7749 35.2595 70.7984 34.507C70.8298 33.7467 70.8807 32.9863 70.9513 32.226C71.0218 31.4657 71.1119 30.7132 71.2217 29.9685C71.3393 29.2238 71.4843 28.5105 71.6567 27.8286C72.613 27.8756 73.5732 27.9187 74.5374 27.9579C75.5015 27.9971 76.4617 28.0089 77.418 27.9932C77.2378 28.6751 77.0575 29.361 76.8772 30.0508C76.7047 30.7328 76.548 31.4225 76.4069 32.1202C76.2658 32.81 76.1521 33.5037 76.0659 34.2013C75.9797 34.8989 75.9366 35.6044 75.9366 36.3177C75.9366 36.4823 75.9444 36.7175 75.9601 37.0232C75.9758 37.3289 76.015 37.6307 76.0777 37.9285C76.1482 38.2264 76.2501 38.489 76.3834 38.7163C76.5245 38.9358 76.7204 39.0455 76.9713 39.0455C77.2691 39.0455 77.5356 38.9201 77.7708 38.6693C78.0059 38.4106 78.2137 38.0657 78.3939 37.6346C78.5742 37.2035 78.7271 36.7057 78.8525 36.1413C78.9858 35.577 79.0955 34.9891 79.1817 34.3777C79.2758 33.7584 79.3502 33.1353 79.4051 32.5082C79.46 31.8811 79.4992 31.2932 79.5227 30.7445C79.554 30.188 79.5736 29.6902 79.5815 29.2513C79.5972 28.8123 79.605 28.4713 79.605 28.2283C79.605 28.0716 79.6011 27.9187 79.5932 27.7698C79.5854 27.6209 79.5736 27.468 79.558 27.3112C80.0675 27.3269 80.5731 27.3387 81.0747 27.3465C81.5764 27.3543 82.082 27.3583 82.5915 27.3583C82.9834 27.3583 83.3753 27.3583 83.7673 27.3583C84.167 27.3504 84.5668 27.3347 84.9666 27.3112ZM99.5411 37.9168C99.5411 38.8025 99.5293 39.6804 99.5058 40.5505C99.4901 41.4128 99.4627 42.2828 99.4235 43.1607L92.651 43.0432C92.8861 41.6557 93.0899 40.2722 93.2624 38.8927C93.4348 37.5052 93.5211 36.1061 93.5211 34.6951C93.5211 34.5932 93.5171 34.4286 93.5093 34.2013C93.5015 33.974 93.4858 33.7192 93.4623 33.437C93.4388 33.147 93.4035 32.8531 93.3565 32.5552C93.3173 32.2495 93.2585 31.9712 93.1801 31.7204C93.1095 31.4696 93.0194 31.2658 92.9097 31.109C92.8078 30.9444 92.6823 30.8621 92.5334 30.8621C92.2669 30.8621 92.0396 30.9405 91.8515 31.0972C91.6712 31.254 91.5183 31.4578 91.3929 31.7086C91.2753 31.9516 91.1813 32.226 91.1107 32.5317C91.0402 32.8374 90.9853 33.1431 90.9461 33.4488C90.9147 33.7545 90.8912 34.0445 90.8756 34.3189C90.8677 34.5854 90.8638 34.8049 90.8638 34.9773C90.8246 36.3647 90.7933 37.7443 90.7697 39.1161C90.7462 40.48 90.7149 41.8595 90.6757 43.2548L84.6792 43.5135C84.836 40.7465 84.9849 37.9952 85.126 35.2595C85.2749 32.5239 85.3925 29.7725 85.4787 27.0055L91.0284 26.7233L90.9814 28.6046C91.2009 28.3381 91.436 28.0872 91.6868 27.8521C91.9455 27.6169 92.2199 27.4171 92.5099 27.2524C92.7999 27.08 93.1056 26.9467 93.427 26.8527C93.7562 26.7508 94.1011 26.6998 94.4617 26.6998C95.128 26.6998 95.7119 26.8096 96.2136 27.029C96.7153 27.2485 97.1464 27.5464 97.507 27.9226C97.8675 28.2989 98.1693 28.7457 98.4123 29.263C98.6553 29.7725 98.8513 30.3173 99.0002 30.8974C99.1491 31.4774 99.2628 32.0849 99.3412 32.7198C99.4196 33.3469 99.4705 33.9661 99.494 34.5776C99.5254 35.189 99.5411 35.7808 99.5411 36.353C99.5411 36.9252 99.5411 37.4465 99.5411 37.9168Z" fill="#CECECE"/>
</svg>
