<svg width="164" height="165" viewBox="0 0 164 165" fill="none" xmlns="http://www.w3.org/2000/svg">
<circle cx="82" cy="82.1387" r="78.99" fill="#FFEBDC" stroke="#FF903F" stroke-width="6.01999"/>
<path d="M49.7871 57.7756L52.822 35.2314L63.6608 47.1665L75.8003 24.6223L89.2405 43.6302C100.802 36.9995 122.374 20.5723 122.374 20.5723L117.656 51.1613L149.504 67.9425L116.121 72.805L136.064 110.821L91.4082 100.212L95.3102 126.734L66.6957 96.6753L45.018 114.799V94.9072L18.5713 98.4435L38.0812 72.805L21.6062 55.5653L49.7871 57.7756Z" fill="white"/>
<path d="M45.1602 78.4316H113.618L107.861 137.084H52.068L45.1602 78.4316Z" fill="#FF903F"/>
<rect x="75.9014" y="78.4316" width="6.9772" height="58.6519" fill="black"/>
<mask id="mask0_2643_6535" style="mask-type:alpha" maskUnits="userSpaceOnUse" x="45" y="78" width="69" height="60">
<path d="M45.1602 78.4316H113.618L107.861 137.084H52.068L45.1602 78.4316Z" fill="#FF903F"/>
</mask>
<g mask="url(#mask0_2643_6535)">
<rect x="112.65" y="95.1436" width="7.91321" height="66.5202" transform="rotate(90 112.65 95.1436)" fill="black"/>
</g>
<path d="M75.371 52.9775L57.3086 64.7333L75.905 78.4273H79.2295L75.371 52.9775Z" fill="black"/>
<path d="M82.0092 49.372L78.8314 82.4685L82.8806 78.4362L94.4096 55.0959L82.0092 49.372Z" fill="black"/>
<path d="M70.9094 37.8472C70.9094 38.9211 70.7213 39.8499 70.345 40.6338C69.9766 41.4098 69.4671 42.0526 68.8165 42.5621C68.1738 43.0637 67.4173 43.4361 66.5473 43.6791C65.685 43.9142 64.7562 44.0318 63.7607 44.0318C63.3766 44.0318 62.9533 43.9808 62.4908 43.8789C62.0362 43.777 61.5737 43.6516 61.1034 43.5027C60.6331 43.3459 60.1785 43.1813 59.7395 43.0089C59.3084 42.8286 58.9243 42.6601 58.5872 42.5033L59.1046 37.8942C59.7708 38.294 60.5077 38.5997 61.315 38.8113C62.1302 39.0151 62.9298 39.117 63.7136 39.117C63.8626 39.117 64.0428 39.1131 64.2545 39.1053C64.4661 39.0896 64.666 39.0543 64.8541 38.9995C65.0501 38.9368 65.2147 38.8466 65.348 38.729C65.4812 38.6115 65.5478 38.4429 65.5478 38.2234C65.5478 38.0745 65.5008 37.9491 65.4068 37.8472C65.3127 37.7375 65.1912 37.6512 65.0423 37.5885C64.8933 37.518 64.7248 37.467 64.5367 37.4357C64.3486 37.3965 64.1643 37.369 63.9841 37.3534C63.8038 37.3377 63.6352 37.3299 63.4785 37.3299C63.3217 37.3299 63.1963 37.3299 63.1022 37.3299C62.4281 37.3299 61.8128 37.224 61.2562 37.0124C60.7076 36.8008 60.2333 36.5029 59.8336 36.1188C59.4416 35.7269 59.1359 35.2566 58.9164 34.7079C58.697 34.1513 58.5872 33.536 58.5872 32.8619C58.5872 31.9369 58.7714 31.11 59.1398 30.381C59.5161 29.6442 60.0138 29.021 60.6331 28.5115C61.2602 27.9942 61.9774 27.5983 62.7848 27.324C63.5921 27.0496 64.4269 26.9124 65.2892 26.9124C65.6733 26.9124 66.0691 26.9281 66.4767 26.9595C66.8843 26.983 67.288 27.03 67.6878 27.1006C68.0954 27.1711 68.4912 27.2613 68.8753 27.371C69.2594 27.4807 69.6239 27.6179 69.9688 27.7825L69.522 32.5562C68.989 32.3759 68.4285 32.227 67.8406 32.1094C67.2606 31.984 66.6923 31.9213 66.1357 31.9213C66.0338 31.9213 65.9006 31.9252 65.736 31.933C65.5792 31.933 65.4107 31.9448 65.2304 31.9683C65.0579 31.984 64.8816 32.0114 64.7013 32.0506C64.521 32.0898 64.3603 32.1447 64.2192 32.2152C64.0781 32.2779 63.9645 32.3641 63.8782 32.4739C63.792 32.5836 63.7528 32.713 63.7607 32.8619C63.7685 33.0343 63.8312 33.1676 63.9488 33.2617C64.0742 33.3557 64.231 33.4263 64.4191 33.4733C64.6151 33.5125 64.8267 33.5321 65.054 33.5321C65.2892 33.5321 65.5204 33.5282 65.7477 33.5203C65.975 33.5046 66.1867 33.4929 66.3826 33.4851C66.5786 33.4694 66.7393 33.4655 66.8647 33.4733C67.4918 33.5125 68.0562 33.6457 68.5578 33.8731C69.0595 34.1004 69.4828 34.4022 69.8277 34.7784C70.1804 35.1547 70.4469 35.6054 70.6272 36.1306C70.8153 36.6479 70.9094 37.2201 70.9094 37.8472ZM84.9666 27.3122C84.6138 30.0714 84.312 32.8188 84.0612 35.5544C83.8104 38.2822 83.5713 41.0296 83.344 43.7966L78.5233 44.1494L78.7349 42.3387C78.5782 42.519 78.3939 42.6757 78.1823 42.809C77.9785 42.9422 77.759 43.052 77.5239 43.1382C77.2887 43.2166 77.0457 43.2754 76.7949 43.3146C76.5441 43.3459 76.305 43.3577 76.0777 43.3498C75.5446 43.342 75.043 43.2401 74.5727 43.0441C74.1023 42.8403 73.6712 42.5738 73.2793 42.2446C72.8874 41.9076 72.5346 41.5195 72.2211 41.0806C71.9076 40.6338 71.6411 40.1674 71.4216 39.6814C71.2099 39.1876 71.0453 38.6859 70.9277 38.1764C70.818 37.6669 70.7631 37.1731 70.7631 36.6949C70.7631 35.9895 70.7749 35.2605 70.7984 34.508C70.8298 33.7476 70.8807 32.9873 70.9513 32.227C71.0218 31.4666 71.1119 30.7141 71.2217 29.9695C71.3393 29.2248 71.4843 28.5115 71.6567 27.8296C72.613 27.8766 73.5732 27.9197 74.5374 27.9589C75.5015 27.9981 76.4617 28.0098 77.418 27.9942C77.2378 28.6761 77.0575 29.362 76.8772 30.0518C76.7047 30.7337 76.548 31.4235 76.4069 32.1211C76.2658 32.8109 76.1521 33.5046 76.0659 34.2023C75.9797 34.8999 75.9366 35.6054 75.9366 36.3187C75.9366 36.4833 75.9444 36.7184 75.9601 37.0241C75.9758 37.3299 76.015 37.6316 76.0777 37.9295C76.1482 38.2274 76.2501 38.49 76.3834 38.7173C76.5245 38.9368 76.7204 39.0465 76.9713 39.0465C77.2691 39.0465 77.5356 38.9211 77.7708 38.6702C78.0059 38.4116 78.2137 38.0667 78.3939 37.6356C78.5742 37.2044 78.7271 36.7067 78.8525 36.1423C78.9858 35.5779 79.0955 34.99 79.1817 34.3786C79.2758 33.7594 79.3502 33.1362 79.4051 32.5092C79.46 31.8821 79.4992 31.2942 79.5227 30.7455C79.554 30.1889 79.5736 29.6912 79.5815 29.2522C79.5972 28.8133 79.605 28.4723 79.605 28.2293C79.605 28.0725 79.6011 27.9197 79.5932 27.7708C79.5854 27.6218 79.5736 27.469 79.558 27.3122C80.0675 27.3279 80.5731 27.3396 81.0747 27.3475C81.5764 27.3553 82.082 27.3592 82.5915 27.3592C82.9834 27.3592 83.3753 27.3592 83.7673 27.3592C84.167 27.3514 84.5668 27.3357 84.9666 27.3122ZM99.5411 37.9177C99.5411 38.8035 99.5293 39.6814 99.5058 40.5515C99.4901 41.4137 99.4627 42.2838 99.4235 43.1617L92.651 43.0441C92.8861 41.6567 93.0899 40.2732 93.2624 38.8936C93.4348 37.5062 93.5211 36.107 93.5211 34.6961C93.5211 34.5942 93.5171 34.4296 93.5093 34.2023C93.5015 33.975 93.4858 33.7202 93.4623 33.438C93.4388 33.148 93.4035 32.854 93.3565 32.5562C93.3173 32.2505 93.2585 31.9722 93.1801 31.7214C93.1095 31.4705 93.0194 31.2667 92.9097 31.11C92.8078 30.9454 92.6823 30.8631 92.5334 30.8631C92.2669 30.8631 92.0396 30.9414 91.8515 31.0982C91.6712 31.255 91.5183 31.4588 91.3929 31.7096C91.2753 31.9526 91.1813 32.227 91.1107 32.5327C91.0402 32.8384 90.9853 33.1441 90.9461 33.4498C90.9147 33.7555 90.8912 34.0455 90.8756 34.3199C90.8677 34.5864 90.8638 34.8058 90.8638 34.9783C90.8246 36.3657 90.7933 37.7453 90.7697 39.117C90.7462 40.4809 90.7149 41.8605 90.6757 43.2558L84.6792 43.5145C84.836 40.7475 84.9849 37.9961 85.126 35.2605C85.2749 32.5248 85.3925 29.7735 85.4787 27.0065L91.0284 26.7243L90.9814 28.6056C91.2009 28.3391 91.436 28.0882 91.6868 27.8531C91.9455 27.6179 92.2199 27.418 92.5099 27.2534C92.7999 27.081 93.1056 26.9477 93.427 26.8537C93.7562 26.7518 94.1011 26.7008 94.4617 26.7008C95.128 26.7008 95.7119 26.8105 96.2136 27.03C96.7153 27.2495 97.1464 27.5474 97.507 27.9236C97.8675 28.2999 98.1693 28.7467 98.4123 29.264C98.6553 29.7735 98.8513 30.3183 99.0002 30.8983C99.1491 31.4784 99.2628 32.0859 99.3412 32.7208C99.4196 33.3479 99.4705 33.9671 99.494 34.5785C99.5254 35.1899 99.5411 35.7817 99.5411 36.354C99.5411 36.9262 99.5411 37.4474 99.5411 37.9177Z" fill="black"/>
</svg>
