<svg width="164" height="165" viewBox="0 0 164 165" fill="none" xmlns="http://www.w3.org/2000/svg">
<circle cx="82" cy="82.0684" r="78.99" fill="#F7F7FA" stroke="#E8E8ED" stroke-width="6.01999"/>
<path d="M49.7871 57.7052L52.822 35.1611L63.6608 47.0962L75.8003 24.552L89.2405 43.5599C100.802 36.9292 122.374 20.502 122.374 20.502L117.656 51.091L149.504 67.8722L116.121 72.7347L136.064 110.75L91.4082 100.141L95.3102 126.664L66.6957 96.605L45.018 114.729V94.8368L18.5713 98.3732L38.0812 72.7347L21.6062 55.495L49.7871 57.7052Z" fill="#E8E8ED"/>
<path d="M45.1602 78.3604H113.618L107.861 137.012H52.068L45.1602 78.3604Z" fill="#F5D4BC"/>
<rect x="75.8994" y="78.3604" width="6.9772" height="58.6519" fill="#D4AF95"/>
<mask id="mask0_2643_6438" style="mask-type:alpha" maskUnits="userSpaceOnUse" x="45" y="78" width="69" height="60">
<path d="M45.1602 78.3604H113.618L107.861 137.012H52.068L45.1602 78.3604Z" fill="#FF903F"/>
</mask>
<g mask="url(#mask0_2643_6438)">
<rect x="112.65" y="95.0723" width="7.91321" height="66.5202" transform="rotate(90 112.65 95.0723)" fill="#D4AF95"/>
</g>
<path d="M75.37 52.9062L57.3076 64.662L75.904 78.356H79.2285L75.37 52.9062Z" fill="#D4AF95"/>
<path d="M82.0082 49.3007L78.8304 82.3972L82.8796 78.365L94.4087 55.0246L82.0082 49.3007Z" fill="#D4AF95"/>
<path d="M71.4738 26.9832L71.3562 31.9685L67.8524 32.1096L66.9588 43.256L61.997 43.5147L62.0205 32.3683L58.5167 32.5564L58.6578 27.0067L71.4738 26.9832ZM85.3546 43.3266L79.4757 43.6088L79.4286 38.647H76.7243L76.5597 43.7969H71.2922L71.739 27.2654L77.3357 27.5241L76.983 35.9662H79.5932L79.6168 27.1243L84.9783 27.2654L85.3546 43.3266ZM99.7644 27.2419C99.4117 30.0011 99.1099 32.7485 98.8591 35.4841C98.6083 38.2119 98.3692 40.9593 98.1419 43.7263L93.3212 44.0791L93.5328 42.2684C93.376 42.4486 93.1918 42.6054 92.9802 42.7387C92.7764 42.8719 92.5569 42.9817 92.3218 43.0679C92.0866 43.1463 91.8436 43.2051 91.5928 43.2443C91.3419 43.2756 91.1029 43.2874 90.8756 43.2795C90.3425 43.2717 89.8409 43.1698 89.3706 42.9738C88.9002 42.77 88.4691 42.5035 88.0772 42.1743C87.6853 41.8372 87.3325 41.4492 87.019 41.0103C86.7055 40.5635 86.4389 40.0971 86.2195 39.6111C86.0078 39.1173 85.8432 38.6156 85.7256 38.1061C85.6159 37.5966 85.561 37.1028 85.561 36.6246C85.561 35.9192 85.5728 35.1902 85.5963 34.4377C85.6277 33.6773 85.6786 32.917 85.7492 32.1567C85.8197 31.3963 85.9098 30.6438 86.0196 29.8992C86.1372 29.1545 86.2822 28.4412 86.4546 27.7592C87.4109 27.8063 88.3711 27.8494 89.3353 27.8886C90.2994 27.9278 91.2596 27.9395 92.2159 27.9238C92.0357 28.6058 91.8554 29.2917 91.6751 29.9815C91.5026 30.6634 91.3459 31.3532 91.2048 32.0508C91.0637 32.7406 90.95 33.4343 90.8638 34.132C90.7776 34.8296 90.7345 35.5351 90.7345 36.2484C90.7345 36.413 90.7423 36.6481 90.758 36.9538C90.7737 37.2595 90.8128 37.5613 90.8756 37.8592C90.9461 38.1571 91.048 38.4196 91.1813 38.647C91.3223 38.8664 91.5183 38.9762 91.7691 38.9762C92.067 38.9762 92.3335 38.8508 92.5687 38.5999C92.8038 38.3413 93.0116 37.9964 93.1918 37.5652C93.3721 37.1341 93.525 36.6364 93.6504 36.072C93.7836 35.5076 93.8934 34.9197 93.9796 34.3083C94.0737 33.6891 94.1481 33.0659 94.203 32.4388C94.2579 31.8118 94.2971 31.2239 94.3206 30.6752C94.3519 30.1186 94.3715 29.6209 94.3794 29.1819C94.3951 28.743 94.4029 28.402 94.4029 28.159C94.4029 28.0022 94.399 27.8494 94.3911 27.7004C94.3833 27.5515 94.3715 27.3987 94.3559 27.2419C94.8654 27.2576 95.371 27.2693 95.8726 27.2772C96.3743 27.285 96.8799 27.2889 97.3894 27.2889C97.7813 27.2889 98.1732 27.2889 98.5652 27.2889C98.9649 27.2811 99.3647 27.2654 99.7644 27.2419Z" fill="#CECECE"/>
</svg>
