<svg width="164" height="165" viewBox="0 0 164 165" fill="none" xmlns="http://www.w3.org/2000/svg">
<circle cx="82" cy="82.0693" r="78.99" fill="#FFEBDC" stroke="#FF903F" stroke-width="6.01999"/>
<path d="M49.7871 57.7062L52.822 35.162L63.6608 47.0972L75.8003 24.553L89.2405 43.5608C100.802 36.9302 122.374 20.5029 122.374 20.5029L117.656 51.092L149.504 67.8732L116.121 72.7357L136.064 110.751L91.4082 100.142L95.3102 126.665L66.6957 96.606L45.018 114.73V94.8378L18.5713 98.3742L38.0812 72.7357L21.6062 55.496L49.7871 57.7062Z" fill="white"/>
<path d="M45.1602 78.3623H113.618L107.861 137.014H52.068L45.1602 78.3623Z" fill="#FF903F"/>
<rect x="75.9014" y="78.3623" width="6.9772" height="58.6519" fill="black"/>
<mask id="mask0_2643_6451" style="mask-type:alpha" maskUnits="userSpaceOnUse" x="45" y="78" width="69" height="60">
<path d="M45.1602 78.3623H113.618L107.861 137.014H52.068L45.1602 78.3623Z" fill="#FF903F"/>
</mask>
<g mask="url(#mask0_2643_6451)">
<rect x="112.65" y="95.0742" width="7.91321" height="66.5202" transform="rotate(90 112.65 95.0742)" fill="black"/>
</g>
<path d="M75.371 52.9082L57.3086 64.664L75.905 78.358H79.2295L75.371 52.9082Z" fill="black"/>
<path d="M82.0092 49.3027L78.8314 82.3991L82.8806 78.3669L94.4096 55.0265L82.0092 49.3027Z" fill="black"/>
<path d="M71.4738 27.2194L71.3562 32.2047L67.8524 32.3458L67.4291 43.257L62.4673 43.5157L62.0205 32.6044L58.5167 32.7926L58.6578 27.2429L71.4738 27.2194ZM85.3781 43.3275L79.4992 43.6097L79.4521 38.6479H76.7479L76.5832 43.7979H71.3158L71.7625 27.2664L77.3593 27.5251L77.0065 35.9672H79.6168L79.6403 27.1253L85.0018 27.2664L85.3781 43.3275ZM99.788 27.2429C99.4352 30.002 99.1334 32.7494 98.8826 35.4851C98.6318 38.2129 98.3927 40.9603 98.1654 43.7273L93.3447 44.08L93.5563 42.2693C93.3996 42.4496 93.2154 42.6064 93.0037 42.7396C92.7999 42.8729 92.5804 42.9826 92.3453 43.0689C92.1101 43.1473 91.8671 43.206 91.6163 43.2452C91.3655 43.2766 91.1264 43.2883 90.8991 43.2805C90.366 43.2727 89.8644 43.1708 89.3941 42.9748C88.9238 42.771 88.4926 42.5045 88.1007 42.1753C87.7088 41.8382 87.3561 41.4502 87.0425 41.0113C86.729 40.5645 86.4625 40.0981 86.243 39.6121C86.0313 39.1182 85.8667 38.6166 85.7492 38.1071C85.6394 37.5976 85.5845 37.1037 85.5845 36.6256C85.5845 35.9201 85.5963 35.1911 85.6198 34.4386C85.6512 33.6783 85.7021 32.918 85.7727 32.1576C85.8432 31.3973 85.9334 30.6448 86.0431 29.9001C86.1607 29.1555 86.3057 28.4422 86.4781 27.7602C87.4344 27.8072 88.3947 27.8504 89.3588 27.8896C90.3229 27.9287 91.2832 27.9405 92.2395 27.9248C92.0592 28.6068 91.8789 29.2926 91.6986 29.9824C91.5262 30.6644 91.3694 31.3542 91.2283 32.0518C91.0872 32.7416 90.9735 33.4353 90.8873 34.1329C90.8011 34.8306 90.758 35.536 90.758 36.2493C90.758 36.414 90.7658 36.6491 90.7815 36.9548C90.7972 37.2605 90.8364 37.5623 90.8991 37.8602C90.9696 38.158 91.0715 38.4206 91.2048 38.6479C91.3459 38.8674 91.5418 38.9772 91.7927 38.9772C92.0905 38.9772 92.357 38.8517 92.5922 38.6009C92.8273 38.3422 93.0351 37.9973 93.2154 37.5662C93.3956 37.1351 93.5485 36.6374 93.6739 36.073C93.8072 35.5086 93.9169 34.9207 94.0031 34.3093C94.0972 33.6901 94.1717 33.0669 94.2265 32.4398C94.2814 31.8127 94.3206 31.2248 94.3441 30.6761C94.3755 30.1196 94.3951 29.6219 94.4029 29.1829C94.4186 28.744 94.4264 28.403 94.4264 28.16C94.4264 28.0032 94.4225 27.8504 94.4147 27.7014C94.4068 27.5525 94.3951 27.3996 94.3794 27.2429C94.8889 27.2585 95.3945 27.2703 95.8961 27.2781C96.3978 27.286 96.9034 27.2899 97.4129 27.2899C97.8048 27.2899 98.1967 27.2899 98.5887 27.2899C98.9884 27.2821 99.3882 27.2664 99.788 27.2429Z" fill="black"/>
</svg>
