<svg width="169" height="120" viewBox="0 0 169 120" fill="none" xmlns="http://www.w3.org/2000/svg">
<path d="M47.5295 36.9812L50.5462 14.5716L61.3204 26.4355L73.3874 4.02588L86.7473 22.9202C98.2397 16.3292 119.683 0 119.683 0L114.993 30.4064L146.651 47.0875L113.467 51.9209L133.292 89.7096L88.9021 79.164L92.7808 105.528L64.3371 75.6487L42.7889 93.6643V73.8911L16.5 77.4063L35.8934 51.9209L19.5168 34.7842L47.5295 36.9812Z" fill="#FF903F"/>
<path fill-rule="evenodd" clip-rule="evenodd" d="M151.795 18.7114C152.184 18.2301 152.11 17.5243 151.628 17.135L134.19 3.02881C133.709 2.63947 133.003 2.71403 132.614 3.19533L94.7667 49.9826C94.7667 49.9826 94.7667 49.9826 94.7667 49.9826C94.7667 49.9826 94.7667 49.9826 94.7667 49.9826L94.3594 68.5965C94.3434 69.3276 95.0204 69.8779 95.7327 69.7131L113.572 65.5857C113.816 65.5293 114.033 65.393 114.191 65.1986L151.795 18.7114Z" fill="black"/>
<path d="M37.2924 16.2163C34.5153 23.616 33.2235 31.69 36.1995 39.2614C38.497 45.1064 43.1121 48.3555 49.2679 49.1658C54.9115 49.9086 60.3243 48.8553 65.2865 45.9774C69.685 43.4265 75.0879 39.0707 76.0998 33.7121C77.2072 27.8476 70.358 23.5706 65.1956 24.4355C57.6424 25.701 53.6848 35.1381 53.4756 41.8756C53.1429 52.5916 59.9778 63.4614 69.1615 68.7301C75.2619 72.2299 82.3609 73.1623 89.2632 72.8807" stroke="black" stroke-width="3.36273" stroke-linecap="round"/>
</svg>
