<svg width="180" height="130" viewBox="0 0 180 130" fill="none" xmlns="http://www.w3.org/2000/svg">
<path d="M43.1376 43.4031L46.9128 18.1729L60.6041 29.0922L78.0309 5.89761L96.7957 22.9151C112.432 15.2953 141.379 0.505905 141.379 0.505905L135.439 34.7506L179.068 52.8947L133.692 58.9473L161.447 101.025L100.478 90.0117L106.211 119.555L66.7752 86.5242L37.547 107.166L37.2321 84.9544L1.27966 89.3968L27.4374 60.4039L4.73297 41.4611L43.1376 43.4031Z" fill="#FF903F"/>
<path d="M49.8496 62.6475H121.304L112.695 129.523H58.4585L49.8496 62.6475Z" fill="black"/>
<path d="M44.7266 49.1377L122.889 36.8438L124.395 46.1039L46.2329 58.3978L44.7266 49.1377Z" fill="black"/>
<path d="M62.9961 36.7666L100.665 30.8418L102.171 40.1019L64.5024 46.0267L62.9961 36.7666Z" fill="black"/>
<path fill-rule="evenodd" clip-rule="evenodd" d="M72.2341 81.6953C72.9472 81.6953 73.5254 82.2638 73.5254 82.9651L73.5254 108.361C73.5254 109.062 72.9472 109.631 72.2341 109.631C71.5209 109.631 70.9427 109.062 70.9427 108.361L70.9427 82.9651C70.9427 82.2638 71.5209 81.6953 72.2341 81.6953Z" fill="white"/>
<path fill-rule="evenodd" clip-rule="evenodd" d="M86.0075 81.6953C86.7207 81.6953 87.2988 82.2638 87.2988 82.9651L87.2988 108.361C87.2988 109.062 86.7207 109.631 86.0075 109.631C85.2943 109.631 84.7162 109.062 84.7162 108.361L84.7162 82.9651C84.7162 82.2638 85.2943 81.6953 86.0075 81.6953Z" fill="white"/>
<path fill-rule="evenodd" clip-rule="evenodd" d="M99.7829 81.6953C100.496 81.6953 101.074 82.2638 101.074 82.9651L101.074 108.361C101.074 109.062 100.496 109.631 99.7829 109.631C99.0697 109.631 98.4915 109.062 98.4915 108.361L98.4915 82.9651C98.4915 82.2638 99.0697 81.6953 99.7829 81.6953Z" fill="white"/>
</svg>
