<svg width="164" height="165" viewBox="0 0 164 165" fill="none" xmlns="http://www.w3.org/2000/svg">
<circle cx="82" cy="82.6455" r="78.99" fill="#FFEBDC" stroke="#FF903F" stroke-width="6.01999"/>
<path d="M49.7871 58.2814L52.822 35.7372L63.6608 47.6724L75.8003 25.1282L89.2405 44.136C100.802 37.5054 122.374 21.0781 122.374 21.0781L117.656 51.6672L149.504 68.4484L116.121 73.3109L136.064 111.327L91.4082 100.718L95.3102 127.24L66.6957 97.1812L45.018 115.305V95.413L18.5713 98.9494L38.0812 73.3109L21.6062 56.0712L49.7871 58.2814Z" fill="white"/>
<path d="M45.1602 78.9375H113.618L107.861 137.59H52.068L45.1602 78.9375Z" fill="#FF903F"/>
<rect x="75.9014" y="78.9375" width="6.9772" height="58.6519" fill="black"/>
<mask id="mask0_2643_6395" style="mask-type:alpha" maskUnits="userSpaceOnUse" x="45" y="78" width="69" height="60">
<path d="M45.1602 78.9375H113.618L107.861 137.59H52.068L45.1602 78.9375Z" fill="#FF903F"/>
</mask>
<g mask="url(#mask0_2643_6395)">
<rect x="112.65" y="95.6494" width="7.91321" height="66.5202" transform="rotate(90 112.65 95.6494)" fill="black"/>
</g>
<path d="M75.371 53.4834L57.3086 65.2392L75.905 78.9332H79.2295L75.371 53.4834Z" fill="black"/>
<path d="M82.0092 49.8779L78.8314 82.9743L82.8806 78.9421L94.4096 55.6017L82.0092 49.8779Z" fill="black"/>
<path d="M73.1606 27.5594L73.043 32.5447L69.5392 32.6858L68.6456 43.8322L63.6838 44.0909L63.7073 32.9445L60.2035 33.1326L60.3446 27.5829L73.1606 27.5594ZM87.1002 27.8181C86.7475 30.5772 86.4457 33.3246 86.1948 36.0603C85.944 38.7881 85.7049 41.5355 85.4776 44.3025L80.6569 44.6552L80.8686 42.8445C80.7118 43.0248 80.5276 43.1816 80.3159 43.3148C80.1121 43.4481 79.8927 43.5578 79.6575 43.6441C79.4223 43.7224 79.1794 43.7812 78.9285 43.8204C78.6777 43.8518 78.4386 43.8635 78.2113 43.8557C77.6783 43.8479 77.1766 43.746 76.7063 43.55C76.236 43.3462 75.8049 43.0797 75.4129 42.7505C75.021 42.4134 74.6683 42.0254 74.3547 41.5864C74.0412 41.1397 73.7747 40.6733 73.5552 40.1873C73.3436 39.6934 73.179 39.1918 73.0614 38.6823C72.9516 38.1728 72.8968 37.6789 72.8968 37.2008C72.8968 36.4953 72.9085 35.7663 72.932 35.0138C72.9634 34.2535 73.0143 33.4932 73.0849 32.7328C73.1554 31.9725 73.2456 31.22 73.3553 30.4753C73.4729 29.7307 73.6179 29.0174 73.7904 28.3354C74.7467 28.3824 75.7069 28.4256 76.671 28.4647C77.6352 28.5039 78.5954 28.5157 79.5517 28.5C79.3714 29.182 79.1911 29.8678 79.0108 30.5576C78.8384 31.2396 78.6816 31.9294 78.5405 32.627C78.3994 33.3168 78.2858 34.0105 78.1995 34.7081C78.1133 35.4058 78.0702 36.1112 78.0702 36.8245C78.0702 36.9891 78.078 37.2243 78.0937 37.53C78.1094 37.8357 78.1486 38.1375 78.2113 38.4354C78.2818 38.7332 78.3837 38.9958 78.517 39.2231C78.6581 39.4426 78.8541 39.5523 79.1049 39.5523C79.4027 39.5523 79.6693 39.4269 79.9044 39.1761C80.1396 38.9174 80.3473 38.5725 80.5276 38.1414C80.7079 37.7103 80.8607 37.2125 80.9861 36.6482C81.1194 36.0838 81.2291 35.4959 81.3154 34.8845C81.4094 34.2653 81.4839 33.6421 81.5387 33.015C81.5936 32.3879 81.6328 31.8 81.6563 31.2513C81.6877 30.6948 81.7073 30.1971 81.7151 29.7581C81.7308 29.3191 81.7386 28.9782 81.7386 28.7352C81.7386 28.5784 81.7347 28.4256 81.7269 28.2766C81.719 28.1277 81.7073 27.9748 81.6916 27.8181C82.2011 27.8337 82.7067 27.8455 83.2084 27.8533C83.71 27.8612 84.2156 27.8651 84.7251 27.8651C85.117 27.8651 85.509 27.8651 85.9009 27.8651C86.3007 27.8573 86.7004 27.8416 87.1002 27.8181ZM100.017 34.8727C100.017 35.5547 99.9698 36.2367 99.8757 36.9186C98.5354 37.0048 97.2028 37.1459 95.8781 37.3419C94.5534 37.53 93.2287 37.7181 91.904 37.9063C92.1078 38.4706 92.4252 38.9213 92.8563 39.2584C93.2953 39.5955 93.8166 39.764 94.4201 39.764C94.7337 39.764 95.0746 39.7052 95.443 39.5876C95.8193 39.47 96.1916 39.325 96.56 39.1526C96.9285 38.9723 97.2812 38.7803 97.6182 38.5765C97.9553 38.3727 98.2453 38.1884 98.4883 38.0238L97.9239 43.3619C97.6182 43.597 97.2851 43.7969 96.9245 43.9615C96.5718 44.1261 96.2034 44.2594 95.8193 44.3613C95.4352 44.4632 95.0472 44.5377 94.6553 44.5847C94.2634 44.6317 93.8793 44.6552 93.503 44.6552C92.727 44.6552 92.0176 44.5494 91.3749 44.3378C90.7321 44.1261 90.1481 43.8322 89.6229 43.4559C89.1056 43.0719 88.651 42.6211 88.259 42.1038C87.8671 41.5864 87.5418 41.0221 87.2831 40.4107C87.0245 39.7993 86.8285 39.1526 86.6952 38.4706C86.562 37.7887 86.4954 37.0989 86.4954 36.4013C86.4954 35.6723 86.562 34.9433 86.6952 34.2143C86.8285 33.4853 87.0284 32.7838 87.2949 32.1097C87.5692 31.4355 87.9102 30.8124 88.3178 30.2402C88.7333 29.6601 89.2153 29.1545 89.764 28.7234C90.3127 28.2923 90.932 27.9552 91.6218 27.7122C92.3194 27.4693 93.0876 27.3478 93.9263 27.3478C94.6239 27.3478 95.2588 27.4457 95.8311 27.6417C96.4111 27.8298 96.9245 28.0963 97.3713 28.4412C97.826 28.7783 98.2179 29.182 98.5471 29.6523C98.8842 30.1226 99.1585 30.6399 99.3702 31.2043C99.5896 31.7608 99.7503 32.3527 99.8522 32.9797C99.962 33.599 100.017 34.23 100.017 34.8727ZM95.3137 34.2613C95.3137 34.0419 95.2902 33.8185 95.2432 33.5911C95.1961 33.356 95.1178 33.1443 95.008 32.9562C94.9061 32.7681 94.7689 32.6152 94.5965 32.4977C94.424 32.3723 94.2085 32.3095 93.9498 32.3095C93.6363 32.3095 93.358 32.3958 93.115 32.5682C92.8798 32.7328 92.676 32.9445 92.5036 33.2031C92.3312 33.454 92.1901 33.7283 92.0803 34.0262C91.9706 34.324 91.8883 34.5984 91.8334 34.8492L95.3137 34.52V34.2613Z" fill="black"/>
</svg>
