<svg width="164" height="165" viewBox="0 0 164 165" fill="none" xmlns="http://www.w3.org/2000/svg">
<circle cx="82" cy="82.6455" r="78.99" fill="#F7F7FA" stroke="#E8E8ED" stroke-width="6.01999"/>
<path d="M49.7871 58.2824L52.822 35.7382L63.6608 47.6733L75.8003 25.1292L89.2405 44.137C100.802 37.5064 122.374 21.0791 122.374 21.0791L117.656 51.6681L149.504 68.4494L116.121 73.3119L136.064 111.328L91.4082 100.719L95.3102 127.241L66.6957 97.1822L45.018 115.306V95.414L18.5713 98.9503L38.0812 73.3119L21.6062 56.0722L49.7871 58.2824Z" fill="#E8E8ED"/>
<path d="M45.1602 78.9375H113.618L107.861 137.59H52.068L45.1602 78.9375Z" fill="#F5D4BC"/>
<rect x="75.8994" y="78.9375" width="6.9772" height="58.6519" fill="#D4AF95"/>
<mask id="mask0_2643_6381" style="mask-type:alpha" maskUnits="userSpaceOnUse" x="45" y="78" width="69" height="60">
<path d="M45.1602 78.9375H113.618L107.861 137.59H52.068L45.1602 78.9375Z" fill="#FF903F"/>
</mask>
<g mask="url(#mask0_2643_6381)">
<rect x="112.65" y="95.6494" width="7.91321" height="66.5202" transform="rotate(90 112.65 95.6494)" fill="#D4AF95"/>
</g>
<path d="M75.37 53.4834L57.3076 65.2392L75.904 78.9332H79.2285L75.37 53.4834Z" fill="#D4AF95"/>
<path d="M82.0082 49.8779L78.8304 82.9743L82.8796 78.9421L94.4087 55.6017L82.0082 49.8779Z" fill="#D4AF95"/>
<path d="M73.1606 27.5604L73.043 32.5457L69.5392 32.6868L68.6456 43.8332L63.6838 44.0918L63.7073 32.9454L60.2035 33.1336L60.3446 27.5839L73.1606 27.5604ZM87.1002 27.819C86.7475 30.5782 86.4457 33.3256 86.1948 36.0613C85.944 38.7891 85.7049 41.5365 85.4776 44.3035L80.6569 44.6562L80.8686 42.8455C80.7118 43.0258 80.5276 43.1826 80.3159 43.3158C80.1121 43.4491 79.8927 43.5588 79.6575 43.645C79.4223 43.7234 79.1794 43.7822 78.9285 43.8214C78.6777 43.8528 78.4386 43.8645 78.2113 43.8567C77.6783 43.8488 77.1766 43.7469 76.7063 43.551C76.236 43.3472 75.8049 43.0807 75.4129 42.7514C75.021 42.4144 74.6683 42.0264 74.3547 41.5874C74.0412 41.1406 73.7747 40.6742 73.5552 40.1882C73.3436 39.6944 73.179 39.1928 73.0614 38.6832C72.9516 38.1737 72.8968 37.6799 72.8968 37.2018C72.8968 36.4963 72.9085 35.7673 72.932 35.0148C72.9634 34.2545 73.0143 33.4941 73.0849 32.7338C73.1554 31.9735 73.2456 31.221 73.3553 30.4763C73.4729 29.7316 73.6179 29.0183 73.7904 28.3364C74.7467 28.3834 75.7069 28.4265 76.671 28.4657C77.6352 28.5049 78.5954 28.5167 79.5517 28.501C79.3714 29.1829 79.1911 29.8688 79.0108 30.5586C78.8384 31.2406 78.6816 31.9304 78.5405 32.628C78.3994 33.3178 78.2858 34.0115 78.1995 34.7091C78.1133 35.4067 78.0702 36.1122 78.0702 36.8255C78.0702 36.9901 78.078 37.2253 78.0937 37.531C78.1094 37.8367 78.1486 38.1385 78.2113 38.4363C78.2818 38.7342 78.3837 38.9968 78.517 39.2241C78.6581 39.4436 78.8541 39.5533 79.1049 39.5533C79.4027 39.5533 79.6693 39.4279 79.9044 39.1771C80.1396 38.9184 80.3473 38.5735 80.5276 38.1424C80.7079 37.7113 80.8607 37.2135 80.9861 36.6491C81.1194 36.0848 81.2291 35.4969 81.3154 34.8855C81.4094 34.2662 81.4839 33.6431 81.5387 33.016C81.5936 32.3889 81.6328 31.801 81.6563 31.2523C81.6877 30.6958 81.7073 30.198 81.7151 29.7591C81.7308 29.3201 81.7386 28.9791 81.7386 28.7362C81.7386 28.5794 81.7347 28.4265 81.7269 28.2776C81.719 28.1287 81.7073 27.9758 81.6916 27.819C82.2011 27.8347 82.7067 27.8465 83.2084 27.8543C83.71 27.8622 84.2156 27.8661 84.7251 27.8661C85.117 27.8661 85.509 27.8661 85.9009 27.8661C86.3007 27.8582 86.7004 27.8426 87.1002 27.819ZM100.017 34.8737C100.017 35.5557 99.9698 36.2376 99.8757 36.9196C98.5354 37.0058 97.2028 37.1469 95.8781 37.3429C94.5534 37.531 93.2287 37.7191 91.904 37.9072C92.1078 38.4716 92.4252 38.9223 92.8563 39.2594C93.2953 39.5964 93.8166 39.765 94.4201 39.765C94.7337 39.765 95.0746 39.7062 95.443 39.5886C95.8193 39.471 96.1916 39.326 96.56 39.1536C96.9285 38.9733 97.2812 38.7812 97.6182 38.5774C97.9553 38.3736 98.2453 38.1894 98.4883 38.0248L97.9239 43.3629C97.6182 43.598 97.2851 43.7979 96.9245 43.9625C96.5718 44.1271 96.2034 44.2604 95.8193 44.3623C95.4352 44.4642 95.0472 44.5386 94.6553 44.5857C94.2634 44.6327 93.8793 44.6562 93.503 44.6562C92.727 44.6562 92.0176 44.5504 91.3749 44.3388C90.7321 44.1271 90.1481 43.8332 89.6229 43.4569C89.1056 43.0728 88.651 42.6221 88.259 42.1048C87.8671 41.5874 87.5418 41.0231 87.2831 40.4116C87.0245 39.8002 86.8285 39.1536 86.6952 38.4716C86.562 37.7897 86.4954 37.0999 86.4954 36.4022C86.4954 35.6733 86.562 34.9443 86.6952 34.2153C86.8285 33.4863 87.0284 32.7848 87.2949 32.1106C87.5692 31.4365 87.9102 30.8134 88.3178 30.2411C88.7333 29.6611 89.2153 29.1555 89.764 28.7244C90.3127 28.2933 90.932 27.9562 91.6218 27.7132C92.3194 27.4702 93.0876 27.3487 93.9263 27.3487C94.6239 27.3487 95.2588 27.4467 95.8311 27.6427C96.4111 27.8308 96.9245 28.0973 97.3713 28.4422C97.826 28.7793 98.2179 29.1829 98.5471 29.6533C98.8842 30.1236 99.1585 30.6409 99.3702 31.2053C99.5896 31.7618 99.7503 32.3536 99.8522 32.9807C99.962 33.6 100.017 34.231 100.017 34.8737ZM95.3137 34.2623C95.3137 34.0428 95.2902 33.8194 95.2432 33.5921C95.1961 33.357 95.1178 33.1453 95.008 32.9572C94.9061 32.7691 94.7689 32.6162 94.5965 32.4986C94.424 32.3732 94.2085 32.3105 93.9498 32.3105C93.6363 32.3105 93.358 32.3967 93.115 32.5692C92.8798 32.7338 92.676 32.9454 92.5036 33.2041C92.3312 33.4549 92.1901 33.7293 92.0803 34.0272C91.9706 34.325 91.8883 34.5994 91.8334 34.8502L95.3137 34.521V34.2623Z" fill="#CECECE"/>
</svg>
