<svg width="164" height="165" viewBox="0 0 164 165" fill="none" xmlns="http://www.w3.org/2000/svg">
<circle cx="82" cy="82.291" r="78.99" fill="#F7F7FA" stroke="#E8E8ED" stroke-width="6.01999"/>
<path d="M49.7871 57.9269L52.822 35.3827L63.6608 47.3179L75.8003 24.7737L89.2405 43.7815C100.802 37.1509 122.374 20.7236 122.374 20.7236L117.656 51.3127L149.504 68.0939L116.121 72.9564L136.064 110.972L91.4082 100.363L95.3102 126.886L66.6957 96.8267L45.018 114.95V95.0585L18.5713 98.5949L38.0812 72.9564L21.6062 55.7167L49.7871 57.9269Z" fill="#E8E8ED"/>
<path d="M45.1602 78.582H113.618L107.861 137.234H52.068L45.1602 78.582Z" fill="#F5D4BC"/>
<rect x="75.8994" y="78.582" width="6.9772" height="58.6519" fill="#D4AF95"/>
<mask id="mask0_2643_6409" style="mask-type:alpha" maskUnits="userSpaceOnUse" x="45" y="78" width="69" height="60">
<path d="M45.1602 78.583H113.618L107.861 137.235H52.068L45.1602 78.583Z" fill="#FF903F"/>
</mask>
<g mask="url(#mask0_2643_6409)">
<rect x="112.65" y="95.2949" width="7.91321" height="66.5202" transform="rotate(90 112.65 95.2949)" fill="#D4AF95"/>
</g>
<path d="M75.37 53.1279L57.3076 64.8837L75.904 78.5777H79.2285L75.37 53.1279Z" fill="#D4AF95"/>
<path d="M82.0082 49.5224L78.8304 82.6189L82.8796 78.5866L94.4087 55.2463L82.0082 49.5224Z" fill="#D4AF95"/>
<path d="M77.4431 27.6987L74.6918 43.995L68.0134 44.1361L66.5789 35.694L65.1445 43.5247L58.4661 43.7599L55.6912 27.6987L61.5231 27.1814L62.6989 36.9404L64.2744 27.1814H68.86L70.6942 37.0579L71.6348 27.1814L77.4431 27.6987ZM90.1482 34.5183C90.1482 35.2002 90.1011 35.8822 90.0071 36.5641C88.6667 36.6503 87.3341 36.7914 86.0094 36.9874C84.6847 37.1755 83.36 37.3636 82.0353 37.5518C82.2391 38.1161 82.5565 38.5669 82.9877 38.9039C83.4266 39.241 83.9479 39.4095 84.5514 39.4095C84.865 39.4095 85.206 39.3507 85.5744 39.2331C85.9506 39.1156 86.3229 38.9705 86.6914 38.7981C87.0598 38.6178 87.4125 38.4258 87.7496 38.222C88.0866 38.0182 88.3766 37.834 88.6196 37.6693L88.0553 43.0074C87.7496 43.2425 87.4164 43.4424 87.0559 43.607C86.7031 43.7716 86.3347 43.9049 85.9506 44.0068C85.5665 44.1087 85.1785 44.1832 84.7866 44.2302C84.3947 44.2772 84.0106 44.3007 83.6343 44.3007C82.8583 44.3007 82.1489 44.1949 81.5062 43.9833C80.8634 43.7716 80.2794 43.4777 79.7543 43.1014C79.2369 42.7174 78.7823 42.2666 78.3904 41.7493C77.9984 41.232 77.6731 40.6676 77.4145 40.0562C77.1558 39.4448 76.9598 38.7981 76.8266 38.1161C76.6933 37.4342 76.6267 36.7444 76.6267 36.0468C76.6267 35.3178 76.6933 34.5888 76.8266 33.8598C76.9598 33.1308 77.1597 32.4293 77.4262 31.7552C77.7006 31.0811 78.0415 30.4579 78.4491 29.8857C78.8646 29.3056 79.3467 28.8 79.8954 28.3689C80.444 27.9378 81.0633 27.6007 81.7531 27.3578C82.4507 27.1148 83.2189 26.9933 84.0576 26.9933C84.7552 26.9933 85.3902 27.0912 85.9624 27.2872C86.5424 27.4753 87.0559 27.7418 87.5026 28.0867C87.9573 28.4238 88.3492 28.8275 88.6784 29.2978C89.0155 29.7681 89.2898 30.2854 89.5015 30.8498C89.721 31.4064 89.8816 31.9982 89.9835 32.6252C90.0933 33.2445 90.1482 33.8755 90.1482 34.5183ZM85.445 33.9068C85.445 33.6874 85.4215 33.464 85.3745 33.2367C85.3275 33.0015 85.2491 32.7899 85.1393 32.6017C85.0374 32.4136 84.9003 32.2608 84.7278 32.1432C84.5554 32.0178 84.3398 31.9551 84.0811 31.9551C83.7676 31.9551 83.4893 32.0413 83.2463 32.2137C83.0112 32.3783 82.8074 32.59 82.6349 32.8486C82.4625 33.0995 82.3214 33.3738 82.2116 33.6717C82.1019 33.9696 82.0196 34.2439 81.9647 34.4947L85.445 34.1655V33.9068ZM103.523 34.6829C103.523 35.7803 103.382 36.764 103.1 37.6341C102.818 38.5041 102.422 39.2762 101.913 39.9504C101.411 40.6166 100.811 41.1849 100.114 41.6552C99.416 42.1255 98.6517 42.5136 97.8208 42.8193C96.9899 43.1171 96.1042 43.3366 95.1636 43.4777C94.2308 43.6188 93.2706 43.6893 92.2829 43.6893C91.9145 43.6893 91.5539 43.6815 91.2012 43.6658C90.8484 43.6423 90.4879 43.611 90.1195 43.5718L90.4487 28.2631C91.3109 27.9888 92.1967 27.7967 93.1059 27.687C94.0231 27.5694 94.9323 27.5106 95.8338 27.5106C96.9547 27.5106 97.9854 27.6674 98.9261 27.9809C99.8667 28.2945 100.678 28.7569 101.36 29.3683C102.042 29.9719 102.571 30.7205 102.947 31.6141C103.331 32.4998 103.523 33.5228 103.523 34.6829ZM95.528 39.1979C95.9984 39.1273 96.4256 38.9862 96.8096 38.7746C97.2016 38.5551 97.5386 38.2886 97.8208 37.975C98.103 37.6537 98.3186 37.2931 98.4675 36.8933C98.6243 36.4857 98.7027 36.0546 98.7027 35.6C98.7027 35.1532 98.6556 34.7377 98.5616 34.3536C98.4675 33.9617 98.3146 33.6247 98.103 33.3425C97.8914 33.0524 97.6131 32.8251 97.2682 32.6605C96.9233 32.4881 96.5 32.394 95.9984 32.3783L95.528 39.1979Z" fill="#CECECE"/>
</svg>
