<svg width="164" height="165" viewBox="0 0 164 165" fill="none" xmlns="http://www.w3.org/2000/svg">
<circle cx="82" cy="82.292" r="78.99" fill="#FFEBDC" stroke="#FF903F" stroke-width="6.01999"/>
<path d="M49.7871 57.9289L52.822 35.3847L63.6608 47.3198L75.8003 24.7756L89.2405 43.7835C100.802 37.1528 122.374 20.7256 122.374 20.7256L117.656 51.3146L149.504 68.0959L116.121 72.9583L136.064 110.974L91.4082 100.365L95.3102 126.888L66.6957 96.8287L45.018 114.952V95.0605L18.5713 98.5968L38.0812 72.9583L21.6062 55.7187L49.7871 57.9289Z" fill="white"/>
<path d="M45.1602 78.584H113.618L107.861 137.236H52.068L45.1602 78.584Z" fill="#FF903F"/>
<rect x="75.9014" y="78.584" width="6.9772" height="58.6519" fill="black"/>
<mask id="mask0_2643_6424" style="mask-type:alpha" maskUnits="userSpaceOnUse" x="45" y="78" width="69" height="60">
<path d="M45.1602 78.583H113.618L107.861 137.235H52.068L45.1602 78.583Z" fill="#FF903F"/>
</mask>
<g mask="url(#mask0_2643_6424)">
<rect x="112.65" y="95.2949" width="7.91321" height="66.5202" transform="rotate(90 112.65 95.2949)" fill="black"/>
</g>
<path d="M75.371 53.1299L57.3086 64.8856L75.905 78.5797H79.2295L75.371 53.1299Z" fill="black"/>
<path d="M82.0092 49.5244L78.8314 82.6208L82.8806 78.5886L94.4096 55.2482L82.0092 49.5244Z" fill="black"/>
<path d="M77.4431 27.7007L74.6918 43.997L68.0134 44.1381L66.5789 35.696L65.1445 43.5267L58.4661 43.7618L55.6912 27.7007L61.5231 27.1833L62.6989 36.9423L64.2744 27.1833H68.86L70.6942 37.0599L71.6348 27.1833L77.4431 27.7007ZM90.1482 34.5202C90.1482 35.2022 90.1011 35.8841 90.0071 36.5661C88.6667 36.6523 87.3341 36.7934 86.0094 36.9893C84.6847 37.1775 83.36 37.3656 82.0353 37.5537C82.2391 38.1181 82.5565 38.5688 82.9877 38.9059C83.4266 39.2429 83.9479 39.4115 84.5514 39.4115C84.865 39.4115 85.206 39.3527 85.5744 39.2351C85.9506 39.1175 86.3229 38.9725 86.6914 38.8C87.0598 38.6198 87.4125 38.4277 87.7496 38.2239C88.0866 38.0201 88.3766 37.8359 88.6196 37.6713L88.0553 43.0093C87.7496 43.2445 87.4164 43.4444 87.0559 43.609C86.7031 43.7736 86.3347 43.9068 85.9506 44.0088C85.5665 44.1107 85.1785 44.1851 84.7866 44.2321C84.3947 44.2792 84.0106 44.3027 83.6343 44.3027C82.8583 44.3027 82.1489 44.1969 81.5062 43.9852C80.8634 43.7736 80.2794 43.4796 79.7543 43.1034C79.2369 42.7193 78.7823 42.2686 78.3904 41.7513C77.9984 41.2339 77.6731 40.6695 77.4145 40.0581C77.1558 39.4467 76.9598 38.8 76.8266 38.1181C76.6933 37.4361 76.6267 36.7463 76.6267 36.0487C76.6267 35.3197 76.6933 34.5908 76.8266 33.8618C76.9598 33.1328 77.1597 32.4312 77.4262 31.7571C77.7006 31.083 78.0415 30.4598 78.4491 29.8876C78.8646 29.3076 79.3467 28.802 79.8954 28.3709C80.444 27.9398 81.0633 27.6027 81.7531 27.3597C82.4507 27.1167 83.2189 26.9952 84.0576 26.9952C84.7552 26.9952 85.3902 27.0932 85.9624 27.2892C86.5424 27.4773 87.0559 27.7438 87.5026 28.0887C87.9573 28.4257 88.3492 28.8294 88.6784 29.2997C89.0155 29.7701 89.2898 30.2874 89.5015 30.8518C89.721 31.4083 89.8816 32.0001 89.9835 32.6272C90.0933 33.2464 90.1482 33.8774 90.1482 34.5202ZM85.445 33.9088C85.445 33.6893 85.4215 33.4659 85.3745 33.2386C85.3275 33.0035 85.2491 32.7918 85.1393 32.6037C85.0374 32.4156 84.9003 32.2627 84.7278 32.1451C84.5554 32.0197 84.3398 31.957 84.0811 31.957C83.7676 31.957 83.4893 32.0432 83.2463 32.2157C83.0112 32.3803 82.8074 32.5919 82.6349 32.8506C82.4625 33.1014 82.3214 33.3758 82.2116 33.6736C82.1019 33.9715 82.0196 34.2459 81.9647 34.4967L85.445 34.1675V33.9088ZM103.523 34.6848C103.523 35.7822 103.382 36.7659 103.1 37.636C102.818 38.5061 102.422 39.2782 101.913 39.9523C101.411 40.6186 100.811 41.1869 100.114 41.6572C99.416 42.1275 98.6517 42.5155 97.8208 42.8212C96.9899 43.1191 96.1042 43.3386 95.1636 43.4796C94.2308 43.6207 93.2706 43.6913 92.2829 43.6913C91.9145 43.6913 91.5539 43.6835 91.2012 43.6678C90.8484 43.6443 90.4879 43.6129 90.1195 43.5737L90.4487 28.2651C91.3109 27.9907 92.1967 27.7987 93.1059 27.6889C94.0231 27.5713 94.9323 27.5126 95.8338 27.5126C96.9547 27.5126 97.9854 27.6693 98.9261 27.9829C99.8667 28.2964 100.678 28.7589 101.36 29.3703C102.042 29.9739 102.571 30.7224 102.947 31.616C103.331 32.5018 103.523 33.5247 103.523 34.6848ZM95.528 39.1998C95.9984 39.1293 96.4256 38.9882 96.8096 38.7765C97.2016 38.5571 97.5386 38.2905 97.8208 37.977C98.103 37.6556 98.3186 37.295 98.4675 36.8953C98.6243 36.4877 98.7027 36.0566 98.7027 35.6019C98.7027 35.1551 98.6556 34.7397 98.5616 34.3556C98.4675 33.9637 98.3146 33.6266 98.103 33.3444C97.8914 33.0544 97.6131 32.8271 97.2682 32.6625C96.9233 32.49 96.5 32.396 95.9984 32.3803L95.528 39.1998Z" fill="black"/>
</svg>
