<svg width="132" height="118" viewBox="0 0 132 118" fill="none" xmlns="http://www.w3.org/2000/svg">
<path d="M31.7871 37.9289L34.822 15.3847L45.6608 27.3198L57.8003 4.77564L71.2405 23.7835C82.8019 17.1528 104.374 0.725586 104.374 0.725586L99.6558 31.3146L131.504 48.0959L98.1208 52.9583L118.064 90.974L73.4082 80.365L77.3102 106.888L48.6957 76.8287L27.018 94.9524V75.0605L0.571289 78.5968L20.0812 52.9583L3.60616 35.7187L31.7871 37.9289Z" fill="white"/>
<path d="M27.1602 58.584H95.6177L89.8612 117.236H34.068L27.1602 58.584Z" fill="#FF903F"/>
<rect x="57.9014" y="58.584" width="6.9772" height="58.6519" fill="black"/>
<mask id="mask0_2643_6426" style="mask-type:alpha" maskUnits="userSpaceOnUse" x="27" y="58" width="69" height="60">
<path d="M27.1602 58.583H95.6177L89.8612 117.235H34.068L27.1602 58.583Z" fill="#FF903F"/>
</mask>
<g mask="url(#mask0_2643_6426)">
<rect x="94.6504" y="75.2949" width="7.91321" height="66.5202" transform="rotate(90 94.6504 75.2949)" fill="black"/>
</g>
<path d="M57.371 33.1299L39.3086 44.8856L57.905 58.5797H61.2295L57.371 33.1299Z" fill="black"/>
<path d="M64.0092 29.5244L60.8314 62.6208L64.8806 58.5886L76.4096 35.2482L64.0092 29.5244Z" fill="black"/>
<path d="M59.4431 7.70068L56.6918 23.997L50.0134 24.1381L48.5789 15.696L47.1445 23.5267L40.4661 23.7618L37.6912 7.70068L43.5231 7.18334L44.6989 16.9423L46.2744 7.18334H50.86L52.6942 17.0599L53.6348 7.18334L59.4431 7.70068ZM72.1482 14.5202C72.1482 15.2022 72.1011 15.8841 72.0071 16.5661C70.6667 16.6523 69.3341 16.7934 68.0094 16.9893C66.6847 17.1775 65.36 17.3656 64.0353 17.5537C64.2391 18.1181 64.5565 18.5688 64.9877 18.9059C65.4266 19.2429 65.9479 19.4115 66.5514 19.4115C66.865 19.4115 67.206 19.3527 67.5744 19.2351C67.9506 19.1175 68.3229 18.9725 68.6914 18.8C69.0598 18.6198 69.4125 18.4277 69.7496 18.2239C70.0866 18.0201 70.3766 17.8359 70.6196 17.6713L70.0553 23.0093C69.7496 23.2445 69.4164 23.4444 69.0559 23.609C68.7031 23.7736 68.3347 23.9068 67.9506 24.0088C67.5665 24.1107 67.1785 24.1851 66.7866 24.2321C66.3947 24.2792 66.0106 24.3027 65.6343 24.3027C64.8583 24.3027 64.1489 24.1969 63.5062 23.9852C62.8634 23.7736 62.2794 23.4796 61.7543 23.1034C61.2369 22.7193 60.7823 22.2686 60.3904 21.7513C59.9984 21.2339 59.6731 20.6695 59.4145 20.0581C59.1558 19.4467 58.9598 18.8 58.8266 18.1181C58.6933 17.4361 58.6267 16.7463 58.6267 16.0487C58.6267 15.3197 58.6933 14.5908 58.8266 13.8618C58.9598 13.1328 59.1597 12.4312 59.4262 11.7571C59.7006 11.083 60.0415 10.4598 60.4491 9.88763C60.8646 9.30758 61.3467 8.802 61.8954 8.37088C62.444 7.93976 63.0633 7.6027 63.7531 7.35971C64.4507 7.11671 65.2189 6.99522 66.0576 6.99522C66.7552 6.99522 67.3902 7.0932 67.9624 7.28916C68.5424 7.47729 69.0559 7.7438 69.5026 8.08869C69.9573 8.42575 70.3492 8.82943 70.6784 9.29974C71.0155 9.77006 71.2898 10.2874 71.5015 10.8518C71.721 11.4083 71.8816 12.0001 71.9835 12.6272C72.0933 13.2464 72.1482 13.8774 72.1482 14.5202ZM67.445 13.9088C67.445 13.6893 67.4215 13.4659 67.3745 13.2386C67.3275 13.0035 67.2491 12.7918 67.1393 12.6037C67.0374 12.4156 66.9003 12.2627 66.7278 12.1451C66.5554 12.0197 66.3398 11.957 66.0811 11.957C65.7676 11.957 65.4893 12.0432 65.2463 12.2157C65.0112 12.3803 64.8074 12.5919 64.6349 12.8506C64.4625 13.1014 64.3214 13.3758 64.2116 13.6736C64.1019 13.9715 64.0196 14.2459 63.9647 14.4967L67.445 14.1675V13.9088ZM85.5234 14.6848C85.5234 15.7822 85.3823 16.7659 85.1001 17.636C84.8179 18.5061 84.422 19.2782 83.9125 19.9523C83.4109 20.6186 82.8112 21.1869 82.1136 21.6572C81.416 22.1275 80.6517 22.5155 79.8208 22.8212C78.9899 23.1191 78.1042 23.3386 77.1636 23.4796C76.2308 23.6207 75.2706 23.6913 74.2829 23.6913C73.9145 23.6913 73.5539 23.6835 73.2012 23.6678C72.8484 23.6443 72.4879 23.6129 72.1195 23.5737L72.4487 8.26506C73.3109 7.99071 74.1967 7.79867 75.1059 7.68893C76.0231 7.57135 76.9323 7.51256 77.8338 7.51256C78.9547 7.51256 79.9854 7.66933 80.9261 7.98287C81.8667 8.29641 82.678 8.75889 83.3599 9.37029C84.0419 9.97386 84.571 10.7224 84.9472 11.616C85.3313 12.5018 85.5234 13.5247 85.5234 14.6848ZM77.528 19.1998C77.9984 19.1293 78.4256 18.9882 78.8096 18.7765C79.2016 18.5571 79.5386 18.2905 79.8208 17.977C80.103 17.6556 80.3186 17.295 80.4675 16.8953C80.6243 16.4877 80.7027 16.0566 80.7027 15.6019C80.7027 15.1551 80.6556 14.7397 80.5616 14.3556C80.4675 13.9637 80.3146 13.6266 80.103 13.3444C79.8914 13.0544 79.6131 12.8271 79.2682 12.6625C78.9233 12.49 78.5 12.396 77.9984 12.3803L77.528 19.1998Z" fill="black"/>
</svg>
